<mxfile host="app.diagrams.net" modified="2024-06-29T15:38:06.925Z" agent="Mozilla/5.0 (Macintosh; Intel Mac OS X 10_15_7) AppleWebKit/537.36 (KHTML, like Gecko) Chrome/126.0.0.0 Safari/537.36" etag="O30t375P7shgUilsFIql" version="24.6.3" type="device">
  <diagram name="ページ1" id="7Ta658FmUICLKaumFb-M">
    <mxGraphModel dx="1059" dy="540" grid="1" gridSize="10" guides="1" tooltips="1" connect="1" arrows="1" fold="1" page="1" pageScale="1" pageWidth="827" pageHeight="1169" math="0" shadow="0">
      <root>
        <mxCell id="0" />
        <mxCell id="1" parent="0" />
        <mxCell id="irreTRPkPW1s-mjHIozF-48" value="" style="shape=ext;double=1;rounded=0;whiteSpace=wrap;html=1;" parent="1" vertex="1">
          <mxGeometry x="160" y="170" width="590" height="710" as="geometry" />
        </mxCell>
        <mxCell id="irreTRPkPW1s-mjHIozF-4" value="" style="rounded=1;whiteSpace=wrap;html=1;" parent="1" vertex="1">
          <mxGeometry x="200" y="292.5" width="520" height="417.5" as="geometry" />
        </mxCell>
        <mxCell id="irreTRPkPW1s-mjHIozF-1" value="" style="verticalLabelPosition=bottom;html=1;verticalAlign=top;align=center;strokeColor=none;fillColor=#00BEF2;shape=mxgraph.azure.virtual_machine;" parent="1" vertex="1">
          <mxGeometry x="224" y="260" width="80" height="60" as="geometry" />
        </mxCell>
        <mxCell id="irreTRPkPW1s-mjHIozF-5" value="&lt;b&gt;Docker-Compose&lt;/b&gt;" style="text;html=1;align=center;verticalAlign=middle;whiteSpace=wrap;rounded=0;" parent="1" vertex="1">
          <mxGeometry x="304" y="292.5" width="110" height="30" as="geometry" />
        </mxCell>
        <mxCell id="irreTRPkPW1s-mjHIozF-7" value="" style="group" parent="1" vertex="1" connectable="0">
          <mxGeometry x="630" y="349.7" width="68" height="82.80000000000001" as="geometry" />
        </mxCell>
        <mxCell id="irreTRPkPW1s-mjHIozF-2" value="" style="image;aspect=fixed;html=1;points=[];align=center;fontSize=12;image=img/lib/azure2/other/Grafana.svg;" parent="irreTRPkPW1s-mjHIozF-7" vertex="1">
          <mxGeometry y="30" width="68" height="52.8" as="geometry" />
        </mxCell>
        <mxCell id="irreTRPkPW1s-mjHIozF-6" value="Grafana" style="text;html=1;align=center;verticalAlign=middle;whiteSpace=wrap;rounded=0;" parent="irreTRPkPW1s-mjHIozF-7" vertex="1">
          <mxGeometry width="60" height="30" as="geometry" />
        </mxCell>
        <mxCell id="irreTRPkPW1s-mjHIozF-12" value="" style="group" parent="1" vertex="1" connectable="0">
          <mxGeometry x="500" y="349.7" width="64" height="90" as="geometry" />
        </mxCell>
        <mxCell id="irreTRPkPW1s-mjHIozF-10" value="" style="shape=image;verticalLabelPosition=bottom;verticalAlign=top;imageAspect=0;aspect=fixed;image=data:image/svg+xml,PHN2ZyB4bWxucz0iaHR0cDovL3d3dy53My5vcmcvMjAwMC9zdmciIHZpZXdCb3g9IjAgMCAzMiAzMiI+PGcgZmlsbD0iI2U2NTIyYyI+PHBhdGggZD0ibTE2IDMwYy0yLjUwNiAwLTQuNTM5LTEuNjc0LTQuNTM5LTMuNzM5aDkuMDc3Yy4wMDEgMi4wNjQtMi4wMzEgMy43MzktNC41MzggMy43Mzl6Ii8+PHBhdGggZD0ibTIzLjQ5NiAyNS4wMjNoLTE0Ljk5M3YtMi43MTloMTQuOTk0djIuNzE5eiIvPjxwYXRoIGQ9Im0yMy40NDMgMjAuOWgtMTQuODk3Yy0uMDUtLjA1Ny0uMS0uMTEzLS4xNDgtLjE3MWExMC44NjcgMTAuODY3IDAgMCAxIC0yLjI0OC0zLjgyNGMtLjAwNi0uMDMzIDEuODYxLjM4MSAzLjE4NS42NzkgMCAwIC42ODEuMTU4IDEuNjc3LjMzOWE2LjIyNSA2LjIyNSAwIDAgMSAtMS41MjQtNGMwLTMuMiAyLjQ1Mi01Ljk5MiAxLjU2OC04LjI1Ljg2MS4wNyAxLjc4MiAxLjgxNyAxLjg0NCA0LjU0OWE5Ljc2OSA5Ljc2OSAwIDAgMCAxLjMtNC45OTJjMC0xLjQ2Ny45NjYtMy4xNyAxLjkzMy0zLjIyOS0uODYyIDEuNDIuMjIzIDIuNjM4IDEuMTg4IDUuNjU4LjM2MiAxLjEzNC4zMTYgMy4wNDQuNTk1IDQuMjU0LjA5My0yLjUxNS41MjUtNi4xODQgMi4xMi03LjQ1LS43IDEuNi4xIDMuNTkxLjY1NyA0LjU1MWE4LjYyMyA4LjYyMyAwIDAgMSAxLjQzMiA0Ljk0IDYuMTcgNi4xNyAwIDAgMSAtMS40NzYgMy45ODNjMS4wNTMtLjIgMS43ODEtLjM3NiAxLjc4MS0uMzc2bDMuNDIxLS42NjdhOS43IDkuNyAwIDAgMSAtMi40MDggNC4wMDZ6Ii8+PC9nPjwvc3ZnPg==" parent="irreTRPkPW1s-mjHIozF-12" vertex="1">
          <mxGeometry x="4" y="30" width="60" height="60" as="geometry" />
        </mxCell>
        <mxCell id="irreTRPkPW1s-mjHIozF-11" value="Prometheus" style="text;html=1;align=center;verticalAlign=middle;whiteSpace=wrap;rounded=0;" parent="irreTRPkPW1s-mjHIozF-12" vertex="1">
          <mxGeometry width="60" height="30" as="geometry" />
        </mxCell>
        <mxCell id="irreTRPkPW1s-mjHIozF-16" value="" style="group" parent="1" vertex="1" connectable="0">
          <mxGeometry x="30" y="341.2" width="100" height="95" as="geometry" />
        </mxCell>
        <mxCell id="irreTRPkPW1s-mjHIozF-14" value="" style="shape=image;verticalLabelPosition=bottom;verticalAlign=top;imageAspect=0;aspect=fixed;image=data:image/jpeg,/9j/4AAQSkZJRgABAQAAAQABAAD/2wCEAAkGBxMSEBAQEBMVEBUVFw8QFRAVEBUQFRAQFhIWGBUVFRUYHCggGBolGxUVITEhJSkrLi4uFx8zODMsNygtLisBCgoKDg0OGxAQGy0iICUtLS8tLS0rLS0tLS0tLS0tLS0tLS0tLS0tLS0tLS0tLS0tLS0tLS0tLS0tLS0tLS0tLf/AABEIAOEA4QMBEQACEQEDEQH/xAAcAAEAAgMBAQEAAAAAAAAAAAAABAUBAwYHAgj/xABQEAABAgMBCgcLBg0EAwAAAAABAAIDBBEFBhIhMUFRYXGB0RMUIlJTkaEHFRYjMnKSk7GywTRCYnPh8DNDVGOCg5Sio7PC0uIkJTXTF8Px/8QAGwEBAAMBAQEBAAAAAAAAAAAAAAIDBAEFBgf/xAA5EQACAQIDBAcHAwMFAQAAAAAAAQIDEQQSUQUhMUETFDJScZGhIjNhgbHR4RU08EJTwQYjJENy8f/aAAwDAQACEQMRAD8A9xQBAEAQBAEAQBAEAQBAQLQtqWgfh48KDofFa0nUCalSUW+CIuUVxZQzPdIs5hoIxefoQYhHWWgHrU1Qm+RB1oLmQnd1WRyNjnSITfi9S6vI508TZC7qMgcZis1wSfdJXOgmOngWsldvZ8XyZqG3REJgYf1gCi6U1yJKrB8y+hRWuAc0hwOJwIIO0KssPtAEAQBAEAQBAEAQBAEAQBAEAQBAEAQBAEB8RorWNc97gxrQSXOIaGgYyScQQHnt0XdUgwyWSbOMOFRwrqshA6B5T+wZiVohh2+0Z5V1/See2vdjOzNeEmHtb0cI8CwDNycLh5xK0RpxjwRRKpKXFlPAlHvwsYTXKBgO3ErCG4mMsSMcYa3W7dVLHLm0WBE5zP3tyWFz5dYUTIWHaR8EsLkeLZUVvzCfNId2DCh25rk5uNLurBiRIDsZvHuhk6wKV2qLSfE6nbgdrYPdSmYRDZpommZXgCHFA2cl2qg1qmVCL4bi6NeS47z1OwLoJedh8JLvvqUvmHkvhnM5uMZcOI0wErLKDi7M0xmpLcWiiSCAIAgCAIAgCAIAgCAIAgCAIAgCA0zk0yFDfFiuDGMaXuccTWgVJXUruyON2V2eD3aXYxZ+IW1MOXaeRBrS+pifEpjdlpiGTKTup01DxMVSo5+BWWfYr4gDnchurlOGgZNZVtips6SQueo2+hwHxB0nBuidtKDYl4rc2LSfIy94GM00ZepSImp0y3SdiWZy58GbGYruUXMiaGYrljtz7bHactNeBcsxczEhNeKOAcNIBXDpVTthA4YRvTzSag6jjCHblXITsaUjiLCcYURh6xla4fOac32KMopqzJJtO6PfLj7o2T8s2M0XrwbyLDrW8iAZM7TjBzHOCsFSGR2N1OedXLxQJhAEAQBAEAQBAEAQBAEAQBAEAQHm3dotUtgwJRppwpdFfpZDpetOgucD+gtOHjvbM+IluSPO7nZARHGI8Va2gAyF2nV8QtaMjPQbkrNbHmQIgq1jTELedQgAHRU12KutNxjuLKMFKW89LApgGDQvPN5w/dIsdnBtmmANeHNY+gpftOInOQQBXMdAWzC1HfKzJiaatmR57erYYheodF6gMXqAy0kYjRcOkuBHrgOPPnUWiSZBuhkw6Hwg8pna2uEbMfWokid3JbTMK0Gwq8mYa6GRkv2NL2OPU8fpqmvG8b6F1GVp21PcFiNgQBAEAQBAEAQBAEAQBAEAQBAEB453aT/rJcfmf/Y9a8P2WZcRxRU3LDxB893satKMzOiuftYSs2IjvIc3g30wkNJBvgMtCBsqo1aeeFkSpzyTuz1GXm4b237Hte3HfBwI615zi07M9BSTV0cLd9bzIrWy0FweA4PiPBq2oBowHLjqdQ002Yek17TMmIqp+yjiaLWZDF6uHRRAKIDF6uA+obcI1j2ozpItIeJjeZE90qBMprhD/uUl9aPdKhV7DLKfbR+h155uCAIAgCAIAgCAIAgCAIAgCAIAgPHO7T8sl/qB/NeteH7LMmI7SKy5QeIPnu9jVoKCxjS1TWtNikmRaNZktI6l3McyjiensXMwyjiensTMdymOJ6exMwyjiensXMwymh8OhIzLpyx8Xq6D6htwjWPauAkWmPERvq4nulQJlDcL/wAlJfWt9hUavYZZT7aP0QvPNwQBAEAQBAEAQBAEAQBAa48ZrGue9wY1oLnPcQ1rQMZJOABOIvY4e1u6pKQ3FsFsSZI+c0CHDr5zsJ1htFfHDyfHcUOvFcN5THuwn8iH7Wf+lT6t8fT8kOsPT1/A/wDMLvyIfth/6U6stfT8jrD09fwcfdndMbQjQ4xhcBeM4O94Xha8ourW9bTHiorqdPIrFc553exHsq3OAh3nB3+Eurf3uMDBShzKZWTPCs9D/F/xQDwr/M/xf8UA8KvzP8X/ABQDwq/M/wAX/FAY8KvzP8X/ABQF7Z0zwsJkSl7fV5Na0oSMdNC4dNMccoqSIM13q6DMMYRrHtXAYtiY8VFaMPIeCf0TgXEjtymuF/5KS+tb7CoVewy2n20foheebggCAIAgCAIAgCAIAgPl7wAXOIAAJJJoABjJKA8Hu8uwfPRSxhLZZh5DMXCEfjXjOcgOIaardSp5F8TFUqZ38Cusy52JFaHuPBNOEEirnDOG5tatKiy8EmdK70QgM+CTOld6IQGPBJnSu9EIB4JN6V3ojelwY8Em9K70BvXLgeCTeld6I3pcDwSb0rvRG9Lgx4Jt6V3oDelzo8E29K70BvS4LqQlOChthg317XDSlakn4oDTHbyipIiyPGitb5RpoynYupXONpFfFnS4gN5IqNZwqWUg5H3O/gonmv8AdKiTKq5ea4KclooF9ePDqVpXAcqyYyr0VCc+Nlc0UI5qsV8T1vw5d0LfWH+1fJ/rr7nr+D2uqLUeHLuhb6w/2p+uvuev4HVFqPDl3Qt9Yf7U/XX3PX8Dqi1JMrdwwmkWE5mlrg/sICup7cpt+3Frw3/YhLCPkzpZGehxm38J4eNGMHMRjB1r16VanVjmg7ozSg4uzJCtIhAEAQBAEBwPdetwwZVsqw0fMXwdogNpf+kS1ukXyvoQvK+hRXlZW1PMbmLNEaLfOFWMo4jI53zW6sBOzSthkO3ivoiQbNHGDmC7Y5ccYOYJYXHGDmCWFzHGDmXLC5qfaDRjLR+ku5GczI1OtdmfsduXejY6RHz36Z9wU6NjpEYNtszHqTo2OkR8Ot1vNJ6t6dGznSI1Pt45GDa5d6IdIQY9oPcSa3tcgwduNSUUiDk2RCVI4Zh+U3WPauME6d/BRPNf7pVZaUVj/h4XnBeftP8AaVP/ACzVhffR8T0CypURYzIbiQHEgkYxRpOXUvz6jBTmos+im7K503glC6SJ+7uW/qMNWUdMx4JQukifu7k6jDVjpmQ525NwBMJ9/wDQcL0nUcXsVdTA7rxZKNbUppGciS0W+ZVjmmjmnERla4ZlnoV6mHqZo7np9yyUIzVmemWVaDZiE2KzBXAW5WuGNp++ZfZYbERr01OP/wAPLnBwlZkxXkAgCAIAgPz93Q7V4zaMw4GrYZ4uzzYZId1vLzqIW+lHLBGGrLNJl9c1JcFLMrgc/wAY7W7EOqimVkmOanVgUkcZrounDRMTLGeUcPNGE9S6k2cbSK2NapPkAN0nCdymoalbnoQosZzvKcTtwdSnZIi22a0OBDphcOmEAQGEAQArh0+oXlN1j2rjOk2e/BRPNf7pVZYUdjD/AFELzvgV5+0/2lT/AMs1YX30fE9Hub+VQdbvccvgsJ71H0FTss755oKr1qjcY3RlW9mrhToWbp5E8qNjH1V1Oqp7uZFxsc9dfZoLOHaOU2gf9JmIHWPYdCz4yjeOdcUWUZ77ES4e0LyOYRPJijBoiAVB2io6lbsbEZKvRvhL6/z/AAcxULxzaHoC+oPPCAIAgIFuz/F5WYj9HDiRAM7mtJA2mgUoq7SIydk2fnKzZYxY0KGcN85ocScJFauNc9Kr0Tzz1B+AHQonSujRA0XzjQZ1Ylcg3Yppu1C7AzkjP847lbGFuJVKehXFTIBAEBhcAQ6YXDphAEBhAEAK4dJEnCqb7IO0qLZJIxbMa9hEZXYNmX76VBk0RLmYF9HvsjGudtIvQO0nYvG25WVPByXOVl/l+iN2AhmrJ6bz0W5KDfTLTzGvd1i9/qXx2CjerfQ9us7RO3jYl6VfsmaPE0UWOxaZC6rp3Rw3RYYe1zXYQ4Fp1EUXoWUl4lXBnmoLoMWvzob/AN5jt4XgxbpVL80/obXaUfE9ahRA5rXDE4Bw1EVC+7jJSSaPIas7H2unAgCA5Huqxy2y44GAvdAZsMVpI6gVbQXtoqrP2GeTXFQr6bB5rIj9uBv9S2sxo7K1pxsJmHCTibn3BdhFyZGcsqOUmpl0Q1cdQyDUtKSXAzNt8TSpHDBXDoQBAbocq448GvcotklFm9sm3LU9ijmJZT64s3N2neuXYsjHFWZu070uxZDirM3ad6XZ2yHFWZu070uxZGOLMzdp3rmZiyHFm5u0pdnbITEdsNtXGgyDKdACidOcnJkxHXx1AZgosmkdTYcjwULlYHOo52jM3Z7SV8HtnHrFVssH7Mdy+Or+3wPfwWH6KF3xf8sej3IyHBwjEcKOiUI0MHk9dSepSwNHLDM+f0JVpXdi4ilTru7sRifFFRYkKJYG6HiWyjviVy4nB3UQLyaiZnXrxtGHtBXkY2OWq/iaqTvE7i5SPfycE5gWegS0dgC+p2dUz4aD+FvLcefXVqjLZbSoIAgOG7sR/wBuH10KvU/7FdQ7ZTX7J5jchMcHGiOpU8GQBpv2Y+pbkrmNuxYWnELqOcakkq+CsZ5O5AUyAQGCuHTLW1NAgJ8CXDcJwnPm1Ktu5YlY1TtoMh4Cau5ox7cyi3YklcqI1tRD5NGDVfHrO5RzE8po75Reeeobly7FkO+UXnnqG5LsWQ75ReeeobkuxZDvlF556huS4sh3xi889Q3JcWRg2jF557NyXO2RqY18R1BfRHbXHboVdWrClHNUaS+JKEJSdoq50dj2LeERItC7GG4ww5znK+Q2ptvpk6VDdHm+b+y9X8D2MLgcjz1OOmn5O1ucsQxnCI8UhNPrCPmjRnOxeXhMK6jzS4fU2VamXcuJ3LsA+C9mTyq5lSuaFje8sFFyx0USwNkHKtFDmiuZyV3EOkWE7Owt9F1f6l5+0ks0WX0HuZc3AxKy8RvNiHqLW/Gq9fYsr0GtH9jPil7fyOmXsGUIAgON7rUKtlxXc18u7riBv9Suodspr9g8fufd406WuHaD8FvjxMM+BdTw5I1/BXRKZEFTIBAYK4dJ8rBoKnGewKDZNIg2taV74tnlZXc3QNKrbLIxuVEpKPiuvWCpxlxxDSSseKxdLDQz1Xb6vwNFKjOq8sEdHJWBDZhieNOmoaNgOHb1L5XEf6irzdqSUV5v7eh61PZ1Ndve/JE8yMLooXqmblge18a/+x+n2NHU6HdRjiELoofqmblz9Wxv9xjqlDuod74PRQ/Vt3J+rY3+4x1Sh3UY73weih+rbuT9Wxn9xneqUe6h3ug9Ez0AufquM/uMdUo91GO90HomegEe1MY/+x+Y6rR7q8iZJyhcbyEyv0WN+AxLK3Vry3tyfzZalGC3WR1FkXKGofMYBj4IGpPnOHsHWvQobOfGp5FM6/KJ1bWhoAAAAwAAUAGYBenugjPxNbjVZpNyZNbjFFGx0USwFEsDDYoBIGE+xRjXjGTiuJ1wbVzmLtPxB+t/oWHGO9my6kTu56eRHH0oZ7DuXrbDf+3NfFGfF8UdcvdMYQBAUd3ErwtnTjAKngojwM7mC/Ha0KdN2miFRXgzwGyolI0M5ze+kKfFejHiefLgdNNNqw9auXEofArVYQCA2SzKuGjCoyZKK3ki0Zng4ZdlxN84/euxVN2LUrnOSks6LEDBjOEuOGgyuKx4vEww1J1Z8F6vQ00aTqzUInb2ZZ9L2DBbUnEMrjlJK/PsRiKuMrZpb2+C0+CPoadOFGFlwO3s25KG0AxyYjuaCWtHVhK9Chs2CV6m9lU67/pLVtiy4/Ew9rQfatiw1Huoq6SWpnvPL9DD9W3cu9Wpd1eQ6SWpnvRA6GF6tu5OrUu6vIdJLUd6YHQwvVt3J1al3V5DpJame9MDoYXq27k6tS7q8jnSS1Miy4HQwvVN3LvV6XdXkOklqSWMDRQANGYCgVlkkR4mC9QlUXIkkayqHd8SQouWOiiWBqiRmjLsGFUVMRSp8X5EowkyNFmScAwDtXnVsbKe6O5epfGklxErl2Jg1vbFQoLs3YYI0RD13u5SxXI5S5ln3PmeKjOzva3qbX+pe1sNf7Un8f8ABmxb9pHWL2zIEAQHy9gILSKgggjODjQH5lnZUwI0SCccKI+HU5Sx5Feyq9JO6uec1bcdUxwc0EYnAHYQrzOyscKVGxWFZhdBLkR5R1BQkTiVl0UTlMbmBd1mnwVMi6JPuXl6MdEONxvR5o+2vUF8f/qSu3UhRXBK/wA3+F6ntbNp2i567j024iRAY+ORhJvG6GjHTWfdWPZlFZXUZpxE9+U6dxXqSdjOt5rqqbskE36nQm/U4fL3gYzTWVCdRQV5St8ySjfgjS6daMpOr7VkntGlHg2/D8lioSZqdaGYdqzy2o+UfUmsP8T4M8cw7VW9pT7qJdAtTHHjmHbvXP1GpovX7joIgzrsw6jvUXtCrovX7negifBm3Z6bAoSxtZ87fI6qUTW6KTjJO1UTqzn2m2TUUuCPlVnQgJUsMGtejhY2hfUoqPecldVGvpgjmNa3b5R9o6lTiZXnYnTW4664qXvJRp57nv7b0djQvp9k08mGXxuzBiZXqF8vSKAgCAIDxDut2TwM/wAMByJhofXJwjAGvHVeH9IrbQleNtDHWjaV9SssGZvod4cbPdOL4jqWqL3GWa3m+bgGt8MOcKyLKmiIpkSbI+SdfwCrlxLI8Clt/wDCjzW+0qqXEtjwL25z5O3W/wB4r4Pb/wC8fgj6DZ/uF4s9WuRH+jhfrf5rls2ev+PH5/Vka3bZaPxq+a3kUYoo2BpjzDW4zU5hjWWviqVHdJ79FxLIU5S4EGLOuOLkjRj615FbaFWe6Psr18zTGhFcd5GJz4Vhbbd2XWCAIAgCAIAgCAIAMy6k27I4TXvDGknAGgknQBhXsJKMbaGbizz95dFi4MLojsA+k52Adq85J1J2XFsv3RR6vKQBDhshtxMa1g1AUX3VOChBRXJWPIk7u5uUzgQBAEBz13NzonpR0IUEVp4SE44KRADySczgSNoORWU55JXK6kM0bHgcNz4MU1BY9hLHMcKEEGjmuC3p80YWuTOhlbThvGMNPNcadRyqxSRU4tEq/Gcda6cF+M460OnPW8fGjzW+0qEuJOPAvLnPk7db/eK+D2/+8fgvofQbP9wvF/U9ZuR+Rwf1v81637OX/Gj8/qyFf3jLOIQKkmgzq6q4wvKTsiMU3uRWTM+TgZgGfKdy+fxW0pT9mluWvP8AH18DZToJb5EJeWaRRdyvQXFEyvQXFEyvQXFEyvQXFEyvQ5dCiZXoLoUTK9BdChSz0F0FyzOhASJaGa1OxbcNRaeaRVUkrWRWXVTt7DEIY349DAficHWr8RO0bakILeQ7iZDhJjhCOTCF9recDR7TsC0bHw+et0j4R+pDEztG2p6EvqjzggCAIAgCA5C7S4SFPeNYeAj0A4QCrYgGIRG5c18MI0gUVtOq4buRVUpKW/meV2pcPPwCQ6XdFA+fB8eHag3lDa0LVGrB8zM6c1yKs2NM/k0x+zRf7VPNHVELPR+RjvNM/k0f9mi/2pmjqhZ6PyM955n8mj/s8X+1M0dULPR+R0lhwHsgtbEY6G6rzevaWOALjTARVfDbf/ePwX0Pe2f7lfM9UuVeGyUEn87t8a9bsFUjTwkZS+P1ZCqm6rS/m41T0wXONcQxD75V8/j8TOtVafBcF/OZto01GJHWEuMtxjYpQ7SOPgTy6mE4NOYL2TKauNw+kZ6bd65mWosONw+ez0270zLUWHG2c9npt3pmWosONs57PTG9My1FjPGmc9vpjemZaiw40znt9MJmWosBMs57fSCXQsZ4wznt9ILtwOMs57fSCXBCnrahQweUHuyNaQcOkjAFXOrGJ1RbOQjxXx4tSL57yAGjsaAsftVZ2W9st3RR6TYFmCXgNh43HlPOd5x7BgGxfY4LDLD0lDnz8Ty6tTPK5ZLWVhAEAQBAEAQBAEAQBAec3bfLHebD9i+T2z+5+SPSw3uy5udd/pYQzcJT1jlXSk3TSfI7Je0z7j+UfvkXm4j3jL4dlHwqSZluMbFKHaRx8CVPCsKKBhJZEAAwkm9K9iXBmVcTheIReiierduXn5JaF90OIReiierduTJLQXQ4hF6KJ6t25MktBdDiEXoonq3bkyS0F0OIReiierduTJLQXR8vk4jQS6G9oGMljgBtIXHCS5C6PiDBc8hrGl5OJrWlxOwLsISm7RTb+AbS3sk96Y/QRfUv3K7qmI7kvJkOkhqvMd6Y/QRfUv3J1TEdyXkx0kNV5kuUubmYhFIZYOc/kAbMfYr6WzMTUfZt47vyRlXprmdlYFzrJblk8JExX9KBucNGTX/8X0OC2dDDb+MtfsYqtdz3ci7XoFAQBAEAQBAEAQBAYJQGt8cBAR4k8AgOBusi3004/RZ7F8ntn9z8kelhfdl5c58mh/rP5jlTR7CJS4myY8o7PYvOxHvWXw7KNapJmWnCNi7F+0jj4E7hRnHWvX6an3l5mbJLQcK3OOtOmp95eYyS0HCtzjrTpqfeXmMktBwrc4606an3l5jJLQcK3OOtOmp95eYyS0MiIM4611VYN2TQyvQhW98mi6m+8Eq9hiPEoLkX3s3DOiJ7hUtkful4P6EcT7tnorJgFfXHmm0FAZQBAEAQBAEAQBAEAJQGiLMUQECPOICvjzqAgRp5Ac5asS+iE6Avk9sfufkj0sN7s6i5z5ND/WfzHKij2ETlxNkx5R2exediPesvh2Ua1STCAIAgCAkSUqYjr0YMpOYLXgsHPFVMkd2r0RVVqqnG7LfvPDpSrq56jdRfSfoOGy2vK+t/xb0MHXKl+RWR5Qw4jQcIOEHON68Kvgp4TERjLenwev5RshVVSDaI1vfJoupvvBX1OwyC4nLWLEvYzT53ulT2R+6Xg/oRxPu2ddAnV9ceaWECcQE+FM1QEgFAZQBAEAQBAEAQEWYioCsmIyArJiOgK2YmEBWzEwgIDn1NV8ttqDVdS1R6GFfsWOtuXjh0C9ysLgRoJvge09SyUHeJbLiTZqGa32T2LJiqTUs64FtOStYjrGWhAEAQBAW9z7xWIMvJOsCu/tX0n+npxzVI89z+Sv8AS/qYMcnaLLpfTnnlfawBvM4qez79S8bayjLJfirv/Bqw11c5q6aYDYBbleQANAIJPYBtXi1pWia4rectKOo6q07Fg5YjNon9ivFO0LFzLzC+qPOLOXjoCzl4yAspeMgJgKAygCAIAgCA+X4kBXzCArJhAVcwgKuYQFZMICC2Jeuw4j2LztpYTrFL2e0t6/yi+hUyS38GWlnTzoLw9uHIW5HNzfavk4ycGei1c7GQtBkYVYcOVhwOGz4rZGaktxW1Y2vgA6NSpnhqcvh4E1UaNLpU5DXsWaWDkuDLFVXM+DAdm7VU8NVXIlniY4F2YqPQVNDueOpkS7s1NqmsLVfI50kTfAguaQ4OoRm+1aqGHqUpqalZrT8/YrnOMlZosxaDqYhrwr3f1Ora1lcxdXiU1qW0yHW+N+/mA4dvNXmVsReTlJ3ZojCysjj56cdFeXvOoZGjMFhblUkWbkjTBOFfXbOwfV6W/tPj9vkebXq55buBZS69ApLSXQFpLICzl0BZQsSA+0AQBAEAQAoCJMQkBWzEFAVkxAQFZMQEBWzEugK2PLIDTDcW4DhHaF5WO2ZGv7cN0vR+P3NFHEOG58CTCiYi00Iyg0I3L5qtQq0JWmrfzU3xnGa3FrK2/GZgJEQfSGHrHxquRrSXE7lRZwbpmHy2ObqIcPgrVXXMjlZLZbsA/PI1sd8Ap9LDU5lZ9G2oHSD0Xbk6SOoszVEuggDE5ztTD8aLjrQGVkKPdOPxcPa51Owb1B4hckdylZNWxGiYC69HNbyR14+1VSqyZJRRXEq7D4KtX7C3avh/PAhOrGHFhrC7UvpcFs6nh/ae+Wv2MNWu57uRNl5deiUFnLy6AspeAgLOXgoCzl4SAmAIDKAIAgCAIAgMEIDRFl6oCBHlEBXx5JAQI0igIMaQ0ICFFs/QgIj7OzKMoqStJXR1NrejWZZw0rzquycNPell8Psy+OJmviY4J2ZefU2HL+ia+at9y5Ytc0Y4M5lmlsbErhZ/MsWKpjgzmUf0jFd31Q6zT1M8EcysjsXEPi0vn+DjxUPifQgOzLXT2Gv65+S/n0KpYvRGxsm4r0aOzcNS3qN38d/4KZV5y5kiFZ+hbikmQZDQgJ8GRQE+BJICwgSaAnwZaiAkgUQGUAQBAEAQBAEAQBAYIQGt8uCgI0SRBQEWJZ2hARYlm6EBHfZmhAaHWXoQGs2VoQHx3q0IB3q0ID6FlaEBsbZehAb2WXoQEiHZmhASodm6EBKhyCAkslgEBtDaIDKAIAgCAIAgCAIAgCAIAgCAIAgMUQGDDGZAfJgtzID54u3MgMcVagHFWoDPFm5kB9CA3MgMiGMyA+gEBlAEAQBAEAQBAEAQBAEAQBAEAQBAEAQBAEAQBAEAQBAEAQBAEAQBAEAQBAEAQBAEAQH/2Q==" parent="irreTRPkPW1s-mjHIozF-16" vertex="1">
          <mxGeometry x="16" y="40.3" width="60" height="60" as="geometry" />
        </mxCell>
        <mxCell id="irreTRPkPW1s-mjHIozF-15" value="Python Script (Real-Time Data Simulator)" style="text;html=1;align=center;verticalAlign=middle;whiteSpace=wrap;rounded=0;" parent="irreTRPkPW1s-mjHIozF-16" vertex="1">
          <mxGeometry width="100" height="30" as="geometry" />
        </mxCell>
        <mxCell id="irreTRPkPW1s-mjHIozF-17" value="" style="group" parent="1" vertex="1" connectable="0">
          <mxGeometry x="354" y="349.7" width="100" height="95" as="geometry" />
        </mxCell>
        <mxCell id="irreTRPkPW1s-mjHIozF-18" value="" style="shape=image;verticalLabelPosition=bottom;verticalAlign=top;imageAspect=0;aspect=fixed;image=data:image/jpeg,/9j/4AAQSkZJRgABAQAAAQABAAD/2wCEAAkGBxMSEBAQEBMVEBUVFw8QFRAVEBUQFRAQFhIWGBUVFRUYHCggGBolGxUVITEhJSkrLi4uFx8zODMsNygtLisBCgoKDg0OGxAQGy0iICUtLS8tLS0rLS0tLS0tLS0tLS0tLS0tLS0tLS0tLS0tLS0tLS0tLS0tLS0tLS0tLS0tLf/AABEIAOEA4QMBEQACEQEDEQH/xAAcAAEAAgMBAQEAAAAAAAAAAAAABAUBAwYHAgj/xABQEAABAgMBCgcLBg0EAwAAAAABAAIDBBEFBhIhMUFRYXGB0RMUIlJTkaEHFRYjMnKSk7GywTRCYnPh8DNDVGOCg5Sio7PC0uIkJTXTF8Px/8QAGwEBAAMBAQEBAAAAAAAAAAAAAAIDBAEFBgf/xAA5EQACAQIDBAcHAwMFAQAAAAAAAQIDEQQSUQUhMUETFDJScZGhIjNhgbHR4RU08EJTwQYjJENy8f/aAAwDAQACEQMRAD8A9xQBAEAQBAEAQBAEAQBAQLQtqWgfh48KDofFa0nUCalSUW+CIuUVxZQzPdIs5hoIxefoQYhHWWgHrU1Qm+RB1oLmQnd1WRyNjnSITfi9S6vI508TZC7qMgcZis1wSfdJXOgmOngWsldvZ8XyZqG3REJgYf1gCi6U1yJKrB8y+hRWuAc0hwOJwIIO0KssPtAEAQBAEAQBAEAQBAEAQBAEAQBAEAQBAEB8RorWNc97gxrQSXOIaGgYyScQQHnt0XdUgwyWSbOMOFRwrqshA6B5T+wZiVohh2+0Z5V1/See2vdjOzNeEmHtb0cI8CwDNycLh5xK0RpxjwRRKpKXFlPAlHvwsYTXKBgO3ErCG4mMsSMcYa3W7dVLHLm0WBE5zP3tyWFz5dYUTIWHaR8EsLkeLZUVvzCfNId2DCh25rk5uNLurBiRIDsZvHuhk6wKV2qLSfE6nbgdrYPdSmYRDZpommZXgCHFA2cl2qg1qmVCL4bi6NeS47z1OwLoJedh8JLvvqUvmHkvhnM5uMZcOI0wErLKDi7M0xmpLcWiiSCAIAgCAIAgCAIAgCAIAgCAIAgCA0zk0yFDfFiuDGMaXuccTWgVJXUruyON2V2eD3aXYxZ+IW1MOXaeRBrS+pifEpjdlpiGTKTup01DxMVSo5+BWWfYr4gDnchurlOGgZNZVtips6SQueo2+hwHxB0nBuidtKDYl4rc2LSfIy94GM00ZepSImp0y3SdiWZy58GbGYruUXMiaGYrljtz7bHactNeBcsxczEhNeKOAcNIBXDpVTthA4YRvTzSag6jjCHblXITsaUjiLCcYURh6xla4fOac32KMopqzJJtO6PfLj7o2T8s2M0XrwbyLDrW8iAZM7TjBzHOCsFSGR2N1OedXLxQJhAEAQBAEAQBAEAQBAEAQBAEAQHm3dotUtgwJRppwpdFfpZDpetOgucD+gtOHjvbM+IluSPO7nZARHGI8Va2gAyF2nV8QtaMjPQbkrNbHmQIgq1jTELedQgAHRU12KutNxjuLKMFKW89LApgGDQvPN5w/dIsdnBtmmANeHNY+gpftOInOQQBXMdAWzC1HfKzJiaatmR57erYYheodF6gMXqAy0kYjRcOkuBHrgOPPnUWiSZBuhkw6Hwg8pna2uEbMfWokid3JbTMK0Gwq8mYa6GRkv2NL2OPU8fpqmvG8b6F1GVp21PcFiNgQBAEAQBAEAQBAEAQBAEAQBAEB453aT/rJcfmf/Y9a8P2WZcRxRU3LDxB893satKMzOiuftYSs2IjvIc3g30wkNJBvgMtCBsqo1aeeFkSpzyTuz1GXm4b237Hte3HfBwI615zi07M9BSTV0cLd9bzIrWy0FweA4PiPBq2oBowHLjqdQ002Yek17TMmIqp+yjiaLWZDF6uHRRAKIDF6uA+obcI1j2ozpItIeJjeZE90qBMprhD/uUl9aPdKhV7DLKfbR+h155uCAIAgCAIAgCAIAgCAIAgCAIAgPHO7T8sl/qB/NeteH7LMmI7SKy5QeIPnu9jVoKCxjS1TWtNikmRaNZktI6l3McyjiensXMwyjiensTMdymOJ6exMwyjiensXMwymh8OhIzLpyx8Xq6D6htwjWPauAkWmPERvq4nulQJlDcL/wAlJfWt9hUavYZZT7aP0QvPNwQBAEAQBAEAQBAEAQBAa48ZrGue9wY1oLnPcQ1rQMZJOABOIvY4e1u6pKQ3FsFsSZI+c0CHDr5zsJ1htFfHDyfHcUOvFcN5THuwn8iH7Wf+lT6t8fT8kOsPT1/A/wDMLvyIfth/6U6stfT8jrD09fwcfdndMbQjQ4xhcBeM4O94Xha8ourW9bTHiorqdPIrFc553exHsq3OAh3nB3+Eurf3uMDBShzKZWTPCs9D/F/xQDwr/M/xf8UA8KvzP8X/ABQDwq/M/wAX/FAY8KvzP8X/ABQF7Z0zwsJkSl7fV5Na0oSMdNC4dNMccoqSIM13q6DMMYRrHtXAYtiY8VFaMPIeCf0TgXEjtymuF/5KS+tb7CoVewy2n20foheebggCAIAgCAIAgCAIAgPl7wAXOIAAJJJoABjJKA8Hu8uwfPRSxhLZZh5DMXCEfjXjOcgOIaardSp5F8TFUqZ38Cusy52JFaHuPBNOEEirnDOG5tatKiy8EmdK70QgM+CTOld6IQGPBJnSu9EIB4JN6V3ojelwY8Em9K70BvXLgeCTeld6I3pcDwSb0rvRG9Lgx4Jt6V3oDelzo8E29K70BvS4LqQlOChthg317XDSlakn4oDTHbyipIiyPGitb5RpoynYupXONpFfFnS4gN5IqNZwqWUg5H3O/gonmv8AdKiTKq5ea4KclooF9ePDqVpXAcqyYyr0VCc+Nlc0UI5qsV8T1vw5d0LfWH+1fJ/rr7nr+D2uqLUeHLuhb6w/2p+uvuev4HVFqPDl3Qt9Yf7U/XX3PX8Dqi1JMrdwwmkWE5mlrg/sICup7cpt+3Frw3/YhLCPkzpZGehxm38J4eNGMHMRjB1r16VanVjmg7ozSg4uzJCtIhAEAQBAEBwPdetwwZVsqw0fMXwdogNpf+kS1ukXyvoQvK+hRXlZW1PMbmLNEaLfOFWMo4jI53zW6sBOzSthkO3ivoiQbNHGDmC7Y5ccYOYJYXHGDmCWFzHGDmXLC5qfaDRjLR+ku5GczI1OtdmfsduXejY6RHz36Z9wU6NjpEYNtszHqTo2OkR8Ot1vNJ6t6dGznSI1Pt45GDa5d6IdIQY9oPcSa3tcgwduNSUUiDk2RCVI4Zh+U3WPauME6d/BRPNf7pVZaUVj/h4XnBeftP8AaVP/ACzVhffR8T0CypURYzIbiQHEgkYxRpOXUvz6jBTmos+im7K503glC6SJ+7uW/qMNWUdMx4JQukifu7k6jDVjpmQ525NwBMJ9/wDQcL0nUcXsVdTA7rxZKNbUppGciS0W+ZVjmmjmnERla4ZlnoV6mHqZo7np9yyUIzVmemWVaDZiE2KzBXAW5WuGNp++ZfZYbERr01OP/wAPLnBwlZkxXkAgCAIAgPz93Q7V4zaMw4GrYZ4uzzYZId1vLzqIW+lHLBGGrLNJl9c1JcFLMrgc/wAY7W7EOqimVkmOanVgUkcZrounDRMTLGeUcPNGE9S6k2cbSK2NapPkAN0nCdymoalbnoQosZzvKcTtwdSnZIi22a0OBDphcOmEAQGEAQArh0+oXlN1j2rjOk2e/BRPNf7pVZYUdjD/AFELzvgV5+0/2lT/AMs1YX30fE9Hub+VQdbvccvgsJ71H0FTss755oKr1qjcY3RlW9mrhToWbp5E8qNjH1V1Oqp7uZFxsc9dfZoLOHaOU2gf9JmIHWPYdCz4yjeOdcUWUZ77ES4e0LyOYRPJijBoiAVB2io6lbsbEZKvRvhL6/z/AAcxULxzaHoC+oPPCAIAgIFuz/F5WYj9HDiRAM7mtJA2mgUoq7SIydk2fnKzZYxY0KGcN85ocScJFauNc9Kr0Tzz1B+AHQonSujRA0XzjQZ1Ylcg3Yppu1C7AzkjP847lbGFuJVKehXFTIBAEBhcAQ6YXDphAEBhAEAK4dJEnCqb7IO0qLZJIxbMa9hEZXYNmX76VBk0RLmYF9HvsjGudtIvQO0nYvG25WVPByXOVl/l+iN2AhmrJ6bz0W5KDfTLTzGvd1i9/qXx2CjerfQ9us7RO3jYl6VfsmaPE0UWOxaZC6rp3Rw3RYYe1zXYQ4Fp1EUXoWUl4lXBnmoLoMWvzob/AN5jt4XgxbpVL80/obXaUfE9ahRA5rXDE4Bw1EVC+7jJSSaPIas7H2unAgCA5Huqxy2y44GAvdAZsMVpI6gVbQXtoqrP2GeTXFQr6bB5rIj9uBv9S2sxo7K1pxsJmHCTibn3BdhFyZGcsqOUmpl0Q1cdQyDUtKSXAzNt8TSpHDBXDoQBAbocq448GvcotklFm9sm3LU9ijmJZT64s3N2neuXYsjHFWZu070uxZDirM3ad6XZ2yHFWZu070uxZGOLMzdp3rmZiyHFm5u0pdnbITEdsNtXGgyDKdACidOcnJkxHXx1AZgosmkdTYcjwULlYHOo52jM3Z7SV8HtnHrFVssH7Mdy+Or+3wPfwWH6KF3xf8sej3IyHBwjEcKOiUI0MHk9dSepSwNHLDM+f0JVpXdi4ilTru7sRifFFRYkKJYG6HiWyjviVy4nB3UQLyaiZnXrxtGHtBXkY2OWq/iaqTvE7i5SPfycE5gWegS0dgC+p2dUz4aD+FvLcefXVqjLZbSoIAgOG7sR/wBuH10KvU/7FdQ7ZTX7J5jchMcHGiOpU8GQBpv2Y+pbkrmNuxYWnELqOcakkq+CsZ5O5AUyAQGCuHTLW1NAgJ8CXDcJwnPm1Ktu5YlY1TtoMh4Cau5ox7cyi3YklcqI1tRD5NGDVfHrO5RzE8po75Reeeobly7FkO+UXnnqG5LsWQ75ReeeobkuxZDvlF556huS4sh3xi889Q3JcWRg2jF557NyXO2RqY18R1BfRHbXHboVdWrClHNUaS+JKEJSdoq50dj2LeERItC7GG4ww5znK+Q2ptvpk6VDdHm+b+y9X8D2MLgcjz1OOmn5O1ucsQxnCI8UhNPrCPmjRnOxeXhMK6jzS4fU2VamXcuJ3LsA+C9mTyq5lSuaFje8sFFyx0USwNkHKtFDmiuZyV3EOkWE7Owt9F1f6l5+0ks0WX0HuZc3AxKy8RvNiHqLW/Gq9fYsr0GtH9jPil7fyOmXsGUIAgON7rUKtlxXc18u7riBv9Suodspr9g8fufd406WuHaD8FvjxMM+BdTw5I1/BXRKZEFTIBAYK4dJ8rBoKnGewKDZNIg2taV74tnlZXc3QNKrbLIxuVEpKPiuvWCpxlxxDSSseKxdLDQz1Xb6vwNFKjOq8sEdHJWBDZhieNOmoaNgOHb1L5XEf6irzdqSUV5v7eh61PZ1Ndve/JE8yMLooXqmblge18a/+x+n2NHU6HdRjiELoofqmblz9Wxv9xjqlDuod74PRQ/Vt3J+rY3+4x1Sh3UY73weih+rbuT9Wxn9xneqUe6h3ug9Ez0AufquM/uMdUo91GO90HomegEe1MY/+x+Y6rR7q8iZJyhcbyEyv0WN+AxLK3Vry3tyfzZalGC3WR1FkXKGofMYBj4IGpPnOHsHWvQobOfGp5FM6/KJ1bWhoAAAAwAAUAGYBenugjPxNbjVZpNyZNbjFFGx0USwFEsDDYoBIGE+xRjXjGTiuJ1wbVzmLtPxB+t/oWHGO9my6kTu56eRHH0oZ7DuXrbDf+3NfFGfF8UdcvdMYQBAUd3ErwtnTjAKngojwM7mC/Ha0KdN2miFRXgzwGyolI0M5ze+kKfFejHiefLgdNNNqw9auXEofArVYQCA2SzKuGjCoyZKK3ki0Zng4ZdlxN84/euxVN2LUrnOSks6LEDBjOEuOGgyuKx4vEww1J1Z8F6vQ00aTqzUInb2ZZ9L2DBbUnEMrjlJK/PsRiKuMrZpb2+C0+CPoadOFGFlwO3s25KG0AxyYjuaCWtHVhK9Chs2CV6m9lU67/pLVtiy4/Ew9rQfatiw1Huoq6SWpnvPL9DD9W3cu9Wpd1eQ6SWpnvRA6GF6tu5OrUu6vIdJLUd6YHQwvVt3J1al3V5DpJame9MDoYXq27k6tS7q8jnSS1Miy4HQwvVN3LvV6XdXkOklqSWMDRQANGYCgVlkkR4mC9QlUXIkkayqHd8SQouWOiiWBqiRmjLsGFUVMRSp8X5EowkyNFmScAwDtXnVsbKe6O5epfGklxErl2Jg1vbFQoLs3YYI0RD13u5SxXI5S5ln3PmeKjOzva3qbX+pe1sNf7Un8f8ABmxb9pHWL2zIEAQHy9gILSKgggjODjQH5lnZUwI0SCccKI+HU5Sx5Feyq9JO6uec1bcdUxwc0EYnAHYQrzOyscKVGxWFZhdBLkR5R1BQkTiVl0UTlMbmBd1mnwVMi6JPuXl6MdEONxvR5o+2vUF8f/qSu3UhRXBK/wA3+F6ntbNp2i567j024iRAY+ORhJvG6GjHTWfdWPZlFZXUZpxE9+U6dxXqSdjOt5rqqbskE36nQm/U4fL3gYzTWVCdRQV5St8ySjfgjS6daMpOr7VkntGlHg2/D8lioSZqdaGYdqzy2o+UfUmsP8T4M8cw7VW9pT7qJdAtTHHjmHbvXP1GpovX7joIgzrsw6jvUXtCrovX7negifBm3Z6bAoSxtZ87fI6qUTW6KTjJO1UTqzn2m2TUUuCPlVnQgJUsMGtejhY2hfUoqPecldVGvpgjmNa3b5R9o6lTiZXnYnTW4664qXvJRp57nv7b0djQvp9k08mGXxuzBiZXqF8vSKAgCAIDxDut2TwM/wAMByJhofXJwjAGvHVeH9IrbQleNtDHWjaV9SssGZvod4cbPdOL4jqWqL3GWa3m+bgGt8MOcKyLKmiIpkSbI+SdfwCrlxLI8Clt/wDCjzW+0qqXEtjwL25z5O3W/wB4r4Pb/wC8fgj6DZ/uF4s9WuRH+jhfrf5rls2ev+PH5/Vka3bZaPxq+a3kUYoo2BpjzDW4zU5hjWWviqVHdJ79FxLIU5S4EGLOuOLkjRj615FbaFWe6Psr18zTGhFcd5GJz4Vhbbd2XWCAIAgCAIAgCAIAMy6k27I4TXvDGknAGgknQBhXsJKMbaGbizz95dFi4MLojsA+k52Adq85J1J2XFsv3RR6vKQBDhshtxMa1g1AUX3VOChBRXJWPIk7u5uUzgQBAEBz13NzonpR0IUEVp4SE44KRADySczgSNoORWU55JXK6kM0bHgcNz4MU1BY9hLHMcKEEGjmuC3p80YWuTOhlbThvGMNPNcadRyqxSRU4tEq/Gcda6cF+M460OnPW8fGjzW+0qEuJOPAvLnPk7db/eK+D2/+8fgvofQbP9wvF/U9ZuR+Rwf1v81637OX/Gj8/qyFf3jLOIQKkmgzq6q4wvKTsiMU3uRWTM+TgZgGfKdy+fxW0pT9mluWvP8AH18DZToJb5EJeWaRRdyvQXFEyvQXFEyvQXFEyvQXFEyvQ5dCiZXoLoUTK9BdChSz0F0FyzOhASJaGa1OxbcNRaeaRVUkrWRWXVTt7DEIY349DAficHWr8RO0bakILeQ7iZDhJjhCOTCF9recDR7TsC0bHw+et0j4R+pDEztG2p6EvqjzggCAIAgCA5C7S4SFPeNYeAj0A4QCrYgGIRG5c18MI0gUVtOq4buRVUpKW/meV2pcPPwCQ6XdFA+fB8eHag3lDa0LVGrB8zM6c1yKs2NM/k0x+zRf7VPNHVELPR+RjvNM/k0f9mi/2pmjqhZ6PyM955n8mj/s8X+1M0dULPR+R0lhwHsgtbEY6G6rzevaWOALjTARVfDbf/ePwX0Pe2f7lfM9UuVeGyUEn87t8a9bsFUjTwkZS+P1ZCqm6rS/m41T0wXONcQxD75V8/j8TOtVafBcF/OZto01GJHWEuMtxjYpQ7SOPgTy6mE4NOYL2TKauNw+kZ6bd65mWosONw+ez0270zLUWHG2c9npt3pmWosONs57PTG9My1FjPGmc9vpjemZaiw40znt9MJmWosBMs57fSCXQsZ4wznt9ILtwOMs57fSCXBCnrahQweUHuyNaQcOkjAFXOrGJ1RbOQjxXx4tSL57yAGjsaAsftVZ2W9st3RR6TYFmCXgNh43HlPOd5x7BgGxfY4LDLD0lDnz8Ty6tTPK5ZLWVhAEAQBAEAQBAEAQBAec3bfLHebD9i+T2z+5+SPSw3uy5udd/pYQzcJT1jlXSk3TSfI7Je0z7j+UfvkXm4j3jL4dlHwqSZluMbFKHaRx8CVPCsKKBhJZEAAwkm9K9iXBmVcTheIReiierduXn5JaF90OIReiierduTJLQXQ4hF6KJ6t25MktBdDiEXoonq3bkyS0F0OIReiierduTJLQXR8vk4jQS6G9oGMljgBtIXHCS5C6PiDBc8hrGl5OJrWlxOwLsISm7RTb+AbS3sk96Y/QRfUv3K7qmI7kvJkOkhqvMd6Y/QRfUv3J1TEdyXkx0kNV5kuUubmYhFIZYOc/kAbMfYr6WzMTUfZt47vyRlXprmdlYFzrJblk8JExX9KBucNGTX/8X0OC2dDDb+MtfsYqtdz3ci7XoFAQBAEAQBAEAQBAYJQGt8cBAR4k8AgOBusi3004/RZ7F8ntn9z8kelhfdl5c58mh/rP5jlTR7CJS4myY8o7PYvOxHvWXw7KNapJmWnCNi7F+0jj4E7hRnHWvX6an3l5mbJLQcK3OOtOmp95eYyS0HCtzjrTpqfeXmMktBwrc4606an3l5jJLQcK3OOtOmp95eYyS0MiIM4611VYN2TQyvQhW98mi6m+8Eq9hiPEoLkX3s3DOiJ7hUtkful4P6EcT7tnorJgFfXHmm0FAZQBAEAQBAEAQBAEAJQGiLMUQECPOICvjzqAgRp5Ac5asS+iE6Avk9sfufkj0sN7s6i5z5ND/WfzHKij2ETlxNkx5R2exediPesvh2Ua1STCAIAgCAkSUqYjr0YMpOYLXgsHPFVMkd2r0RVVqqnG7LfvPDpSrq56jdRfSfoOGy2vK+t/xb0MHXKl+RWR5Qw4jQcIOEHON68Kvgp4TERjLenwev5RshVVSDaI1vfJoupvvBX1OwyC4nLWLEvYzT53ulT2R+6Xg/oRxPu2ddAnV9ceaWECcQE+FM1QEgFAZQBAEAQBAEAQEWYioCsmIyArJiOgK2YmEBWzEwgIDn1NV8ttqDVdS1R6GFfsWOtuXjh0C9ysLgRoJvge09SyUHeJbLiTZqGa32T2LJiqTUs64FtOStYjrGWhAEAQBAW9z7xWIMvJOsCu/tX0n+npxzVI89z+Sv8AS/qYMcnaLLpfTnnlfawBvM4qez79S8bayjLJfirv/Bqw11c5q6aYDYBbleQANAIJPYBtXi1pWia4rectKOo6q07Fg5YjNon9ivFO0LFzLzC+qPOLOXjoCzl4yAspeMgJgKAygCAIAgCA+X4kBXzCArJhAVcwgKuYQFZMICC2Jeuw4j2LztpYTrFL2e0t6/yi+hUyS38GWlnTzoLw9uHIW5HNzfavk4ycGei1c7GQtBkYVYcOVhwOGz4rZGaktxW1Y2vgA6NSpnhqcvh4E1UaNLpU5DXsWaWDkuDLFVXM+DAdm7VU8NVXIlniY4F2YqPQVNDueOpkS7s1NqmsLVfI50kTfAguaQ4OoRm+1aqGHqUpqalZrT8/YrnOMlZosxaDqYhrwr3f1Ora1lcxdXiU1qW0yHW+N+/mA4dvNXmVsReTlJ3ZojCysjj56cdFeXvOoZGjMFhblUkWbkjTBOFfXbOwfV6W/tPj9vkebXq55buBZS69ApLSXQFpLICzl0BZQsSA+0AQBAEAQAoCJMQkBWzEFAVkxAQFZMQEBWzEugK2PLIDTDcW4DhHaF5WO2ZGv7cN0vR+P3NFHEOG58CTCiYi00Iyg0I3L5qtQq0JWmrfzU3xnGa3FrK2/GZgJEQfSGHrHxquRrSXE7lRZwbpmHy2ObqIcPgrVXXMjlZLZbsA/PI1sd8Ap9LDU5lZ9G2oHSD0Xbk6SOoszVEuggDE5ztTD8aLjrQGVkKPdOPxcPa51Owb1B4hckdylZNWxGiYC69HNbyR14+1VSqyZJRRXEq7D4KtX7C3avh/PAhOrGHFhrC7UvpcFs6nh/ae+Wv2MNWu57uRNl5deiUFnLy6AspeAgLOXgoCzl4SAmAIDKAIAgCAIAgMEIDRFl6oCBHlEBXx5JAQI0igIMaQ0ICFFs/QgIj7OzKMoqStJXR1NrejWZZw0rzquycNPell8Psy+OJmviY4J2ZefU2HL+ia+at9y5Ytc0Y4M5lmlsbErhZ/MsWKpjgzmUf0jFd31Q6zT1M8EcysjsXEPi0vn+DjxUPifQgOzLXT2Gv65+S/n0KpYvRGxsm4r0aOzcNS3qN38d/4KZV5y5kiFZ+hbikmQZDQgJ8GRQE+BJICwgSaAnwZaiAkgUQGUAQBAEAQBAEAQBAYIQGt8uCgI0SRBQEWJZ2hARYlm6EBHfZmhAaHWXoQGs2VoQHx3q0IB3q0ID6FlaEBsbZehAb2WXoQEiHZmhASodm6EBKhyCAkslgEBtDaIDKAIAgCAIAgCAIAgCAIAgCAIAgMUQGDDGZAfJgtzID54u3MgMcVagHFWoDPFm5kB9CA3MgMiGMyA+gEBlAEAQBAEAQBAEAQBAEAQBAEAQBAEAQBAEAQBAEAQBAEAQBAEAQBAEAQBAEAQBAEAQH/2Q==" parent="irreTRPkPW1s-mjHIozF-17" vertex="1">
          <mxGeometry x="16" y="30" width="60" height="60" as="geometry" />
        </mxCell>
        <mxCell id="irreTRPkPW1s-mjHIozF-19" value="Python Service" style="text;html=1;align=center;verticalAlign=middle;whiteSpace=wrap;rounded=0;" parent="irreTRPkPW1s-mjHIozF-17" vertex="1">
          <mxGeometry width="100" height="30" as="geometry" />
        </mxCell>
        <mxCell id="irreTRPkPW1s-mjHIozF-22" value="" style="group" parent="1" vertex="1" connectable="0">
          <mxGeometry x="360" y="750" width="140" height="100" as="geometry" />
        </mxCell>
        <mxCell id="irreTRPkPW1s-mjHIozF-20" value="" style="verticalLabelPosition=bottom;html=1;verticalAlign=top;align=center;strokeColor=none;fillColor=#00BEF2;shape=mxgraph.azure.storage_blob;" parent="irreTRPkPW1s-mjHIozF-22" vertex="1">
          <mxGeometry x="1" y="30" width="85" height="70" as="geometry" />
        </mxCell>
        <mxCell id="irreTRPkPW1s-mjHIozF-21" value="Azure Storage Container (Model Storage)" style="text;html=1;align=center;verticalAlign=middle;whiteSpace=wrap;rounded=0;" parent="irreTRPkPW1s-mjHIozF-22" vertex="1">
          <mxGeometry x="-30" width="140" height="30" as="geometry" />
        </mxCell>
        <mxCell id="irreTRPkPW1s-mjHIozF-25" value="" style="group" parent="1" vertex="1" connectable="0">
          <mxGeometry x="240" y="610" width="80" height="90" as="geometry" />
        </mxCell>
        <mxCell id="irreTRPkPW1s-mjHIozF-23" value="" style="shape=image;verticalLabelPosition=bottom;verticalAlign=top;imageAspect=0;aspect=fixed;image=data:image/jpeg,/9j/4AAQSkZJRgABAQAAAQABAAD/2wBDAAMCAgMCAgMDAwMEAwMEBQgFBQQEBQoHBwYIDAoMDAsKCwsNDhIQDQ4RDgsLEBYQERMUFRUVDA8XGBYUGBIUFRT/2wBDAQMEBAUEBQkFBQkUDQsNFBQUFBQUFBQUFBQUFBQUFBQUFBQUFBQUFBQUFBQUFBQUFBQUFBQUFBQUFBQUFBQUFBT/wgARCADIAMgDASIAAhEBAxEB/8QAHAABAAMBAQEBAQAAAAAAAAAAAAYHCAUEAQMC/8QAGgEBAAIDAQAAAAAAAAAAAAAAAAQFAQIDBv/aAAwDAQACEAMQAAAB1SAAAAAAAAAAAAAAAAAAAAAAAAAAAAAAAAAAAAAAAAAAAAAAAAAAAAAAAck6z8v1OfSfW6/pPI/LQcWnv+0Ic8AAAAAUmXYzt4DTCjIaalxFtPFhqo5U6tq20acuT0/jptn24q/r7S8nmhlF6GeIrKufYr2cdNPUhfTziQuFy8ZmLkOMjr4Y3PhjXe7qO2Jm468bu+GHWpS4KfNVdPmcyXAgGhaht6dXVh+0QtmTEiUvhtlwu3Cik0rTrvxbPg8RtaXx2HIqk68uzclS3nU3fx9UPpmMdnCO5+1GK0iN8ikKp2KIlALmzTfeZuScc7o1N5n3QH9O8b8KTvNrmiLm6LbFbxG9naP8zBqBp043ZIFmGnQAAB5fUzrnGfWguKIKa/AAAAAAAAAAAAAAAAAAAAAAAAAAAAAAAAAAAAAAAAAAAAAAAAAAAAAAAAAAA//EACoQAAICAQMDAgUFAAAAAAAAAAQFAwYCAQc2ABMUEBIRFTBAcBYhIjE0/9oACAEBAAEFAvykcdEuFNuh0+dTaMGJX2ZTYEGSKXCePq+F66zUxPFgH1m5Bjl+y3l5ZTOJSW5bFJYWGDNqttCwJeMwhLDTYasrD9S2bmRVVu73jDB0R70QlFWvdUJASs3txzIFKiNG3l5ZTOJS0kHoEbzT/wBCA9ONMFFaog/cYkERixy2f+S535svTW3YqzhZ9ChXdnhTTpHGDoZw2jTiLLBq0FwO11K63f5jR9vVMaDdKriVtvtjRFxqXdingJItnis56jvLyymcSfkeMmpo/ed9Xwj2A0UftrXEuZzKJOPEMUNkAqpbaU2O7x+xyrOwFrUmBDjOgS/tbGGrJspXYrF3w09N3+Y1jjW+H+za/g+9nH9l+Lby8spnEryR21VBH9LwT3WqAfxU5XxDfZyYx4tjo1wFCHy7l+j+E5TbWZMEk8Ktom3ynOlrfLO9d1UrA62VyPKGvbyKzWJe240wdN3gAJYItogSQK3u0mPPs9Rizgq99I9xlNH7CTpksNYvdNPbplFjrm7jeEmRom7yYAGJaLdw5CQ6qhllY/31OnMxKUL9Fa/6Us2A8bs75s1XDeGB9qVrJoNlXW8utfqPhTflf//EAC4RAAEDAgMFBwUBAAAAAAAAAAECAwQAEQUSMRMhQWFxFCAiUFGBwSQwMrHw0f/aAAgBAwEBPwHzmU/JmTOxx1ZQNTTCOxtBDrl+Z+3MVLSB2UDnesOM5xxyRHAJOt6n5n5caOvXU/3tUiaxF3Oqph9uSnO0bimpTLy1NoVvTrSZjCniwFeKlSmUu7Eq8VJWF6d2c5sYri+VYG3s4YPrc/FR/qMWcc4IFvj/AGoLaHnn3HhdV7e1PHZ4gw20d1jccLUqSMPnSVcbbuptSGzhsll94/kCTWENqeK5zuq9On9+u9jz4RG2XFRqK1sWEN+gqJBTEUtYNyqpkIS05cxT0qJh7UQlY3qPE07hTb0sSlH26ViGHJn5cxtakIS2kIToO6RcWpjBYzDm0N1Hn57/AP/EAC8RAAEDAQUFBgcAAAAAAAAAAAIBAwQABRESFDETICFBUSJQYXGB8CMwMlKRsdH/2gAIAQIBAT8B75jtMRYuZeHEq6U8WZcUmwu8E+XFSMqrmFX0qckQABh5VuTpUPC1GfeHTRPfrTbDj30JTjZNLhOnI7rQIZpwWljOi3tlHs0Md0m9qidmiFR13YgbSQA+NWueOUqdKe+DZoB93v8AlSCIAbENLqaHHCdNxOacaRjORGE/PlxojzzDrTXK66rSNG0GI3oP73rHaUn9pySpDm1eI+q1JllJEBVLkGo0pYxYsKL51JmOSUQV4CnJKbtA2o+XFPWoc0oeLCl99GSmSkWq7qLct9PWq+6GDgnl37//xAA+EAACAQMBAwYMAwcFAAAAAAABAgMABBESEyFBBSIxUXSxEBQyQlJhcXKBkcHwQKGyICMwcHPR8TNDYoLC/9oACAEBAAY/Av5pPPMcIv50dhpt04ADJqUXMmuJE4qBv+8/hNncXlvA+M6ZZQppZI3WSNhkMpyD4Le2B3AbQiheyIGlc8zPmjwGJrqMSA6dOeP4OPsy97VyR2WPupkaVsqcHmGpZozmPcFzVvBtWyiAHmHprxqMnY4JyRjoqEtv1S7Q9/8AFNi9g9wQgfWJMdPwqNLK18bmKBny+EQkdHrpIeUbPxVGONtG+oD2imtbWLx+5XyiHwi/HjSrf8nbOI/7kL50/Co54HEkMi6ldeIqPsy97VyR2WPup5Gmn6zvH9qhgGcSOF+Ff6s/zH9qlij8lY9mM+vdU03CNMfE0ZJG0qK/dQ7utjWzMJDda7x4JLZrZnK452qoZgMCRA2PbSw7MzORk4OMU8qoY9LacE1tnGvfpCjjVxOlsUWIec3TWwMeGzjOd3k58Df0Eq0uby0S8ubmMSsZd4UHeABUDWS7KC5Qtss+SR04peU7+BbuSZjoSTyVAOOirW+sIRbCR9nJEvk5xkEVoc5EM7Ivs3H61H2Ze9q5I7LH3Vdv/wANPz3UjcI1LfT6+C3h9N9Xy/zUsvGR/wAh9mhbr0KdI9tGMKNRGDIRvqYWACShcgkZzU8E7mR0OsM3TvoN6cYP0qC4kPMjiq9vT5nPb59H31VeRe63fQtoucsR0ADi3GorfpwOd6zx8Lf0ErkrssX6RXJPuSd4rk7/AL/rarLtP/k1cdqb9K1H2Ze9q5I7LH3UkfGST8hV3P7EH38vAkXCJPzP2KtI+OjUfjvrUQTz9VZZgo9dSzOeGFHWaup/NwEq0k61K/fzqzsE6FyX9ZycCprcj99LGS/vYq6fzmhKr73CmvJN6RdGeLfsNLbWNzcR7FBrihZhXJiOpR1towVYYIOkVyYbW0nuQqPq2MZbG8dVWEU8TwSrryki6SOeeFWaWtvLcuLjJWFCxHNPVU8d1by20huWOmVCpxpXrqOS2sbm4j8XUaoomYdJ6q5KjlRo5FtkDIwwQcVbQ+gmr5/4pG4yMX+n08EreLTbN5dOrQcY6KAHQK2mgGQDcTQeSB9KNmNYecopWvGdE9KXh7BSQQjCL+dW5ijaVlfoQZ4UJrmF444edh1xk8PBIi2sxAcgHQaigHSBzj1nj/DLyOEQdJapZUGVY6UHqq3h9BAD+GlMQ1S6TpHrrS0Eje84pbm7IaRd6xjoH82P/8QAKhABAAEDAgUEAQUBAAAAAAAAAREAITFBURBhcYGRobHB8NEgMEBw8eH/2gAIAQEAAT8h/tKLLNMrQOdS8l2HvLTaxG6SbXA2/iBC3gk3haAkI8HREzwvnPulYPZ80oJUjMDFuazwlIZK82fxP32m2ppGRJcpQyixFg/M00hjrSX9ZqZogYSU+1ENJ+2r9v3Y0hJnkiVO0ekFDfCsw4qGHXlmExzF6Vv55X2sZcjzUqTQz/NMv5oFunLJh4fvtNtc0Zu+0OGJpqJv6cCyqoB8nU63WpQJgup+BoCWodaiRL1p7FRz9rQdduGHiISZB251Gkj2QmlNEvbdKup1zNBn1qZ9JWhX+VOrdNtxKFtvehWUQlDJjeTtw+150ZKs4joAgS+ZrKLUEVFzRkt1ov7t4s5CqOeVMuNmVgNMOOVNmSt0RD5fD99ptq98Mx1/6VNxPo+HBCLd10H/ABUukQx5Ee7Rz7Q9JZfu1KtLkEnU2ptF5kRnvUhmCSjI8+9fXHX4VF+DPOLB8VcBhPoSAHal2OoHg/FTabtm/KDtRBBTPdpemCc8Ptef6LWn70fjgP32m2oLbKTkL7xWQN55XgiRsRO57Us5EIc7nvVgokASo7etYBiS4zijNkNGuWKnUgld2ZfjzX+bUjR5XC/8Iv3KLy6csO1qgn3RH5NKVW36n8Z7n6MmmgG9pCoI/wDwphNGjF7oecMwYq6Pr0pSVfFHhmRTKgxQMALlkQMWoqyv+8cjNLkVkMZEcNQa2V9VFJGIXeYcCLKGeRgztFGKgICj8njOO9RyWIlGG2XrQ9nqxD67VvlA5Wq86TbMUoHk6FWKJFd22z2pII4aNIhIm8Zio7r4tXL9sp2yqAqVYCBdFjz81uD19F/X+NAjr3EwtQfZkgPWn1i5V3XV/tj/2gAMAwEAAgADAAAAEPPPPPPPPPPPPPPPPPPPPPPPPPPPPPPPPPPPPPPPPPPPPPPPPPPPPPPPPPKXPPPPPPPMNNOaeffusvvqBCNK9sJw46DTLHDHAnPf/nvXfPPPPfPPPPPPPPPPPPPPPPPPPPPPPPPPPPPPPPPPPPPPPPPPPPPPPPPPPPPPPPPPPPP/xAAoEQEAAgEDAgUEAwAAAAAAAAABESEAMVFhQXEgUIGRoTDB0fCx4fH/2gAIAQMBAT8Q85ZrPIa9JsupABL14KV8tsLxa6HP02FrfwRFnOOtm2iVmCz9jKzwiHTmOLRiRAXpa+x982bDRL9clbVCEi46m+2AnTqX01uI+c6KyYhat6EaGFK5hh7nh3wFHdIPlyd9X8n4Z2MHesCgA7dLabbTsY8TQB0QpjQ/oxAapDdEfyrwOKqmQ7oyd4T1wTrk4D/A7cvEULUrrBc+4ZN2oD3i/nGEplX1fu4FjJloS81cRV4hDrml7dv1caExDSlFX7YGXt0J1j8YbcAAcHhmpRPUwwwLJCDvAE+vnv8A/8QAJhEAAgIBAgUFAQEAAAAAAAAAAREAITFBYVFxgaGxIFDB0fAw8f/aAAgBAgEBPxD3kIeNDjVZrRu6xCqchQ1vQGeX8woBheWh2gHQFclXX65ddmzO3hHxYOOBE0RiRuEsXT0MHUiwa8Z7TVBJsC8aneFwByH09PDsg+Qs9pshA+fmb6NnlZg5aIDWpgrIoLJLsP8AZMONwDbgAA+FzMGNUYLwCXSj0hfqWdy/19fUdmKTejNeHN4w9HXaCCAILp9QxElLKuXCBCGIBCFoFvcGb+YdINGdn9wuTIzzPpQI1CIQE5QvuT299//EACkQAQEAAgEDBAAGAwEAAAAAAAERACExQVFxEGGBkTBAobHB8CBw0eH/2gAIAQEAAT8Q/wBpOL4YVmhdU/8AWA5vuoap0hRfAZATJ1ryhJ9H5QKfCntQhsUdzo4sgBLSpkCbEZ6N5Cg6Ud8H3sgQ9GmoPANuZJ1uLbMN3Jp3up+VGGxajwSiMQ3s5xEnYXKOnZyfOVBCpEC+OtMAtRolAo7lWRkA3dKDzp8/i1kJ9iuTgnNwlfD0RBY3QATm0A5iLErBMB6oGIF6BDBbKiJQhY0IGSPVCXkKTlhdaHjLTkUGUPh8nqMNsQHPwOU/Vi5xgSRriUp+PSw3ybCyEkDayHfOU8zsIP6+c8plhdAOVexjgIuofgNfbkeMulO+oj336UGqjSaxU6OemOCWRqRBesuQd6rUwtGrFnQDvlQdDnQFAc/sye9rW9sWwAtnT3xsEoMaSHEA2dGdEvjmiGLRLXJ9vT+87ZTrZUBSPIkVW5A0C+Qe0JQnEsdIQLdpdd1are1Aibq/L4dglW4aQO0GrYCvL9ZLfn1GG5Rtr4T+pzb4XeL/ACA/HprkMDrP+/1ZtXPuBDA/GnXoK+FnjBzHpTI092gyUjxgKm8sGWgzUwpCkrJsvQFPjwZMCDz3T9kcoMFLta33UB7phHyS6h4nJnssrwjy7+BnrYs6AI7v6l3yE6pKbie5WHsGe4Tabsl+ten952/A35E0GeMN6jA+4gx1/wDlM/RsH7GEXhXPfILk/LwXZmUPYOXY8mbNFCGoBvqqAd3LuvltAM61+gXpjlKhcLEeA+jIics+I/dmj9YHZ5IF8uoYIK3ctP6MeReuIzZCFKufY/Q98rdFtc+3rC+Sf4OBZnIl1ynUuPOA0IFogiI7ExS7B0QHQYy8xzovgLbCCoSmxHIR0EZqBKQrqpioAlkAJFSiyae2JjaFBVTSBGW7MHSeNAHCDpEpm1AEOn8MfvPpYKfwB9+gF1jwJSiERvbC4AE6AQMjPJEB3NFBes6ubiVI0vK4OTfYNY3BdmScgyL4Hvj7w73v5fVP/DQYuamrZVAsu73MNBptf6ACiFTsOuGIoRHqY6/T8xhNEdb4wo15EL7NHsH4b3GBTe65vsryAa+/KYoIEy6k180/lq40SbaaoG5zhz4Z5BVkxLd1+08YOgaHddT/AGv/AP/Z" parent="irreTRPkPW1s-mjHIozF-25" vertex="1">
          <mxGeometry y="10" width="80" height="80" as="geometry" />
        </mxCell>
        <mxCell id="irreTRPkPW1s-mjHIozF-24" value="MLFlow" style="text;html=1;align=center;verticalAlign=middle;whiteSpace=wrap;rounded=0;" parent="irreTRPkPW1s-mjHIozF-25" vertex="1">
          <mxGeometry x="4" width="60" height="30" as="geometry" />
        </mxCell>
        <mxCell id="irreTRPkPW1s-mjHIozF-26" value="" style="group" parent="1" vertex="1" connectable="0">
          <mxGeometry x="30" y="590" width="100" height="95" as="geometry" />
        </mxCell>
        <mxCell id="irreTRPkPW1s-mjHIozF-27" value="" style="shape=image;verticalLabelPosition=bottom;verticalAlign=top;imageAspect=0;aspect=fixed;image=data:image/jpeg,/9j/4AAQSkZJRgABAQAAAQABAAD/2wCEAAkGBxMSEBAQEBMVEBUVFw8QFRAVEBUQFRAQFhIWGBUVFRUYHCggGBolGxUVITEhJSkrLi4uFx8zODMsNygtLisBCgoKDg0OGxAQGy0iICUtLS8tLS0rLS0tLS0tLS0tLS0tLS0tLS0tLS0tLS0tLS0tLS0tLS0tLS0tLS0tLS0tLf/AABEIAOEA4QMBEQACEQEDEQH/xAAcAAEAAgMBAQEAAAAAAAAAAAAABAUBAwYHAgj/xABQEAABAgMBCgcLBg0EAwAAAAABAAIDBBEFBhIhMUFRYXGB0RMUIlJTkaEHFRYjMnKSk7GywTRCYnPh8DNDVGOCg5Sio7PC0uIkJTXTF8Px/8QAGwEBAAMBAQEBAAAAAAAAAAAAAAIDBAEFBgf/xAA5EQACAQIDBAcHAwMFAQAAAAAAAQIDEQQSUQUhMUETFDJScZGhIjNhgbHR4RU08EJTwQYjJENy8f/aAAwDAQACEQMRAD8A9xQBAEAQBAEAQBAEAQBAQLQtqWgfh48KDofFa0nUCalSUW+CIuUVxZQzPdIs5hoIxefoQYhHWWgHrU1Qm+RB1oLmQnd1WRyNjnSITfi9S6vI508TZC7qMgcZis1wSfdJXOgmOngWsldvZ8XyZqG3REJgYf1gCi6U1yJKrB8y+hRWuAc0hwOJwIIO0KssPtAEAQBAEAQBAEAQBAEAQBAEAQBAEAQBAEB8RorWNc97gxrQSXOIaGgYyScQQHnt0XdUgwyWSbOMOFRwrqshA6B5T+wZiVohh2+0Z5V1/See2vdjOzNeEmHtb0cI8CwDNycLh5xK0RpxjwRRKpKXFlPAlHvwsYTXKBgO3ErCG4mMsSMcYa3W7dVLHLm0WBE5zP3tyWFz5dYUTIWHaR8EsLkeLZUVvzCfNId2DCh25rk5uNLurBiRIDsZvHuhk6wKV2qLSfE6nbgdrYPdSmYRDZpommZXgCHFA2cl2qg1qmVCL4bi6NeS47z1OwLoJedh8JLvvqUvmHkvhnM5uMZcOI0wErLKDi7M0xmpLcWiiSCAIAgCAIAgCAIAgCAIAgCAIAgCA0zk0yFDfFiuDGMaXuccTWgVJXUruyON2V2eD3aXYxZ+IW1MOXaeRBrS+pifEpjdlpiGTKTup01DxMVSo5+BWWfYr4gDnchurlOGgZNZVtips6SQueo2+hwHxB0nBuidtKDYl4rc2LSfIy94GM00ZepSImp0y3SdiWZy58GbGYruUXMiaGYrljtz7bHactNeBcsxczEhNeKOAcNIBXDpVTthA4YRvTzSag6jjCHblXITsaUjiLCcYURh6xla4fOac32KMopqzJJtO6PfLj7o2T8s2M0XrwbyLDrW8iAZM7TjBzHOCsFSGR2N1OedXLxQJhAEAQBAEAQBAEAQBAEAQBAEAQHm3dotUtgwJRppwpdFfpZDpetOgucD+gtOHjvbM+IluSPO7nZARHGI8Va2gAyF2nV8QtaMjPQbkrNbHmQIgq1jTELedQgAHRU12KutNxjuLKMFKW89LApgGDQvPN5w/dIsdnBtmmANeHNY+gpftOInOQQBXMdAWzC1HfKzJiaatmR57erYYheodF6gMXqAy0kYjRcOkuBHrgOPPnUWiSZBuhkw6Hwg8pna2uEbMfWokid3JbTMK0Gwq8mYa6GRkv2NL2OPU8fpqmvG8b6F1GVp21PcFiNgQBAEAQBAEAQBAEAQBAEAQBAEB453aT/rJcfmf/Y9a8P2WZcRxRU3LDxB893satKMzOiuftYSs2IjvIc3g30wkNJBvgMtCBsqo1aeeFkSpzyTuz1GXm4b237Hte3HfBwI615zi07M9BSTV0cLd9bzIrWy0FweA4PiPBq2oBowHLjqdQ002Yek17TMmIqp+yjiaLWZDF6uHRRAKIDF6uA+obcI1j2ozpItIeJjeZE90qBMprhD/uUl9aPdKhV7DLKfbR+h155uCAIAgCAIAgCAIAgCAIAgCAIAgPHO7T8sl/qB/NeteH7LMmI7SKy5QeIPnu9jVoKCxjS1TWtNikmRaNZktI6l3McyjiensXMwyjiensTMdymOJ6exMwyjiensXMwymh8OhIzLpyx8Xq6D6htwjWPauAkWmPERvq4nulQJlDcL/wAlJfWt9hUavYZZT7aP0QvPNwQBAEAQBAEAQBAEAQBAa48ZrGue9wY1oLnPcQ1rQMZJOABOIvY4e1u6pKQ3FsFsSZI+c0CHDr5zsJ1htFfHDyfHcUOvFcN5THuwn8iH7Wf+lT6t8fT8kOsPT1/A/wDMLvyIfth/6U6stfT8jrD09fwcfdndMbQjQ4xhcBeM4O94Xha8ourW9bTHiorqdPIrFc553exHsq3OAh3nB3+Eurf3uMDBShzKZWTPCs9D/F/xQDwr/M/xf8UA8KvzP8X/ABQDwq/M/wAX/FAY8KvzP8X/ABQF7Z0zwsJkSl7fV5Na0oSMdNC4dNMccoqSIM13q6DMMYRrHtXAYtiY8VFaMPIeCf0TgXEjtymuF/5KS+tb7CoVewy2n20foheebggCAIAgCAIAgCAIAgPl7wAXOIAAJJJoABjJKA8Hu8uwfPRSxhLZZh5DMXCEfjXjOcgOIaardSp5F8TFUqZ38Cusy52JFaHuPBNOEEirnDOG5tatKiy8EmdK70QgM+CTOld6IQGPBJnSu9EIB4JN6V3ojelwY8Em9K70BvXLgeCTeld6I3pcDwSb0rvRG9Lgx4Jt6V3oDelzo8E29K70BvS4LqQlOChthg317XDSlakn4oDTHbyipIiyPGitb5RpoynYupXONpFfFnS4gN5IqNZwqWUg5H3O/gonmv8AdKiTKq5ea4KclooF9ePDqVpXAcqyYyr0VCc+Nlc0UI5qsV8T1vw5d0LfWH+1fJ/rr7nr+D2uqLUeHLuhb6w/2p+uvuev4HVFqPDl3Qt9Yf7U/XX3PX8Dqi1JMrdwwmkWE5mlrg/sICup7cpt+3Frw3/YhLCPkzpZGehxm38J4eNGMHMRjB1r16VanVjmg7ozSg4uzJCtIhAEAQBAEBwPdetwwZVsqw0fMXwdogNpf+kS1ukXyvoQvK+hRXlZW1PMbmLNEaLfOFWMo4jI53zW6sBOzSthkO3ivoiQbNHGDmC7Y5ccYOYJYXHGDmCWFzHGDmXLC5qfaDRjLR+ku5GczI1OtdmfsduXejY6RHz36Z9wU6NjpEYNtszHqTo2OkR8Ot1vNJ6t6dGznSI1Pt45GDa5d6IdIQY9oPcSa3tcgwduNSUUiDk2RCVI4Zh+U3WPauME6d/BRPNf7pVZaUVj/h4XnBeftP8AaVP/ACzVhffR8T0CypURYzIbiQHEgkYxRpOXUvz6jBTmos+im7K503glC6SJ+7uW/qMNWUdMx4JQukifu7k6jDVjpmQ525NwBMJ9/wDQcL0nUcXsVdTA7rxZKNbUppGciS0W+ZVjmmjmnERla4ZlnoV6mHqZo7np9yyUIzVmemWVaDZiE2KzBXAW5WuGNp++ZfZYbERr01OP/wAPLnBwlZkxXkAgCAIAgPz93Q7V4zaMw4GrYZ4uzzYZId1vLzqIW+lHLBGGrLNJl9c1JcFLMrgc/wAY7W7EOqimVkmOanVgUkcZrounDRMTLGeUcPNGE9S6k2cbSK2NapPkAN0nCdymoalbnoQosZzvKcTtwdSnZIi22a0OBDphcOmEAQGEAQArh0+oXlN1j2rjOk2e/BRPNf7pVZYUdjD/AFELzvgV5+0/2lT/AMs1YX30fE9Hub+VQdbvccvgsJ71H0FTss755oKr1qjcY3RlW9mrhToWbp5E8qNjH1V1Oqp7uZFxsc9dfZoLOHaOU2gf9JmIHWPYdCz4yjeOdcUWUZ77ES4e0LyOYRPJijBoiAVB2io6lbsbEZKvRvhL6/z/AAcxULxzaHoC+oPPCAIAgIFuz/F5WYj9HDiRAM7mtJA2mgUoq7SIydk2fnKzZYxY0KGcN85ocScJFauNc9Kr0Tzz1B+AHQonSujRA0XzjQZ1Ylcg3Yppu1C7AzkjP847lbGFuJVKehXFTIBAEBhcAQ6YXDphAEBhAEAK4dJEnCqb7IO0qLZJIxbMa9hEZXYNmX76VBk0RLmYF9HvsjGudtIvQO0nYvG25WVPByXOVl/l+iN2AhmrJ6bz0W5KDfTLTzGvd1i9/qXx2CjerfQ9us7RO3jYl6VfsmaPE0UWOxaZC6rp3Rw3RYYe1zXYQ4Fp1EUXoWUl4lXBnmoLoMWvzob/AN5jt4XgxbpVL80/obXaUfE9ahRA5rXDE4Bw1EVC+7jJSSaPIas7H2unAgCA5Huqxy2y44GAvdAZsMVpI6gVbQXtoqrP2GeTXFQr6bB5rIj9uBv9S2sxo7K1pxsJmHCTibn3BdhFyZGcsqOUmpl0Q1cdQyDUtKSXAzNt8TSpHDBXDoQBAbocq448GvcotklFm9sm3LU9ijmJZT64s3N2neuXYsjHFWZu070uxZDirM3ad6XZ2yHFWZu070uxZGOLMzdp3rmZiyHFm5u0pdnbITEdsNtXGgyDKdACidOcnJkxHXx1AZgosmkdTYcjwULlYHOo52jM3Z7SV8HtnHrFVssH7Mdy+Or+3wPfwWH6KF3xf8sej3IyHBwjEcKOiUI0MHk9dSepSwNHLDM+f0JVpXdi4ilTru7sRifFFRYkKJYG6HiWyjviVy4nB3UQLyaiZnXrxtGHtBXkY2OWq/iaqTvE7i5SPfycE5gWegS0dgC+p2dUz4aD+FvLcefXVqjLZbSoIAgOG7sR/wBuH10KvU/7FdQ7ZTX7J5jchMcHGiOpU8GQBpv2Y+pbkrmNuxYWnELqOcakkq+CsZ5O5AUyAQGCuHTLW1NAgJ8CXDcJwnPm1Ktu5YlY1TtoMh4Cau5ox7cyi3YklcqI1tRD5NGDVfHrO5RzE8po75Reeeobly7FkO+UXnnqG5LsWQ75ReeeobkuxZDvlF556huS4sh3xi889Q3JcWRg2jF557NyXO2RqY18R1BfRHbXHboVdWrClHNUaS+JKEJSdoq50dj2LeERItC7GG4ww5znK+Q2ptvpk6VDdHm+b+y9X8D2MLgcjz1OOmn5O1ucsQxnCI8UhNPrCPmjRnOxeXhMK6jzS4fU2VamXcuJ3LsA+C9mTyq5lSuaFje8sFFyx0USwNkHKtFDmiuZyV3EOkWE7Owt9F1f6l5+0ks0WX0HuZc3AxKy8RvNiHqLW/Gq9fYsr0GtH9jPil7fyOmXsGUIAgON7rUKtlxXc18u7riBv9Suodspr9g8fufd406WuHaD8FvjxMM+BdTw5I1/BXRKZEFTIBAYK4dJ8rBoKnGewKDZNIg2taV74tnlZXc3QNKrbLIxuVEpKPiuvWCpxlxxDSSseKxdLDQz1Xb6vwNFKjOq8sEdHJWBDZhieNOmoaNgOHb1L5XEf6irzdqSUV5v7eh61PZ1Ndve/JE8yMLooXqmblge18a/+x+n2NHU6HdRjiELoofqmblz9Wxv9xjqlDuod74PRQ/Vt3J+rY3+4x1Sh3UY73weih+rbuT9Wxn9xneqUe6h3ug9Ez0AufquM/uMdUo91GO90HomegEe1MY/+x+Y6rR7q8iZJyhcbyEyv0WN+AxLK3Vry3tyfzZalGC3WR1FkXKGofMYBj4IGpPnOHsHWvQobOfGp5FM6/KJ1bWhoAAAAwAAUAGYBenugjPxNbjVZpNyZNbjFFGx0USwFEsDDYoBIGE+xRjXjGTiuJ1wbVzmLtPxB+t/oWHGO9my6kTu56eRHH0oZ7DuXrbDf+3NfFGfF8UdcvdMYQBAUd3ErwtnTjAKngojwM7mC/Ha0KdN2miFRXgzwGyolI0M5ze+kKfFejHiefLgdNNNqw9auXEofArVYQCA2SzKuGjCoyZKK3ki0Zng4ZdlxN84/euxVN2LUrnOSks6LEDBjOEuOGgyuKx4vEww1J1Z8F6vQ00aTqzUInb2ZZ9L2DBbUnEMrjlJK/PsRiKuMrZpb2+C0+CPoadOFGFlwO3s25KG0AxyYjuaCWtHVhK9Chs2CV6m9lU67/pLVtiy4/Ew9rQfatiw1Huoq6SWpnvPL9DD9W3cu9Wpd1eQ6SWpnvRA6GF6tu5OrUu6vIdJLUd6YHQwvVt3J1al3V5DpJame9MDoYXq27k6tS7q8jnSS1Miy4HQwvVN3LvV6XdXkOklqSWMDRQANGYCgVlkkR4mC9QlUXIkkayqHd8SQouWOiiWBqiRmjLsGFUVMRSp8X5EowkyNFmScAwDtXnVsbKe6O5epfGklxErl2Jg1vbFQoLs3YYI0RD13u5SxXI5S5ln3PmeKjOzva3qbX+pe1sNf7Un8f8ABmxb9pHWL2zIEAQHy9gILSKgggjODjQH5lnZUwI0SCccKI+HU5Sx5Feyq9JO6uec1bcdUxwc0EYnAHYQrzOyscKVGxWFZhdBLkR5R1BQkTiVl0UTlMbmBd1mnwVMi6JPuXl6MdEONxvR5o+2vUF8f/qSu3UhRXBK/wA3+F6ntbNp2i567j024iRAY+ORhJvG6GjHTWfdWPZlFZXUZpxE9+U6dxXqSdjOt5rqqbskE36nQm/U4fL3gYzTWVCdRQV5St8ySjfgjS6daMpOr7VkntGlHg2/D8lioSZqdaGYdqzy2o+UfUmsP8T4M8cw7VW9pT7qJdAtTHHjmHbvXP1GpovX7joIgzrsw6jvUXtCrovX7negifBm3Z6bAoSxtZ87fI6qUTW6KTjJO1UTqzn2m2TUUuCPlVnQgJUsMGtejhY2hfUoqPecldVGvpgjmNa3b5R9o6lTiZXnYnTW4664qXvJRp57nv7b0djQvp9k08mGXxuzBiZXqF8vSKAgCAIDxDut2TwM/wAMByJhofXJwjAGvHVeH9IrbQleNtDHWjaV9SssGZvod4cbPdOL4jqWqL3GWa3m+bgGt8MOcKyLKmiIpkSbI+SdfwCrlxLI8Clt/wDCjzW+0qqXEtjwL25z5O3W/wB4r4Pb/wC8fgj6DZ/uF4s9WuRH+jhfrf5rls2ev+PH5/Vka3bZaPxq+a3kUYoo2BpjzDW4zU5hjWWviqVHdJ79FxLIU5S4EGLOuOLkjRj615FbaFWe6Psr18zTGhFcd5GJz4Vhbbd2XWCAIAgCAIAgCAIAMy6k27I4TXvDGknAGgknQBhXsJKMbaGbizz95dFi4MLojsA+k52Adq85J1J2XFsv3RR6vKQBDhshtxMa1g1AUX3VOChBRXJWPIk7u5uUzgQBAEBz13NzonpR0IUEVp4SE44KRADySczgSNoORWU55JXK6kM0bHgcNz4MU1BY9hLHMcKEEGjmuC3p80YWuTOhlbThvGMNPNcadRyqxSRU4tEq/Gcda6cF+M460OnPW8fGjzW+0qEuJOPAvLnPk7db/eK+D2/+8fgvofQbP9wvF/U9ZuR+Rwf1v81637OX/Gj8/qyFf3jLOIQKkmgzq6q4wvKTsiMU3uRWTM+TgZgGfKdy+fxW0pT9mluWvP8AH18DZToJb5EJeWaRRdyvQXFEyvQXFEyvQXFEyvQXFEyvQ5dCiZXoLoUTK9BdChSz0F0FyzOhASJaGa1OxbcNRaeaRVUkrWRWXVTt7DEIY349DAficHWr8RO0bakILeQ7iZDhJjhCOTCF9recDR7TsC0bHw+et0j4R+pDEztG2p6EvqjzggCAIAgCA5C7S4SFPeNYeAj0A4QCrYgGIRG5c18MI0gUVtOq4buRVUpKW/meV2pcPPwCQ6XdFA+fB8eHag3lDa0LVGrB8zM6c1yKs2NM/k0x+zRf7VPNHVELPR+RjvNM/k0f9mi/2pmjqhZ6PyM955n8mj/s8X+1M0dULPR+R0lhwHsgtbEY6G6rzevaWOALjTARVfDbf/ePwX0Pe2f7lfM9UuVeGyUEn87t8a9bsFUjTwkZS+P1ZCqm6rS/m41T0wXONcQxD75V8/j8TOtVafBcF/OZto01GJHWEuMtxjYpQ7SOPgTy6mE4NOYL2TKauNw+kZ6bd65mWosONw+ez0270zLUWHG2c9npt3pmWosONs57PTG9My1FjPGmc9vpjemZaiw40znt9MJmWosBMs57fSCXQsZ4wznt9ILtwOMs57fSCXBCnrahQweUHuyNaQcOkjAFXOrGJ1RbOQjxXx4tSL57yAGjsaAsftVZ2W9st3RR6TYFmCXgNh43HlPOd5x7BgGxfY4LDLD0lDnz8Ty6tTPK5ZLWVhAEAQBAEAQBAEAQBAec3bfLHebD9i+T2z+5+SPSw3uy5udd/pYQzcJT1jlXSk3TSfI7Je0z7j+UfvkXm4j3jL4dlHwqSZluMbFKHaRx8CVPCsKKBhJZEAAwkm9K9iXBmVcTheIReiierduXn5JaF90OIReiierduTJLQXQ4hF6KJ6t25MktBdDiEXoonq3bkyS0F0OIReiierduTJLQXR8vk4jQS6G9oGMljgBtIXHCS5C6PiDBc8hrGl5OJrWlxOwLsISm7RTb+AbS3sk96Y/QRfUv3K7qmI7kvJkOkhqvMd6Y/QRfUv3J1TEdyXkx0kNV5kuUubmYhFIZYOc/kAbMfYr6WzMTUfZt47vyRlXprmdlYFzrJblk8JExX9KBucNGTX/8X0OC2dDDb+MtfsYqtdz3ci7XoFAQBAEAQBAEAQBAYJQGt8cBAR4k8AgOBusi3004/RZ7F8ntn9z8kelhfdl5c58mh/rP5jlTR7CJS4myY8o7PYvOxHvWXw7KNapJmWnCNi7F+0jj4E7hRnHWvX6an3l5mbJLQcK3OOtOmp95eYyS0HCtzjrTpqfeXmMktBwrc4606an3l5jJLQcK3OOtOmp95eYyS0MiIM4611VYN2TQyvQhW98mi6m+8Eq9hiPEoLkX3s3DOiJ7hUtkful4P6EcT7tnorJgFfXHmm0FAZQBAEAQBAEAQBAEAJQGiLMUQECPOICvjzqAgRp5Ac5asS+iE6Avk9sfufkj0sN7s6i5z5ND/WfzHKij2ETlxNkx5R2exediPesvh2Ua1STCAIAgCAkSUqYjr0YMpOYLXgsHPFVMkd2r0RVVqqnG7LfvPDpSrq56jdRfSfoOGy2vK+t/xb0MHXKl+RWR5Qw4jQcIOEHON68Kvgp4TERjLenwev5RshVVSDaI1vfJoupvvBX1OwyC4nLWLEvYzT53ulT2R+6Xg/oRxPu2ddAnV9ceaWECcQE+FM1QEgFAZQBAEAQBAEAQEWYioCsmIyArJiOgK2YmEBWzEwgIDn1NV8ttqDVdS1R6GFfsWOtuXjh0C9ysLgRoJvge09SyUHeJbLiTZqGa32T2LJiqTUs64FtOStYjrGWhAEAQBAW9z7xWIMvJOsCu/tX0n+npxzVI89z+Sv8AS/qYMcnaLLpfTnnlfawBvM4qez79S8bayjLJfirv/Bqw11c5q6aYDYBbleQANAIJPYBtXi1pWia4rectKOo6q07Fg5YjNon9ivFO0LFzLzC+qPOLOXjoCzl4yAspeMgJgKAygCAIAgCA+X4kBXzCArJhAVcwgKuYQFZMICC2Jeuw4j2LztpYTrFL2e0t6/yi+hUyS38GWlnTzoLw9uHIW5HNzfavk4ycGei1c7GQtBkYVYcOVhwOGz4rZGaktxW1Y2vgA6NSpnhqcvh4E1UaNLpU5DXsWaWDkuDLFVXM+DAdm7VU8NVXIlniY4F2YqPQVNDueOpkS7s1NqmsLVfI50kTfAguaQ4OoRm+1aqGHqUpqalZrT8/YrnOMlZosxaDqYhrwr3f1Ora1lcxdXiU1qW0yHW+N+/mA4dvNXmVsReTlJ3ZojCysjj56cdFeXvOoZGjMFhblUkWbkjTBOFfXbOwfV6W/tPj9vkebXq55buBZS69ApLSXQFpLICzl0BZQsSA+0AQBAEAQAoCJMQkBWzEFAVkxAQFZMQEBWzEugK2PLIDTDcW4DhHaF5WO2ZGv7cN0vR+P3NFHEOG58CTCiYi00Iyg0I3L5qtQq0JWmrfzU3xnGa3FrK2/GZgJEQfSGHrHxquRrSXE7lRZwbpmHy2ObqIcPgrVXXMjlZLZbsA/PI1sd8Ap9LDU5lZ9G2oHSD0Xbk6SOoszVEuggDE5ztTD8aLjrQGVkKPdOPxcPa51Owb1B4hckdylZNWxGiYC69HNbyR14+1VSqyZJRRXEq7D4KtX7C3avh/PAhOrGHFhrC7UvpcFs6nh/ae+Wv2MNWu57uRNl5deiUFnLy6AspeAgLOXgoCzl4SAmAIDKAIAgCAIAgMEIDRFl6oCBHlEBXx5JAQI0igIMaQ0ICFFs/QgIj7OzKMoqStJXR1NrejWZZw0rzquycNPell8Psy+OJmviY4J2ZefU2HL+ia+at9y5Ytc0Y4M5lmlsbErhZ/MsWKpjgzmUf0jFd31Q6zT1M8EcysjsXEPi0vn+DjxUPifQgOzLXT2Gv65+S/n0KpYvRGxsm4r0aOzcNS3qN38d/4KZV5y5kiFZ+hbikmQZDQgJ8GRQE+BJICwgSaAnwZaiAkgUQGUAQBAEAQBAEAQBAYIQGt8uCgI0SRBQEWJZ2hARYlm6EBHfZmhAaHWXoQGs2VoQHx3q0IB3q0ID6FlaEBsbZehAb2WXoQEiHZmhASodm6EBKhyCAkslgEBtDaIDKAIAgCAIAgCAIAgCAIAgCAIAgMUQGDDGZAfJgtzID54u3MgMcVagHFWoDPFm5kB9CA3MgMiGMyA+gEBlAEAQBAEAQBAEAQBAEAQBAEAQBAEAQBAEAQBAEAQBAEAQBAEAQBAEAQBAEAQBAEAQH/2Q==" parent="irreTRPkPW1s-mjHIozF-26" vertex="1">
          <mxGeometry x="17.5" y="37.5" width="65" height="65" as="geometry" />
        </mxCell>
        <mxCell id="irreTRPkPW1s-mjHIozF-28" value="Python Scripts (Training/Register ML Model)" style="text;html=1;align=center;verticalAlign=middle;whiteSpace=wrap;rounded=0;" parent="irreTRPkPW1s-mjHIozF-26" vertex="1">
          <mxGeometry width="100" height="30" as="geometry" />
        </mxCell>
        <mxCell id="irreTRPkPW1s-mjHIozF-32" value="" style="group" parent="1" vertex="1" connectable="0">
          <mxGeometry x="224" y="470" width="96" height="94" as="geometry" />
        </mxCell>
        <mxCell id="irreTRPkPW1s-mjHIozF-30" value="" style="image;aspect=fixed;html=1;points=[];align=center;fontSize=12;image=img/lib/azure2/databases/Azure_Database_PostgreSQL_Server.svg;" parent="irreTRPkPW1s-mjHIozF-32" vertex="1">
          <mxGeometry x="24" y="30" width="48" height="64" as="geometry" />
        </mxCell>
        <mxCell id="irreTRPkPW1s-mjHIozF-31" value="Postgres" style="text;html=1;align=center;verticalAlign=middle;whiteSpace=wrap;rounded=0;" parent="irreTRPkPW1s-mjHIozF-32" vertex="1">
          <mxGeometry width="96" height="30" as="geometry" />
        </mxCell>
        <mxCell id="irreTRPkPW1s-mjHIozF-34" value="" style="edgeStyle=orthogonalEdgeStyle;rounded=0;orthogonalLoop=1;jettySize=auto;html=1;" parent="1" source="irreTRPkPW1s-mjHIozF-27" target="irreTRPkPW1s-mjHIozF-23" edge="1">
          <mxGeometry relative="1" as="geometry" />
        </mxCell>
        <mxCell id="irreTRPkPW1s-mjHIozF-36" style="rounded=0;orthogonalLoop=1;jettySize=auto;html=1;entryX=0.604;entryY=1.047;entryDx=0;entryDy=0;entryPerimeter=0;" parent="1" source="irreTRPkPW1s-mjHIozF-23" target="irreTRPkPW1s-mjHIozF-30" edge="1">
          <mxGeometry relative="1" as="geometry" />
        </mxCell>
        <mxCell id="irreTRPkPW1s-mjHIozF-57" value="Store Model Metrics" style="edgeLabel;html=1;align=center;verticalAlign=middle;resizable=0;points=[];" parent="irreTRPkPW1s-mjHIozF-36" vertex="1" connectable="0">
          <mxGeometry x="-0.1081" y="-1" relative="1" as="geometry">
            <mxPoint as="offset" />
          </mxGeometry>
        </mxCell>
        <mxCell id="irreTRPkPW1s-mjHIozF-41" value="API Call" style="edgeStyle=orthogonalEdgeStyle;rounded=0;orthogonalLoop=1;jettySize=auto;html=1;entryX=0;entryY=0.5;entryDx=0;entryDy=0;" parent="1" source="irreTRPkPW1s-mjHIozF-14" target="irreTRPkPW1s-mjHIozF-18" edge="1">
          <mxGeometry relative="1" as="geometry" />
        </mxCell>
        <mxCell id="irreTRPkPW1s-mjHIozF-44" style="edgeStyle=orthogonalEdgeStyle;rounded=0;orthogonalLoop=1;jettySize=auto;html=1;entryX=0.015;entryY=0.574;entryDx=0;entryDy=0;entryPerimeter=0;" parent="1" source="irreTRPkPW1s-mjHIozF-10" target="irreTRPkPW1s-mjHIozF-2" edge="1">
          <mxGeometry relative="1" as="geometry" />
        </mxCell>
        <mxCell id="irreTRPkPW1s-mjHIozF-62" value="Send&lt;div&gt;Metrics&lt;/div&gt;" style="edgeLabel;html=1;align=center;verticalAlign=middle;resizable=0;points=[];" parent="irreTRPkPW1s-mjHIozF-44" vertex="1" connectable="0">
          <mxGeometry x="-0.2453" y="-3" relative="1" as="geometry">
            <mxPoint as="offset" />
          </mxGeometry>
        </mxCell>
        <mxCell id="irreTRPkPW1s-mjHIozF-47" value="" style="group" parent="1" vertex="1" connectable="0">
          <mxGeometry x="50" y="220" width="60" height="100" as="geometry" />
        </mxCell>
        <mxCell id="irreTRPkPW1s-mjHIozF-45" value="" style="shape=image;verticalLabelPosition=bottom;verticalAlign=top;imageAspect=0;aspect=fixed;image=data:image/png,iVBORw0KGgoAAAANSUhEUgAAAJgAAAC2CAYAAAAlZERnAAAMPmlDQ1BJQ0MgUHJvZmlsZQAASImVVwdYU8kWnltSIbQAAlJCb4JIDSAlhBZAercRkgChxBgIKnZ0UcG1iwVs6KqIYqfZETuLYsO+WFBQ1sWCXXmTArruK9+b75s7//3nzH/OnDtz7x0A1E9yxeJcVAOAPFGBJDYkgJGcksogdQMC0AMqgAyMubx8MSs6OgLAMtj+vby7CRBZe81BpvXP/v9aNPmCfB4ASDTE6fx8Xh7EhwDAK3liSQEARBlvPqVALMOwAm0JDBDihTKcqcCVMpyuwPvkNvGxbIhbACCrcrmSTADUrkCeUcjLhBpqfRA7ifhCEQDqDIh98/Im8SFOg9gG2oghlukz03/QyfybZvqQJpebOYQVc5EXcqAwX5zLnfZ/puN/l7xc6aAPK1hVsyShsbI5w7zdypkULsOqEPeK0iOjINaC+IOQL7eHGKVmSUMTFPaoIS+fDXMGdCF24nMDwyE2hDhYlBsZoeTTM4TBHIjhCkGnCgs48RDrQbxQkB8Up7TZLJkUq/SF1mVI2Cwlf54rkfuV+XogzUlgKfVfZwk4Sn1MrSgrPgliKsQWhcLESIjVIHbMz4kLV9qMLspiRw7aSKSxsvgtII4ViEICFPpYYYYkOFZpX5qXPzhfbHOWkBOpxAcKsuJDFfnBWnhcefxwLtgVgYiVMKgjyE+OGJwLXxAYpJg71i0QJcQpdT6ICwJiFWNxqjg3WmmPmwlyQ2S8GcSu+YVxyrF4YgFckAp9PENcEB2viBMvyuaGRSviwZeBCMAGgYABpLCmg0kgGwjbeut74Z2iJxhwgQRkAgFwUDKDI5LkPSJ4jQNF4E+IBCB/aFyAvFcACiH/dYhVXB1Ahry3UD4iBzyFOA+Eg1x4L5WPEg15SwRPICP8h3curDwYby6ssv5/zw+y3xkWZCKUjHTQI0N90JIYRAwkhhKDiba4Ae6Le+MR8OoPqzPOxD0H5/HdnvCU0E54RLhB6CTcnigslvwU5RjQCfWDlblI/zEXuBXUdMMDcB+oDpVxXdwAOOCu0A8L94Oe3SDLVsYtywrjJ+2/zeCHp6G0ozhRUMowij/F5ueRanZqbkMqslz/mB9FrOlD+WYP9fzsn/1D9vmwDf/ZEluIHcTOYaewC9hRrB4wsBNYA9aKHZPhodX1RL66Br3FyuPJgTrCf/gbfLKyTOY71Tj1OH1R9BUIpsre0YA9STxNIszMKmCw4BdBwOCIeI4jGM5Ozq4AyL4vitfXmxj5dwPRbf3OzfsDAJ8TAwMDR75zYScA2O8Bt3/jd86GCT8dKgCcb+RJJYUKDpddCPAtoQ53mj4wBubABs7HGbgDb+APgkAYiALxIAVMgNFnwXUuAVPADDAXlIAysAysBuvBJrAV7AR7wAFQD46CU+AsuASugBvgLlw9XeAF6APvwGcEQUgIDaEj+ogJYonYI84IE/FFgpAIJBZJQdKQTESESJEZyDykDFmBrEe2INXIfqQROYVcQNqR28hDpAd5jXxCMVQV1UaNUCt0JMpEWWg4Go+ORzPRyWgROh9dgq5Fq9DdaB16Cr2E3kA70RdoPwYwFUwXM8UcMCbGxqKwVCwDk2CzsFKsHKvCarEm+JyvYZ1YL/YRJ+J0nIE7wBUciifgPHwyPgtfjK/Hd+J1eAt+DX+I9+HfCDSCIcGe4EXgEJIJmYQphBJCOWE74TDhDNxLXYR3RCJRl2hN9IB7MYWYTZxOXEzcQNxLPElsJz4m9pNIJH2SPcmHFEXikgpIJaR1pN2kE6SrpC7SB7IK2YTsTA4mp5JF5GJyOXkX+Tj5KvkZ+TNFg2JJ8aJEUfiUaZSllG2UJsplShflM1WTak31ocZTs6lzqWuptdQz1HvUNyoqKmYqnioxKkKVOSprVfapnFd5qPJRVUvVTpWtOk5VqrpEdYfqSdXbqm9oNJoVzZ+WSiugLaFV007THtA+qNHVHNU4any12WoVanVqV9VeqlPULdVZ6hPUi9TL1Q+qX1bv1aBoWGmwNbgaszQqNBo1OjT6NemaozSjNPM0F2vu0ryg2a1F0rLSCtLia83X2qp1WusxHaOb09l0Hn0efRv9DL1Lm6htrc3RztYu096j3abdp6Ol46qTqDNVp0LnmE6nLqZrpcvRzdVdqntA96bup2FGw1jDBMMWDasddnXYe73hev56Ar1Svb16N/Q+6TP0g/Rz9Jfr1+vfN8AN7AxiDKYYbDQ4Y9A7XHu493De8NLhB4bfMUQN7QxjDacbbjVsNew3MjYKMRIbrTM6bdRrrGvsb5xtvMr4uHGPCd3E10RossrkhMlzhg6DxchlrGW0MPpMDU1DTaWmW0zbTD+bWZslmBWb7TW7b041Z5pnmK8ybzbvszCxGGMxw6LG4o4lxZJpmWW5xvKc5Xsra6skqwVW9Vbd1nrWHOsi6xrrezY0Gz+byTZVNtdtibZM2xzbDbZX7FA7N7ssuwq7y/aovbu90H6DffsIwgjPEaIRVSM6HFQdWA6FDjUODx11HSMcix3rHV+OtBiZOnL5yHMjvzm5OeU6bXO6O0prVNio4lFNo1472znznCucr7vQXIJdZrs0uLxytXcVuG50veVGdxvjtsCt2e2ru4e7xL3WvcfDwiPNo9Kjg6nNjGYuZp73JHgGeM72POr50cvdq8DrgNdf3g7eOd67vLtHW48WjN42+rGPmQ/XZ4tPpy/DN813s2+nn6kf16/K75G/uT/ff7v/M5YtK5u1m/UywClAEnA44D3biz2TfTIQCwwJLA1sC9IKSghaH/Qg2Cw4M7gmuC/ELWR6yMlQQmh46PLQDo4Rh8ep5vSFeYTNDGsJVw2PC18f/ijCLkIS0TQGHRM2ZuWYe5GWkaLI+igQxYlaGXU/2jp6cvSRGGJMdExFzNPYUbEzYs/F0eMmxu2KexcfEL80/m6CTYI0oTlRPXFcYnXi+6TApBVJnckjk2cmX0oxSBGmNKSSUhNTt6f2jw0au3ps1zi3cSXjbo63Hj91/IUJBhNyJxybqD6RO/FgGiEtKW1X2hduFLeK25/OSa9M7+OxeWt4L/j+/FX8HoGPYIXgWYZPxoqM7kyfzJWZPVl+WeVZvUK2cL3wVXZo9qbs9zlROTtyBnKTcvfmkfPS8hpFWqIcUcsk40lTJ7WL7cUl4s7JXpNXT+6ThEu25yP54/MbCrThj3yr1Eb6i/RhoW9hReGHKYlTDk7VnCqa2jrNbtqiac+Kgot+m45P501vnmE6Y+6MhzNZM7fMQmalz2qebT57/uyuOSFzds6lzs2Z+3uxU/GK4rfzkuY1zTeaP2f+419CfqkpUSuRlHQs8F6waSG+ULiwbZHLonWLvpXySy+WOZWVl31ZzFt88ddRv679dWBJxpK2pe5LNy4jLhMtu7ncb/nOFZorilY8XjlmZd0qxqrSVW9XT1x9ody1fNMa6hrpms61EWsb1lmsW7buy/qs9TcqAir2VhpWLqp8v4G/4epG/421m4w2lW36tFm4+daWkC11VVZV5VuJWwu3Pt2WuO3cb8zfqrcbbC/b/nWHaEfnztidLdUe1dW7DHctrUFrpDU9u8ftvrIncE9DrUPtlr26e8v2gX3Sfc/3p+2/eSD8QPNB5sHaQ5aHKg/TD5fWIXXT6vrqs+o7G1Ia2hvDGpubvJsOH3E8suOo6dGKYzrHlh6nHp9/fOBE0Yn+k+KTvacyTz1unth893Ty6estMS1tZ8LPnD8bfPb0Oda5E+d9zh+94HWh8SLzYv0l90t1rW6th393+/1wm3tb3WWPyw1XPK80tY9uP37V7+qpa4HXzl7nXL90I/JG+82Em7c6xnV03uLf6r6de/vVncI7n+/OuUe4V3pf4375A8MHVX/Y/rG3073z2MPAh62P4h7dfcx7/OJJ/pMvXfOf0p6WPzN5Vt3t3H20J7jnyvOxz7teiF987i35U/PPypc2Lw/95f9Xa19yX9cryauB14vf6L/Z8db1bXN/dP+Dd3nvPr8v/aD/YedH5sdzn5I+Pfs85Qvpy9qvtl+bvoV/uzeQNzAg5kq48l8BDFY0IwOA1zsAoKUAQIfnM+pYxflPXhDFmVWOwH/CijOivLgDUAv/32N64d9NBwD7tsHjF9RXHwdANA2AeE+AurgM1cGzmvxcKStEeA7YzPmanpcO/k1RnDl/iPvnFshUXcHP7b8ATYJ8U4MJVbIAAACKZVhJZk1NACoAAAAIAAQBGgAFAAAAAQAAAD4BGwAFAAAAAQAAAEYBKAADAAAAAQACAACHaQAEAAAAAQAAAE4AAAAAAAAAkAAAAAEAAACQAAAAAQADkoYABwAAABIAAAB4oAIABAAAAAEAAACYoAMABAAAAAEAAAC2AAAAAEFTQ0lJAAAAU2NyZWVuc2hvdK9Z36kAAAAJcEhZcwAAFiUAABYlAUlSJPAAAAHWaVRYdFhNTDpjb20uYWRvYmUueG1wAAAAAAA8eDp4bXBtZXRhIHhtbG5zOng9ImFkb2JlOm5zOm1ldGEvIiB4OnhtcHRrPSJYTVAgQ29yZSA2LjAuMCI+CiAgIDxyZGY6UkRGIHhtbG5zOnJkZj0iaHR0cDovL3d3dy53My5vcmcvMTk5OS8wMi8yMi1yZGYtc3ludGF4LW5zIyI+CiAgICAgIDxyZGY6RGVzY3JpcHRpb24gcmRmOmFib3V0PSIiCiAgICAgICAgICAgIHhtbG5zOmV4aWY9Imh0dHA6Ly9ucy5hZG9iZS5jb20vZXhpZi8xLjAvIj4KICAgICAgICAgPGV4aWY6UGl4ZWxZRGltZW5zaW9uPjE4MjwvZXhpZjpQaXhlbFlEaW1lbnNpb24+CiAgICAgICAgIDxleGlmOlBpeGVsWERpbWVuc2lvbj4xNTI8L2V4aWY6UGl4ZWxYRGltZW5zaW9uPgogICAgICAgICA8ZXhpZjpVc2VyQ29tbWVudD5TY3JlZW5zaG90PC9leGlmOlVzZXJDb21tZW50PgogICAgICA8L3JkZjpEZXNjcmlwdGlvbj4KICAgPC9yZGY6UkRGPgo8L3g6eG1wbWV0YT4KM4yeuAAAABxpRE9UAAAAAgAAAAAAAABbAAAAKAAAAFsAAABbAAAZr6Y9aZYAABl7SURBVHgB7J35dxbF0scrOwn7vuqLgCwCsiibxwVZRQXxwv3B/9BzvFev557zvio7SVBkU3YCyCKyQ9gUJXmStz7VTz/PzDx7EmSSTOdM5pmZXqu/U11dVd1T1a1BkpBQ4DlRoCoB2HOibJKtUSABWAKE50qBBGDPlbxJ5gnAEgw8VwokAHuu5E0yTwCWYOC5UiAB2HMlb5J5ArAEA8+VAgnAnit5k8xjDzBvaIiek657sRSoqqqyCnD2v/PVKLYA6+rqks7OTnnw4IFcuXpVrv92XR48fCCPHz2S6upqa1SxhuVrbHKv7ygwZsxYGTdunEyZOkVemjpNmoY25QVabAHW0dEhf/75p1y5ckWaW1rl8OHD9vv69d+kpqZGavVIwoujwKuzZ8ucOfNk2ZtvyMoVy2X8+PEOYGnO5msWW4C1t7fLtWvX5OTJk7Jv/345cuSI3Lt7T9rb7xsHg4sl4cVRYNKkyTJ5yhR55+23ZePGjTJjxisyfPhwaWhoCFUqtgCDcx05elR++OEHaWlulhMnTtiQybBJSIbHUD/+7Rd1dXVSX18va9euk+3bt8uixYtkqgJuxIgRobrEFmBt589Ls3KultZWA9nZM2dCFU8u4kGB99eskW3/2CbLli2TmTNnytixY0IViy3Aziigdu3aJS0tLTY8XrhwIVTx5CIeFHj77Xfk448/lhUrVshrr82TCRMmhCoWW4CdPn1avvvuOwPYTz/9JBcvXgxVnAvksEQWyyFLn95APRQ8opm/9dZbsmnTJgXYSlm4cIFMmjQpFKVfAww5gCORx0J92mcXAAt1USqVsoPf0dCvAbZjxw5pbm6Rn346lpeDjR07Vsf8cdLY2Kizl/oEaNHe78U12oZnzzrk0aPH8vjxY3ny5LH8/vvvOTn2X4CpDLZz524bIo8dPSIXLpzPadySJUvljTfekGnTptnYD8i6u7v0yIma3KiAAowI1dVV0v7goZw71yZtbefll18uyFWd2UdDvwXYmTNnZefuPaqiaJGjRw/LhfNt0bbJhx9+JB999LHMn/+azmBmyFDVJqdSACyXleck7tENZx7pUdJ+lAhwIdveuHlLZ/EH5Pvvf5Ajhw/JieM/57Si3wLs9OkzsmPnTsfBjh2Vi3lmkVu2bJFPPvlUFiyYb4q+YcOG5gikailDaWb3jbXpb5PZEF71j+BlOG/vdGnEovPPnjNmDJJAU6uqquX69RtqRWmRVlUVHfrxRxNVoiTotwA7deqUIIOhpig0i/z003/Itm3bFGALjIMNGzbM2u9nPQ4cqvFXghl40mABMJk4HnCa0jifYg7i5kujD9L0ZWblfrpb/r5lYrDNuZ9OqaUUThuJY7lmysw8dD/sBaGuXAbKz0Qrp5xM5Lw/fvvtN9m/v1nl4GY5ePAHHUmO5sSLFcDo1K5Up3QVHcIwZFcLerCdO3fY21MIYFs+2SqAzAFspgwf1pQGCcTVQ8nR3V0tXaLqjCr+69CpfWEcKtTRroN8mi5N021pUvofxKXTpPuxu0vbYQhjKNFnHgQatSv9zIYZ7qfT+J4xGtgIriXo8yodjqLB8tB8/HOfvY9H0b4ObjjLzcM/pwKhOvpM9FxdXaN23drAnfDPfgewrq6UdHY8M5NPuCnZq6qqGiV6rZw9e052794pBw60FuRgH2/eIpu3bJWFCxbKrFkKMJXBurs7HcgAkBK3I1WjYKiW2uqUHeEeB4IE30HlpAFE6umhsh7AqqkBvC49qZEBU6luNcZX6zPu+7ytIHu5Up0O/LX6PJ8ejzzIv0bBR/4ZALss7OWxchSErpxcu6yrIxQQqanVcuDKgUCVa+vqVc1Tr3fDdfTRYg8wrz+5f/++/Prrr3Lr1i11t3kof/zxh29D7lkJAQe7ceOGoGw9r8I9dsnbt2/nxGUWuURnkS8xixw/UYYMYRaZgm1ZXP6n4EbdEFg7rArOwyTAyVV0nONm2axLpQFM2q/GqegWOIgHALCB+5A/HcqzaOBZigw0ZLhcJBLckXwAgeUfAUC2nDLySJdDFnA1/mhDtXqj4HIzeoy63EyeJFOmTFb6DdHy9AWnYA2xB5h3uTmvdkXG8hMnjhtQ8IgoHFzjnj59Kg8fPlQ9zCPVwTwRrqNhrPoj4ZPU1NhkVnzedhdcB/IbcPlQpQDrNKWhDpc6bvD2e2L6OJxDabRDOpXz8rLU2JASdhOy3LNFaNpsTul+yt6wvEOXBqLwncz7Ybfz5cGDSssBWLQB4OLqhIL6f6a/ItOnz1CXm6XqcvOmjBo9Wmpr6402lBFrgPGm4ix4+9ZtOaamHgR2ZCnuobQrFSDGs2fPBJBycB0NvHENekAwAJMPLNE0DB0pPfxbHMBGNGrmOpNGy6hBoOmHgf6gHcZdeblqa2XCxEkyUY/Vq9+T9evWyEsvvSSjR4/JuNzEFmA0glfsqnqinlZ9Fi43AIyZYWdnR1EZzPcdeQSJYnn6h+kzoILVA6xygOKTW149SFMOgH0ZcTwbc1W6Gr20/fXqu9VQ3yDrN2wwfSLqnldemS4j1K+LEHuAnWtrk0OHDttMcO+ePXKu7ZxVPPkXLwqsW79BPSI2y9KlS2XB/HnKxUZbBWMLMKudviknT502PdYBVdQdOHBALv6S6xERL1IPztqsfv999Ur9QGWxN2WxOg5i4yXEG2BawePHj8vePfsMXAd/PCiXL1+yigf/ednJs+3gs+R331AgKm5Ec3333Xdl3br16nKz3LgYEyfCgACYd7mpUaHTFnKobJCEvqNAN5ManSDhas5kybucB0sYsACDa40aNUpGjhwpTU1N0qgHHI0JQmC2H6RF8rtMCrgJSZXOxP+S35/8bjN3VD75dJADFmBMlTHzLFy40Fxupk2botPnOlVkMoMsk5JJtLwUcGagGrl37755ouDuhNs5K7WiYcACjFUpG3SKzLIn3G3n6wxmSMMQVYY6FUWUEMl1+RTAxojS9OrVX1UGblGXG9xuvldV0cmcTAY0wPDn3rTpQwXYfPPrahzSaKaYfHqvHMokNwpSwHSEatPFzIY994ACjNk8y/+iYUADDIdBDjgYij5ksST0HQUuX76s4PrewIVv1/Gfc50GYwMwuIqZTcymlfUaddNgvAucuQYBEyPtiRMnZe/e/caaDx/+UdUUl0OUY4j84INNenwgr7++0ACGf73Lz0d1wyUyWVSV4eI5ozBlZ4MzFnNdbhqfV+E0znsiWE55acImrHxpvJt3obpSJ284x5bo6wiXYhsFDpt755mB9xuAQRgkb6a5f6mN0E93uQ/ocMVBsKTR3oUEReve/S1qKjpoLrdXr1w24vh/AAz9y/r162XRooXqdjNfhijAnNuzi+XyTxnoHNvPGpspk7IdoLNeAHRY1u7m6uTLJA35mydDwHOANNzXRmba4dM4IzHtw0MiW45rd26afDShjoRoGu67dnSbaw75++DiptLtcy9QsF0Aq0FpCB2rtG6+DJ+ec+wBBnE5cLm5rh6Od+7eNS+HPwLeDehacIPBRYWG4sdEByJgnjp91hYNXFIt/t27d4JtN4PrwoWvK/d6XaZPf1lefvllJVadubOAZwsAWPNGb4FzXoiDaLkAA8La/XQn8iKUTpPukDLTZNpH/Lxpwh0cpgngcgCzumm9CQYKPQNI1w5HP3to97V9cCxN6v25gu1ixj1Sl+qPUjXPlKlT1eVmioHNOFq6jshgCPdYUvbrSvmf4zZE4tHw119/mYcplWQxxo2bN8wrwhPCziAi3SjrcL35WN1s2hWY3uWGfIIBjoDda8yYMYK781D1qXdvcD41BYhLd1IwE9OY5btPpBecJkCTUJXzXlRSVxcXJfVkNiGZPFlwXX7rrVW2NwQbkEBbAg4HOBsgh+3bu9c8WqLFv1AZjF1u7irXOnTokK20PnnylNy9d9fWykUrGr1mGH2moOKcHRrCsWDvECrR5IfpUs4VesRxui6UrZM2btxgKh+4GLZE6Epgb7WDAEyZw759++IHMMbwNvWKYPEFS/lxHoQTdShoSgUbJhg+00MCQ0E0OLnGDS8mQ/jhJxoxuc6hAD5tuNw0qk+cmyxtlHnz5qn7+CxdwjfU4puaIj1EsplM7IZI3JaPHDlq4/fOXTvl8qVLOQ1NbrxYCvCSoqzesGGjLkReqhOmRZltlGIv5P/883H5nj26lIM1799nY/qLJWdSepQCAGzNmjV6rJXly5fJm+p2g32XEHuAHT16zBZfMoYfaG3Ja8tyszhmjkzjnXCZbziMEia5Lo8Cbpbp9YHuHEwJzd977z07Vq5cKSuWLzf/euJcZhZJ3+nB+sbYDZHHjh1Tj9QD5pXaAsB0dVAwAC6ETQR1Zi8NakuEIOh2ktA3FGCS5Ncm8Bu1UTBEAbZcN4NjAQd9gwxms0gFGGoK1kVEwwudRbJgA/SzfJytLFl+Fgw0DhUDx4gRI+1wSksmAblCfTBt8rsUBZz6hUkVK6vY3YYzmyMHQwhguhEcuw2i/gFgV7W/Dh48mJlFwjCi4YUC7GiAg7WqHHbtWhhgcK3Zs2fLq6++qvtDzJAZr8xQBaKuR9Q3LRkmo11Z2TXAqVLN/r1790z2ZRO+s2fP6p4R10MZhQCmQ+Ryhkj1s/McDBkaJmGK1rhxMDbibW7Gp75Vx/LWHBkMzrV69Wob/2HNNI71iZ2dzxKAhWBQ+YVzualTOeqqHDvGSNKq2ynszPGIiAKM7SwBGCH+Qn4JDsbW1WvXrrVZDHt1vaErU2rrap0MlkfvVTmZB28KuBfguXz5ihzTyVZrDwBmpqI4c7BSMhjbVuM0iMF68eLFdmBPTLDVNy8Gw9ylXy6JE1VaKuZgmIpiLYOVmkUCMMDlALZElixZnDFT9A2Jk1wuqXKbIZKJFguY2YIhGIoNkbGfRZbSgzFEAq516nazZMkSXfa0JAFYsPf74DdyFOoFAIa5juWAwVAMYLHXgwEwPoaAuy0NjM4iPcD44gPgYnWwN7QGiZD87jkFAJjjYC3GwfIBDFXDu6psXaWzSJSt/UbIt4aZHky3UlQ1RVQPlgCs58ApN6UbIvVF14+CsSlf1K8eDvbOO+/I23rgtgPI/PL/2M8iywPYBh0i1yVDZLmIqTCeB1hWBgsv3CgGsNh7U/ghksYxTEaHyPyzSOeLVCEdk+gFKOBlMDjYjh35ZTCGSOyRDI/BITL2/mBOyHeK1nzG7gRgBVDRh7cBGEZq75OXTwYLGbsDitbYe7Rm1BSq5KOBUWM3Mhh6MD9EMpNMhPw+RJdm1RuAmaI1zj75pRStlQr5TgHrjOCD3VaJEpV1BnYqgkk/RPZITaHcL9brIp0GGRWFelTkMXZXAjDAxbo+XKhTbGeuLj14XnAPYiOsRkPQF4rnrlPCsVwcVurQWe4Ix3DLxYhXqhw8QFihVKgc6u7LyBeH55TDqqrgCihfH19XnrEqCHujW0JXaOGKCEI+ejAng1WmaAWcsQYYxu4WNXZjB8tn7K4EYBD/2bOU+jbh36R+/XpwD6ABnuCaw2yHuPWKdAxG9OC6QR/HrSt0AHP5hIFKWh+H9PmA6utBnj6Oz9+fyQNfLMARXBrmn0fLcZsSh4Hjy6GMhga3eXGd2m7r6rLrIX1+/gzAkIVb1R+vYmO3bR2QdTiM3crukLtOHofDcgDm/MN0baXu9HJKPxFz/sIv8ujhA12Z9DDDKXrLWSijGAfznLI4Z2HoLs7BSpUDgFwexThYt8mpw0eMkokTJuqeHHPV3WmW7WLNnrPRcOkSmvysHqyUkB9118HhsDWu7jpmoijicFgOwLr0rYdb4c/01X/+K7t275abN2/Kndu3jBPgETvYAnuhjRs3XubMmSOfbt0iG9avC3wYIUyNioT8/uZwyCySL26hA8vnMl0OwJC3+MIHS97+/eV/9CNXu/SjDDfl7p07mfWQNrx4GUnlKOMlxg2UL6XlKrdvmPuQAPeKpkFe034qmUbLJB+CX2ldSRqGWwJpNKNMXX3dWFrm68o9V5Lo3v6NMm78BJmrANu2bats+mBjGmANll/wX0UAUz1Yv3KZdnqwFgUY4zgereENzCoBGBugffXV18bB2IIAT022zYSD+S0KbOsBhgntDO7RIcg7dJTFUdBxTTqu+bACncw1Hcg1gWs6lmuGLa5J59Ow3z3XPg1g5DpfGvfxBj7E4NIAJvLxaTSRXbMOlDyoD3vxEyeahvIIbPIyXvdCnTNntnKwrbrsbH2fASzkcJhe9MEQict77BZ9eE1+b4zddHAq1SE3b9yUgz/qdwd11x37isfjR9YBdIi93YF9JnjXrTO0P+h0xwXcDM3P8vKm0RkpwfaxUAggMxGvYBp9ZuX0JI0iDOBraWWX4+qMDNZgS8um6p4SK1Ysk8WLXldu7maV1D8Y4GCljN2FFK2xn0WaHsyvKmrJXfRRDgezDtSOfKqLFe7da9d9LR7qwoWnukL8qQEHYvoNU3jB+ZYP/YZATkCNwX2bzustOIhiVjvX3SsrjeYB9hTLBgp+O/WIyyNYDnWhfJ5n0ug9yuxtGmhBHm4W2SjDhg7Tpf6jdRXQyMxLYI0O/Lt0CX+wrJCfz9jdfwGGo5uqKFDy9dabAuLyJTL7UphyNGQzHwAPHUuHupkYXxpLA0zTACquiUcerpOKp6G8alQbmg2gDafRa80HzlidLod8mQHCUYNpDPwah/TEgWtZGo3OUEhgKASUvhyXRj8gaNybPF1dtUrpNF4PxtCN+sW11TKL/PMAK2bsxlXnPbVHrly1Sr87lPXJ7/fG7nI4WJBe/g3m7Kb87qkbBk30siGLzlI+wj+7pmNy4zhOwzPyszT80+DyryANediw/PekoWF+2PbtcpTI/c8wl1W05jd2467DsSrirpOxRaoMFsvNT0oZuysFmO98d84l5mC5k34PeH9AdNFmlzOLLOQPFnuAmbE7rQfr7RAJFR1nYbhyv4tSdgA/BFJMRGxkVIDBxQqFcgBWyKN10Bi7ARZfWnv6x1MT9js6+PpEeAl8IQIPtPsM6chc9Woeqm+ot42Ph+ju2oUw5ofIgWvsVkc39Cg9NXYj6PKtbvRemIouXrgojx4/UVPRk4GGnZLtcRy8S9UUuv2l7oAzadIkNRUtsNXxgC6fsO+E/J6tKgKcMTd26/S4Wf3xe2HsZrbYoZp89hb73//7VleKt+iXb+/Yzon0SLHhoWSP9bMI3mDe1NSo4Josc+fOkw8//Ejef3+NKpyZWYYN9TQPgCXG7iKritxWmn/ap0y+/vq/snvPHvt+9x01FZlKAOXUIAmegzXqZ6AnTlRTkQLsk0+2mtMmXI0jGryx26spShm7g5p8ZDC/u84+djiM294UfWHsZushdoQ5d+6cfPHFF/Ltt985Y/ed22ZaGZTGbgXY+PHjDGD//Od242KNjUPsw+xRgJUj5BdStPaLld29N3a7z8ndUFPR4cOH5eTJk6rNbzdzUSkOZrOttPSrsrHNQn0HmP7IJvo6K0VyTodQmrR+K/OMGVsP0zg9WWXlRNP4erArEdtdsWnvsmVv2gfB2GONIxp6A7AgB4vl/mB9YexmWCDAxfgoPHZIfkf3uYoSlmvTmqc9TE0rbn5fLibac/aPJ/9U2uYYTpPWrPciDWDlJajRctijPqVl+fZk6xYuB+DzjDTUC/D7NK7maoxXAz8G76amobqGcZTtqWovTPpl8vE49wZgfmV3fI3daRtYb4zdnlgAhH33/Ycxkc1KBceN0q433gCeTkQn0il0Xi4HqzxN5mMHZZfjgER1DESazgcHPkxf4bplnitoAZnnWvk4l48LwEoZu00PpqaiVWoqWqEuO6P7y/ZNfWHs9oQCCAYGBZr/7Z8VO9uQpkgjTTAAPlMekW/wAbdtGNQ0kSdxSOOq7V4O43YKNs6FgrdFDuCV3X1j7C5EwOR+cQpk9WBub4p83hSFbJFek88QGct98r0/GFPkfCu7e2KLLE7O5GmUAgyRpYzdhbwpYm+L7CtjN8Mb8pf/bhHy12A1FQEgNPbIYEP0Kx2sjh+uW5HacB9Fl173RsiPPcDc5ie9GyIBF35UmIrYPO38+TYzEz3Rj5UP1oBCFe4/SZWtfG1u7ty5BrB8slhvAOaHyMwmwHH72lpfrOxm9tjR0WV7tu/Y8a1tZntXl7C1t7crvhB2EeCBGv+ceJ4jtEfjRK/TqcnFB8Rml086375IE8mDskqWE0lDfFQUY9STdeaMGfZBVpwFWbKGSiQa/BA5YI3dzF7Y4bhVz9euhbcxL0cGYyhkeGxrOy9ffvkv2bVrl9xXcD1U12mvaDWDuALRZlXq4QkyuAc0nLeoerKyEly9SnPSmJE4vVBE0xBIA3Kx/WXSaL5d+tFR8jVXGV38CrLxSqXTrXNJo4s14Lq55ag+TPM1jqz58iq4NFpXzdfSaBmoOyiDfHlOGlNXBNIMUa39SFW0zpo1U7Zv367fLd9kKov69FfSrBHpf1khv/ItNAHnCzV2d2nLi8yQ5Qg7HOqWAb1ZVYS8hVL1zJkz8vnnn8s333zjFn08emRyCCtxWIHDYR2i125Yde48ttpHQZRSoBIH2aWsNNow4tPZxK+p1XI0j041vtcouLiXU040TbputIH4lE1+XPMykCdAC5VTKo0+R5M/fNhwmakA++yzz2Tz5s0mjyGTRQMAQxaGgxXagK6QqQhFK8MjB5+S+btXdv8/AAAA//8lLsMLAAAc60lEQVTtnYuTVEWWxhO6m27eT3n4ABvfSqMIiKAoCBiKhszGqBM7ERuzf9pOxE7E7sY6O6+YmRB1RJqHozQCI46K0YKg4gNoXo10N+z3O1lZdevWvXXrBV1FV8Ltqrw3Tz6/OnnynJN5J10dGbve1TnZpYWDBw+6/j173Z49e3T1u5NffVWUdObMmW7btm1uy5at7vHHV+l63E2ZMqUozbVr19zo6Kg7ffq0O/Dhh+7o0aPu4sWL7uLlS27y5Mlu8qTJ7tr1a+76tetu0qRJbtLkSc5dd3aPjHjuuKXnpKuXhvqQZ7lyrl9XXVSPULdAQ9k8I06dQt0srjpn0YR20kez1HdLFi9xq9esdiv6+lxnZ6ddRZ2nyODgl+6jjw7aGOzcudMdPny4KAl1evbZZ+168skn3RNr17o5c+daXx4/ftzt37/f7d2717333nvK56MiWiLPPPOM27p1m1u37gkbvwULFliaU6dOiWa32717t3v//f1uYGCghHbDhg3uxRdfFO2Trq9vhVu8eHFRmkmXh0evT+3pKLoZjVChPaocAOtXQV/VALCQ39WrV92FofPuwoULbvjKsBv+6Up4NGE++aGNXB1xnR0dbvas2bpmuZmzZ7kZAlta+PLLL92hQ4dcf3+/e/PNN8sDbN06t1YAm5sD2AmN1/vvv28A27Vrl4NhxMMNBdjVq+JgXdkcbC8Aq5GDhQaNjY25n6785K7+pGvkqhsZHQmPJsCnOLM43jVxYfoBrtPT3eN6erpdtz6ndBdz/WiHVAWwZuNgavB1Gp4WBgYOut365ezVNLl3r6bIkyeLklYyReYJctMeU8x1TTE2reQf3tpfbOqno3XRfgIgC/f5TAvVAmyduNicOXMsuy81Re5jBtLFVHdYnDAebigHU2N9a+Ol5uIDyGD9ewQuyWD6PHmyehksKWsrtnzRSWSte08AKgeicg0DYAcPSlTRDFKJDFYEMNHu3bdPDGKPMYqmA9hByWAIiICrv78+GaykEycYwEraX+GNwcFBCdheyH/rrZ3uyJEjRZRxIb+1AMYvB+7FKlJTZc1CvsD0k2Svs+fOufPnz9t3hP5JWs1N1moNjsaUaVOGpg7dsHtgkOd6YNMq6Sbp+WTFNbvbvRIadT/PK6UhHyYo4zBJ5Uhuuq7Va7QcZClfhJdfeU7dwrTHc08TbR+ThZ8wOiTkd3d3u2nTptl0NkvCvpVfBB0fAWBRDpYEMKa5Z7SSXC8ZjJVkmCJZRe4TB7MpUqtIFgvxML5TpH45TJGADDZb0xQJEHSdPXvWffLJJ+7YF1+4M2fOunMCG0vzDl1jY6NuTCsswMM9Jbe4KLXi6rT7PEdAztMoPiq6jskdlgcDShqGkDSAN5FGaRhgykUWJA9NYIp32CCPjo7p/pjS5OpGOXEaxQEEeQA0nqNGIQ/oiFM25VAXfjyWhoYp9PT0uHnz5rolS5a4hx580N177732g0gCGVOkrebV/2mryI0bN7qndaE2AGSsIgknTpzIqylYRd50NYUG3rfYqlP6B9ZcL8DoXDr75KlTjkZ+IF3YD99/73788UwBLAIOaeAADBoIY0AIDBr6Jhu0HMAYNIAxJjAEGppCHp6m07gYNNcAi9IDVJ8H5eQGPkbDAJMHdYYGgBCHLg8WAZk4oKQeICyVRnU3gI0VA2zatKkOfdPy5cu9/kqC+WRAryseKhHyWxZgxprrnCJHpY64cuWK++yzz9xvf/t/7u133nFDuakSLoNykl9/fhrSPaYSphmCTZEazDANhWm1MA0hQN9sGilaVaekuvn2+CkTwMKVAT/cMgSmx9la6cG5Xv35z912KSun6F5cSU36SgDWslNkI4T8kZERNzx82X366afuf994w7399jumbEWbH0KQgYoZKncJTJQMJ8zCy2vxOKl8qJwm5OFzhtoDmm9p5TSKpkuafFQ899xzj3v9tdfcSy+9ZDIZwIsHAJY1RUY1+S0l5DdCTeHljxGZir5zAwcHTA47d+68G5KwH0KHOFAQ9sfEuYQjyVYeLMTFACxOGuJcPDeaXDybRtMeU7Do4H7lyoELkYaLMpJoAJvnor5ugNJoVNlkGnEy/SMNnGr27NnujjuWyDyz2vWtWGHTY9IUOTgYhPw9pqY4cqS8qailAHbAZLDGKFqZJr//AdnrR60mBbChCwFfko80iB2ySarzxySvgDDu8W9UcVZ6nXrOQBMfHSNOGgnyouEeK8cO3YMjkUelNOTBwJMnSKYeWeXEaYgDSsr1ddNiRXWJ1i1KM6WrS/bC2W7e3Dkmi82bOy/fF/EvAKxmNUWzK1qDsbsRpiIE48uXL7vLmi6vyGT005Wr+b5kcPTfOFVQG8AFCMT13wBkXMLicLkyNAIdHAbQ6b/yUN76U7acJBqV5fPwU7PVTfmZGoS6BRrVldpaOTka6s/zKA11oh4I9JiJpk7tcdOmTtPnVD1JDoNVGrujHGzcjd2SeWhzamiksTu1kPaDsj1QiZCfJoOhphhXY3cWwAIHq8ddp2zvtR9m9kA9AGt6DtZIGSyzJ9sJEnugHoBh7MbUx3VLG7uZiTEVob0fkk8Y372pCBlJ0gsCzAQI9AMXq0XcdaZPl6lIq8mZmIpoP30RCwCMmYRZJM3YbXowmYvWr1/v1qHJD94Uom0NY7caV7PDYa5Th4aG3OfHvnDHj58QyIbceTke2nJeK7CJEhDwx6RwRd8FCBYuvM3ds3y5u2vpUvuh2Y8t1hmVrCIxE6HN3yCAAbJgKgKczQ2wBhi7MdWMjoy6U19/rV/hXjPcnhvyRm8AZiuyhF9urJ9viSgAY1XZPUUAmzfHLb3rLrMfrl69WmoNbx+NNxSAFYzdb8mbolQPBrg2ioMBMIzdAWDB2B1cppvS2L1bxm78wfbuqc3hEE3+leFh909p8t+QJv8t0+SfdxcvXPQzwgQBlwFH4CKgaGVavFea/Nekyd++fXvdmnymSZsiIw6HrWHs1vTI/F+rN0XeFvn55+73v/+9e/fdXd5UlAMY04KXTRJFEBuQ8IfxAY/jR4OMVFazk1A3r4ujDbSTEAB2z/J73M9+tsM9//zzdi/NVFSxT764V1QP1vQAa4Sx27wp5AVx+jt2FQ24jz/+WD5hksHOexkMbwjS+M735h8GASUlg8lzAs+5Z9NqjoY4YOMeIU5DHLo4DfEg71C2IFuURzkaMILhPU5DXX1dfHtCXbkXygptMBlM7jp33HGHW/XYY+6Rhx/Oe2/QjmioZxUZpsim9QczY3du21q9Hq2XLl0yn/5vvvnWONilS0yRBRukBwveE3gfABbvfRDA4MHit60xYH6wvCOgp/EAZHAKNMWOgOVp8JH35VJ+IQ9ASjnFdfXlpNNQf+pFPiEEgMHBcAqcP3++tnotcrfddpuBMAAxpOcTgN36xu7cNHnyZO0++chieFAAtKvaukWcAQ1gYVALcbpWN3IhOQ0Dn0bjpyUGtDhNaTyUAUei/BtBE8qwvAEeago5Hfb0TDVVBaYigyEViIXBwWwhP02T3/SrSIysDdtVFOu4iRgFYIZ4Gi8wJXGseL8AsEYYu1EzNd0qMpiKGmHsjnfcRI0byAxfpdwqqU/gQlmK1igHa6qd3WpsYR5KaF2jjd1BrsooNqEmt+YtOFi40loIwCpeRTbbzu4sgOFwiHK0EcZu21V0FgXrkLlQEw+dC+CislK0s+PPfNyv2OJTDAsBQhCs42lL417mqpfGCtWf0vxL20UdzVQkGcxMRXPmyvlwVsii5LMqgElN8cQTT9gCgr5pDWP37n7bVbRPytZ6dnZzJsWgfJvY+oapiDhAYKVFp8Pd6BQc/kIAdNxn4MKKjDjpA20hrc+DOGnJCwfAYtricnjmuapXU5SjCeUl0YQ6FOrmV4/xdnnagkcrGz96e+92d955Z8ii5LNagEX1YC1h7GbTrR2Aon2Rtawi2WqGsyGntbBD6aBOijmfOwSFAWXgQscrmudq9DT3/RVXGwSdU0GOCWmhI19WhX6jSIG2UE4QsH3+5WgACXTRuhIPNL4sixrw42mhD+0iFc9RU8zS4ScAa+PGp+3AEria7VLyWeX/ViuDFQGs6W2RYWd3HcZu1BF4sn7yyVH3X//9P7a376K4FyqL6OD4QWPg831rX/xY+gEOT8Ighnj49HkEgDGYPCmlBXyhnEppSutaKCeUb6Wp0NK0xeUBME7UuU+7iv71l790O155xUxFqC7iYXCwjlVk0wMMGYyjA9CD1bizG+6FvHXsi2Puj3/4o9ulHcYXtOGDKTIEPyAeWX7APYcIzwuAIE2B6xSe65sQwz+CUgR08SAHpkDrU/C3iMbQGMqthcZyLPqT1i62qM2aOcv2Re7Y8YqdsdYlP32AFw8ALMvYnbVt7ZY2dgMYZJNvv/3W/f3vf9f5VkfML4wjBEJgIJL2D4bnfPKcdHgkeFNN9ClYARTBrBRMTz6Np8VCoPuqSwiNpgn5hs+0dmEqQpPPFMnBb4/JXERaZMd4YIrM0uS37MZb29md0+LXauwOHeaF/EHJcac0PV4wjX54BjC4AKMHT+Ak+RR5AHm5qgCSkMI4VW6ALA/jSDwFeDkA5xYM8DgLUVAa8EK5ORqrUwBroPFAh96DNdD4LKN/09rV1aUpcsYMmYrmud7e3rqFfHPXkcvO+lY7OqARxu7Q4cFUhDw2MuK344dnGmcFP4XxLY8NIgQ9siS5NCXPSZLPAwKAyqcPhWdp90mX9iztfimNL63wN1qupc7VCU7V1dVpchdA4xCUtAAHy9KDcfDJs3LXwRcsfviJORziMt2Mh5800tid1oHt++V7oJIpMqrJb6lVZJgimR4R9GtRU5TvvvbTrB6oRMhvaYA1ytiNfIVOzCsjS4/QRE4i+FUkU15a3FJZ2vQ0fi4qPA80yFZGWkE5YY5tPA318opj7SKX/itJuPe15JTpOtQUkZ3dacbujRufcVu2btHp1DplevXj7jYpfwnoLTmZmsOH2VuJPTQeMk+Z1mCGXozTWryRxm5kMAR99F+cMs2BwCHQ4QUhv1QxSTW9wByUp17XVKDxVoACoJCbbhZNME1VXjdAhc4L2YtDUKZPnx66ouSTKbIaY3d0iqzEVARInt20yZS9j69aZUcZUImvtYcCgDFzHThwoOR0a9LUDbBGGbsZbIR7Kv3taTkcyps1qgfjFxwFC5XnDC8CHA96/4tnO77nfuVpxow2CkrofB7eNOVXqwXVAJtTCMk0HflyA/dhUUCe2TRjlidlB5quKV3S5M/SIXTz3O1LbtfuooVKk2OtlmPhTyVCftoUWcnO7jU69hygrBK4Hnv0UXOCpPRvvvnGwMU5+5yqyOGB8VA3wBph7GYQ4F6w3N39u91B+ZgFThYq7DuXDvach/sMNAFwcZ80XMS54nHSVk/j84TWA85PzeXLSaYRJbmk1C3Q+OcoVOFcd2AqetqbilC0ppmKslaRaQALHAxlOdzokCwz8XCndjbdvWyZuW/ffvvt+RUtekroASmM4bvvvouT1s/BbGd3ncZuwMXJOvji/8evf+3+9Kc/ec/WyPlgJTW/xW+YqUjqifvuv9/9+69+5V599dWch2upqageDlaJsRtgB3Dz6TmtnzkYu3BhkYmHBnEwVpCcNF27sZtKfqGzWX9nu4retRMO2eE9UQPy11xt+mDb2iuyQ27dssVxKB0DHA+VyGBFO7vlExb2RUKbtfE2iA3hE+5NYJYI4kj4jNetboDlTziUoFfrzu5Q0W/EZncrn4EDAzoj7Ac7CDhe4YkSR7hH7urtvds2y/KOJ8xZgXtE+6GSVaTt7NZUy4BXu7ObsgKoot8ZtxCi38M9PusHWHA4lC8Yy9VaXoaln4IkE2c+YMeOHbM5/QKbPyb0FKkzWuVkyG6i3t5e2+GtUS4a6DCQlejB2NUdjg6odmd3KKeWTzjnK6/sMCfHBx98wNoTzWeSkFmAafRJ7rvf9FHfzu6QbTiADnkMfRjXRA1wKlQVyGLsKOrp7oaNJHYH01yWsRshP5yTH1VT5Dfe6qz8Xe++a/kkFlLjTd6y99rrr7s1a1bbD2Ve7vj0kF1FAOvXtIYupF5jdyi0/VldDwCwmleRHECXe51f2jn5AJ3VK+f7d+rYdVbD3qGg4Kh5LebBMl0LlJm6Nm3a7Hbs2OEefuRht/C2hTLgF+vzMgHmjd34g8ltukZ/sOq6s5063gN1AYzzwXhXURljd4846DRdcNKpOs4TeYzZhrkNwMFtifOCihCWLlvq7r57mcl7m6Wkxe0I+riaJRtg0puwguTgE2Swml8lo5oxG4epMXzSGM5Nbdag2qmDdUknZyYd/dqjAvHNqHelUyTTJPJXdIqENmsVuXDhIr1xZLHkp4WmxceViFU/44XHRwAYL70IYZnAhez48MMPuRU6IZujqKxfYtN8JsAaaezmbRjDOmVn+PKwHQR8Wd9BfKca0cyhW3JSd1e369GBvfzCJ0c2pdyMelci5KcpWisB2MqVK2WDXK1X2jzk7pdeDgUw3AojBT8u/4OSYtuWar7FM2fNNEsE6hCsEfSREpZ0R0UAM2O3WGytxzfxS+C6rCMDMD98p/Pyhzj8RHZJU/LJbNKsAQ7G9DFdwFqkX/mS25fIh6vnpnKxStQUqQDLGbttiszY2c12N9QlnJdhx8DnfDrBjWZJcfHCKAXv4sKd5G+ZAPNGVu+TX+sbb5kOYblseXtP7yrCcMq2NV7EYNMOtW/SwK+XX/TMGTPdU09tcJs3b3LzF8w3gTiYpW501eFCBZ/87Hd2R6fIYCoKPvmsRuMBVcNWvbPbALbqMbVvgclf0XT0Q5RBGdaiN6KJI9+zAdaAXUUIiMPDV+xl8L/5zX+6P//5zyU++ZE6NdnXSdKKzzH/+V/84nWZdf5NAu1dmtan6FftjfE3usIArJJVJEBBBgsbb6lXMHbzSr+0VWQBYGt1lNQqyWJy1zFARVhWjY3MBFiRsbsOUxGn6Rw79oX7wx9+5/72t7+5M2f1Oj/t8kaAZJ7nWEmWwiU/nRob1igyfrn8oufPX+Be2v6C+xcdFrdo8WLjvDeTg2UBDI36hg1PyadrrVu7Zo1+ELOtC46f0EvhP/jA/Ln27dvrPv7HP0q6pgAwpkjvruPlrpKkVd/IBNiBgQEdf+0VrbXu7AY4o6PXbAX6zjtvq7H73Q96ncyZM2ddl73urkOvX2FzbthcUXU7bhgBHb1w0SK3aNFi98zTT7ktz20yodYGoIIpohEVy+Jg1GXdE+vEuda5NXIYXC05ivcgEU58ddLtF8A++PCAG/jwA72QrNTlJgCM3U3IYOw2b1TIBFgjOBgCPiA7d25IBu/PjW1fkm8Yq8k8B9NzDKplzQqNanUV+TB4bMqYIRmst/duGaeXmzuLAayKfOpJOpjxKhnqskzuNsuWLjN9FKcmsjBB/UOfH5eyleurr05ogXW6pCrjCrBGGLtDi1iZIOyPjnodC8BrhcBUyDRuK97Orpuut8taRdKHeGew19LUPqh+TDPvnSQxzbHxmYt3E8TD+AIsGLvxppCytSZjd7xF7XhVPQDA/Coy+XV+ZMZMwIo8BD8z+NU5q/jgbsNnPIwrwLyxW6/zq0MPFm9QO15dDyCDlTN2k1t8yo7Hgy4yqeRxBxjG7va2taShuTn3soT8emvx3HPPuRf1Suc1Wn329a203eb15hnoM4X8trE7dNX4fd5ogL3wwgvmEcGmjwceeMB0fo1qbRtgjerJG5hPmCI5W23nzjcTt48hf3EFIV+TplSKpfJWtJree2KqvQTi5ZdfNnDhFVFuC12UvpLvmQBrpLG7kgq105T2QEHI78+9s/tISSJzWsRmqv2VM6bPMJkM4T4NZKyM2UGEbZVdTbjcLJYCGT+vpH0BJQVWeKMigNX7rqIK69JOltIDHmAH7XTIt97aaXsUo0kR6BfI9Rr3a1xvFumCk42NjdrqMZo2fGeViU/XUr3lbWVfn+2HRN+HEbuRIRNgeWN3PT75jazxBMyLKbKcsRuA9Qkk+GU9KJcbfOPhZOX0jNCYEV+bfzkqAHDCueKrz3q7OxtgFRq7t27dqp3Bj5stCz/zdmhcD2QJ+XCjvLuOtqytlT0SPy0Di4A0niETYN5UVG5f5CwJidvsCMjHZIlfJXePNsAaO6RVASziTdFoblRLqzIBhrG7X8buPZoik4zdnK/Aq+i2bdtmx0ByFGQjhcRaGnWr0eDTVU7RWsTBBLCoP9h490UmwIqM3QmmIgTDTVqBwKJXrnzUPfroSnOBtnNUx7t1LV4+HIi3AfMK6sOHD5sXCj5dR48eLWpZSwPMfjkyE7FtLWlnN8Lk+vV+N3Ff3wqBbKW9SWxMJ9WUEzKLeqgdSeyBDslWHXJqZKPNYR2cjCcwjoOff/5ZUfqWBhiryH7bVZRs7EbeWr58uVxZ/EG2KOpo8DVOcy7jLGHP5aLjNxWUWxrnHBHlyIPu5mbKFeiQriXU0dv1UGLKjVheFojRpOMfu4+oY5w2SkObCdBwGk9oV5yGdOR35swZgeyk3JyO22F08VNuWhpgWcZuOjO4igTNsHWwdWEKwnR7FB2N3HeCBtpGyWiK/zDVmjeABpuNodHXzBSnbHDM6igvBCkr43Wk3tSJ0CF9E3AJHgvE4TzEuXgvJC97x4vBaNRfxAlGo3Z1ql2AhDiOl/ZyeKUJPyZcbNiNFdxucHmKhpYGWJZHa7ShDASNrSRY56rTs2j45Zsjoj7Ju9L8K6lDVpq0OlInnhGoPyFexwAo6ksa4lyAJrQhi8Yy1p9QHp9JgfzwiAhHB+CXzxn8zRAyhfxqAEbnhV9ducaFjuIzi6aatOXKrPZZuXJ5Fp5H28u90J6QJv6cesTvpdGEdCGvtDYAsLQXMaTR3Kz7mQBDuNyvA2DZ1c3hGcgB7dBcPQDANm9+zm3avNneGrJ2zdr8po/xrmkmwD799DNbIu/a9a7761//aofIjXel2+UX9wAAe3H7S/Lp2m6K7r4Vj5gZqDjV+MQyAcZmWYytcLC//OUv2pXyqfl1j2iv47iF3BTlpxCJ2H5RVqiORBU/hfkpS3NS5FluemM6hzDyqJCoSb/F2gWwpkzp1nEGPTmAvaSt//e5Xp0bMW3a1KZoRCbAeO0eu7APSdHHIbKcNHyarf/jdPwlqgBWdgjZtkBgtRVDCSoQ0gAyv4go+KrjYQAt50uwKo3TNsWopFQi3i7e2LZIpyQuXrxIQr7OB5Ogj9Gag+3wpmiGkAmwIGB+KS720aFD4mCf2RaoH374UfUPq5ooG4jfC/HQ3JA2fp/n5Z7lngs0/iihEb9zhl0+xqFCfhxz7l+AyouqOuUhAJBCYEcTh7CY+gAVg/RMpe0IeQWq6GdaHdPuQ5v2LO1+Ek1pu1ALLZPLDSdEP6rjxzmCnJ1FjXa5iba+2u+ZABMbMBjBxU5rTx1KP7gXZ977aUjdxwDTVxoXu2dR33khTahYfmVkicNdfZahCakCbVjyM0VwEUI5pDEuJ3BRd7b3R4+HMtWAqQuSaaN5WcbRP2XqGOpmvRXFZ4NoktoFl4JbsckWTsYGYTh2qEu06uP1PRtgaTUDeLkrnLRi8Zyuh3vhOQNtAbknd8FdAih4ZveTaDylJ9fzpM4L5QBpew7gKwxRWhH730muXfEsUutYS7uqoKmlXfG6j1e8doCpxgEgNpzqsBCnMTbQDBSRKMD8Q5823M/dS6ThGSE3+HyWhFCOJUt4XkIQuZFAa+2I1i0kz4GC9tTdrkh7SsqLl1NLu0Kdx/mzLoCNc93bxbdAD7QB1gKD1MpVbAOslUevBereBlgLDFIrV7ENsFYevRaoextgLTBIrVzFNsBaefRaoO5tgLXAILVyFf8f1d/UCQDQI6MAAAAASUVORK5CYII=" parent="irreTRPkPW1s-mjHIozF-47" vertex="1">
          <mxGeometry width="58.46" height="70" as="geometry" />
        </mxCell>
        <mxCell id="irreTRPkPW1s-mjHIozF-46" value="Terraform Files" style="text;html=1;align=center;verticalAlign=middle;whiteSpace=wrap;rounded=0;" parent="irreTRPkPW1s-mjHIozF-47" vertex="1">
          <mxGeometry y="70" width="60" height="30" as="geometry" />
        </mxCell>
        <mxCell id="irreTRPkPW1s-mjHIozF-51" value="" style="group" parent="1" vertex="1" connectable="0">
          <mxGeometry x="215" y="130" width="130" height="90" as="geometry" />
        </mxCell>
        <mxCell id="irreTRPkPW1s-mjHIozF-49" value="" style="shape=image;verticalLabelPosition=bottom;verticalAlign=top;imageAspect=0;aspect=fixed;image=data:image/png,iVBORw0KGgoAAAANSUhEUgAAAHEAAACACAYAAAA8sIZsAAAABGdBTUEAALGPC/xhBQAAACBjSFJNAAB6JgAAgIQAAPoAAACA6AAAdTAAAOpgAAA6mAAAF3CculE8AAAAB3RJTUUH5QQcEDkEcN2EpQAAAAZiS0dEAAAAAAAA+UO7fwAACq1JREFUeNrt3WuMXVUVB/A7j77baUsp2NJSSpFnpVNpO/eetdomUgi2UIwSQSkBBQENwSiVh4iuP6GC+AJEogWBRB5qDEIMUFMeIgk0ASwoDxWEFhDkIY/93/fezgzt9UP3nd5CH9N2Znr3zD7J+jKfzt2/OXvts8/ea+esUDoUysHWWmnIpSvOC8p2KC+1fHkaxA9NLRInYgXKDabuJYg/04T7mHJIapn4EKtRNuF9pvycKSdavtycWig+xGr8z5Q3QvyREL+ntVYaU0vFh1iN56G81MQXIH5Uaq04EStQdkD5KITnmnC6KdPgJ0LEarwL5Z2m/JKJn2L5clNqvfgQq/EKlDdCuRj58tj0fhknYjWeNOFVED8X4gellowTsRImCh424XdMeXBqzTgRa/PlClOebfnyHqlV40SsxstQ/h7KhdZaGZZaN07ECpSdUD5j6q6H+CNSC8eJWIFyA5RFKB834XdNuV9q6fgQq7E+5MuHTXma5cstqcXjQ6zGBwHzDxA/z1org1PLx4dYmy/fMuW1EL9/av04EbtypgnXmHCpKSeY+EbLlxNGZIhdYcrHTPxnIX4c2tY1WWslocSGWBO3Wlaca/nS0PRUxotYMXXeMt9mhVKDtVbSV5IYEUP3+hkT34RC6TBTHmT5clrvs5XLMj/ClJ+oT0RlM5TLTLkS4k+Cct/0ZNbgtVaaTdwhEJ5lyifqGfEH4W/vQ3m9iT8O4vdOPSenmvAEE94VviJVYkCszvy8COXlJpxnytED7ukruPEm7hgob4Dyv2FqsxITYteSSihXQXmhiZ85EPKlZX6kKRXCZRA+GyZMNmuX2BCr8Q6U90B5JrLifv0xX1prpdkyTofwQigfhtJvrT1iRazGWihvNeHnIX5sP8p7k0z5FVPeCeXb22uH2BGr87HPmvBaE8435bCI816LZe54E/drKNeEDweVgYBYDQ/lY6a8zLLigTEtqbTMDzZhmymvgfJpKNftyG/vT4hdWxCgfATKs2x2x9h6nou11kqDtZUnmjhA+QSUbmd+c39ErMarpu5+iF9Yp3mvGcqvmrqHwj/eTv/W/oxY/Ri91oQ3m/LwOsp9c03cvVC+0d28N5ARa98vX7CNm2nH78bcN82Uv4Dy1S297yXE7i3eKkH5N4g/yVorw/sw940wcedD+VJ1qqwnYyAhboZp6u6D+LkmbDJlj+8ngfgGO6KzBeJPMXVP7OiIMyF2P94x4XJTzjDxQyxf3mVMUzaacjjEHxXyXqm3f8dAR6zGi6a8AOKnISsO2ZmdXpYvN1rGEaacbcprwyR1n9x/Qtw8/gLxX7SsOLm7O72stdKArDjMxB9swqVQPtfX953riSFuP0KsjmRvh/BoU+5lysZt5L1Blvn9If5UKB/ozby3HUT3xzBqSoibx2tQ/siUcy0rttTmy5D3JphyIYS3Qfne7rzXnM3qbIHyVCjvg/LNhPiR+DvEnw/lDCgbTFyziZsP5U/Dh+rdfo+bknKhOBXCi8O3K5cQPxL3QNkE5RgoH6+ne/vw8HgIhHkIr4TyyZ6cVegHiJUw3zm+3u5ra9NDoyFcHNZz/DshRogYhs5NyIqToDwFyju684U5IdYZYs1L7GCIPwzKr0P5UNg8mhBjQqzJl6MgnAPhJVD+KywjTIgxIdbky3HI/AJsXErwTkKMELErXyonQPxxEN4d6r8lxJgQa/LlIAinQHkahM8kxAgRa/LlMAinmPjvQZ1PiBEihlyZs0JxBAqlmVDelBAjRAy5Mmdz2huQFUcg80dD+Ejtxo+EGAHiFrrZMRCeGTaCtCfECBFrutopEP4w1EpdlxAjRAxd7WBkxQKUt4SlCx0JMTLEmteSURB+Aco/QfnWh1cWJMQIEGvy5WQIv1Xz/XJDQowMsSZfzoDwKij/CmVHQowQMeTLoVAugPJmEz8PCTE+xJp8Ocby5T0gvikhdr8Oe71ud26AclFYvNWeELcaz0F5dT3vnm2yzLdBuAzKxxLiZvEfKG+FuBOsUKrPwvlWcA1WcIebcira1o2G8mgIfx72sQ9kREJ4D5RfNuU0U9bvlnYIGyE8D8o7TNyJli/vgcxPhPBEKH/TGx+j6xyxHcpVEJ5vmf+kZb7+6/dA2RgGNp1Q/sPULYf4T9mc9hYIPw7hGWG9T8cAQHwBwsshnItCaUw0xzrVIFb3E3ooV5vwCoifbpkfgczPhPCiPt7A0peI74VeZxEy7hXdAWsfQtxSZf9zTPwkiB8D8QUIrwtTeP0BsRMbjzpcAuFkU8ZZ9H4riLU/8m0o77aMiy1fboFwTyg/HZJ+KWLENVAuRaF4oGU+7hN+toPYdTinKV8zdb9CVpxlc9qHQTjOxJ8Cdc/30pLK3kJ8H8LlyIrTIX54vzjOsJuImzDFrTUhIH6CZb7Z5qybAOW3e+Gp7GnETggfNOV8CIf2xHbzWBE3HdOgfMqUp5tynGW+yfLlfcNupvKOLhPpZcQOqFtrmT8BwgZT5vrdtZOIm75JilthmT8SwtHWtq7JlEdB3GoouYuYu4rYAeVbyHiFzdzQvwvv7ipiqOxPKH9p+VIrxI8y8SNNeB7UPRsw+xLxg7Ca4Q7Liodavtz/j7zvCcSap/IViL/QlNMsK45CW+kACH8StuyVexlxPZRvQtyDplw8oE5G70nE6gDCNq4gON3ETbV8eSTEzw8v02t2YDPtjiC+C+WjJjzPxO+VG2hXLyB2TSCb8HYTHg/xkywr7glxSyC8N3R363sAMZQe4xXIFw8bsEdB9CJitYtbC+XVlvkFED/OxE+D8AIo/7ydShjbQuyE8nkob4D4BZYvD80N5KuXEWu/DKyG8hJTzrZCaSwKfjaEl0P51FbWx24JcX2oOnInxJ1synG5dPUZYu1E80ooz7WMB1m+PAbKY6G8Ljyx67eBWITyAQi/CeWhSW73IXYVHzLl7aZcgkJpoomfAHFLoPxdgN5Qg9gZntbLIC6z1sqgpFYfiNW89k8TLodwEcSPNPGHQPg1CFdC2AThKAh/BuUxlvkxSav+EGvru6025fdNOcvmtA9HxlnI2GAF12QFt09Sqn/E2pNwHjFxS61Q2icdzhknYjVeN3UrTF06/i9ixOr8Z3PSiRuxkhATYkJMiAkxISbEhJgQE2JCTIgJMSEmxISYEBNiQkyICTEhJsSEmBATYkJMiAkxIaYrl8vlLHMNlrkzdrWyf0LcnYgFl7MCW1AozoO4lQkxVsjWSg5z1jVBuDeEp0J75vCUhLhbulafg7DJMjcJmQPEvdFD++8T4m4c9EyHultCLZsPEmK8Xe1gZFwY6qG+14eYCbEXutrxUJ4D5araYvAJMc7R7EEQdyWUT4ft1hsSYrz58kiouwnKF3qpi02IfZQvh0LcyVDeBeXrPfxUJsQ+zpcTofwGlPeHeqkJMeJ8OQPiloUiCx0JMd5cOQjKRRBeE/JlQow0VzYgXxoX8uVtofhQQow0Vw6C8AAoz4ZwRShjkhAjzZXDkbmZUF4E5ZPdrO+WEOs0X46FcB6EP4by1YQYb75sRMaPQXgslL/dRn23hBhBvhyMjYdzLoG4VVt4JUmIEeXLoRA3GcqLoe7lmlmfhBhhvhyOfHkaxC0PVRkTYrTvl+KGWObbLPN1eeTB/wE6bKaQOqEZHQAAACV0RVh0ZGF0ZTpjcmVhdGUAMjAyMS0wNC0yOFQxNjo1NzowNCswMDowMA/drdsAAAAldEVYdGRhdGU6bW9kaWZ5ADIwMjEtMDQtMjhUMTY6NTc6MDQrMDA6MDB+gBVnAAAAAElFTkSuQmCC" parent="irreTRPkPW1s-mjHIozF-51" vertex="1">
          <mxGeometry width="79.45" height="90" as="geometry" />
        </mxCell>
        <mxCell id="irreTRPkPW1s-mjHIozF-50" value="&lt;b&gt;Azure Infrastructure&lt;/b&gt;" style="text;html=1;align=center;verticalAlign=middle;whiteSpace=wrap;rounded=0;" parent="irreTRPkPW1s-mjHIozF-51" vertex="1">
          <mxGeometry x="70" y="50" width="60" height="30" as="geometry" />
        </mxCell>
        <mxCell id="irreTRPkPW1s-mjHIozF-54" value="" style="group" parent="1" vertex="1" connectable="0">
          <mxGeometry x="570" y="740" width="80" height="110" as="geometry" />
        </mxCell>
        <mxCell id="irreTRPkPW1s-mjHIozF-52" value="" style="shape=image;verticalLabelPosition=bottom;verticalAlign=top;imageAspect=0;aspect=fixed;image=data:image/jpeg,/9j/4AAQSkZJRgABAQAAAQABAAD/2wCEAAkGBxIQEBUQExASFhUVFxUXFxIQFhUVGhgZGBIWFxcXFRgYHSggGhonGxgWIjEiJSkrLi4uFx81ODMtNygtLysBCgoKDg0OGxAQGy0lICUtLS0rKy0tLS0tMi8tLS0tLS8vLS0tLS0tLS0tLS0tKystLS0vLS8tLSstLS0tLS0tLf/AABEIAOEA4QMBEQACEQEDEQH/xAAbAAEAAQUBAAAAAAAAAAAAAAAABgEDBAUHAv/EAEEQAAEDAgALBAgDBwQDAAAAAAEAAgMEEQUGEiExQVFhcYGRBxMioRQyQlJicrHBI9HwFTOCkqLC4UNTY/EkRLL/xAAbAQEAAgMBAQAAAAAAAAAAAAAABQYBAwQCB//EADQRAAICAAIGCAYDAQEBAQAAAAABAgMEEQUSITFBURMyYXGBsdHwBiKRocHhFCNC8TNyJP/aAAwDAQACEQMRAD8A7igCAIAgCAIAgCAIAgCAo5wGcm3FAa+fD1LGbOqoAdhkZfpe63Rw9st0X9GaZYiqOxyX1MR+N1CP/aj5XP0C2LBYh/4ZreNoX+0G430J/wDaj55Q+oR4HEL/AAwsbQ/9oyYcYaN+ZtXATs7xgPQleJYa5b4P6GxYml7pL6mxY8OFwQRtButLTW82p5npYMhAEAQBAEAQBAEAQBAEAQBAEAQBAEAQBAWKysjhblyyNY0e08gDhn1r3CEpvKKzZ5nOMFnJ5Ih2Fe0iBmaCN0p9534bfMZR6BSVWirJbZvL7sjbdKVx2QWf2RFa/Heum0SCIe7C0D+p13dCFIV6PohvWfeR9mkL57nl3GiqJZJTeSSR52yOc/8A+iuuMYw6qS7jklKc+s2+88x0xJsASTqAuegWLLYVxc5tJLe28l9TMKpTkoxWbfBbWbKHF2Z3stb85/K6r9/xZo2p5Kbl/wDKb+7yX0JarQGNsWeqo979MysuLkwGhjtzXfmAvFPxdo2x5Nyj3x9Mz1Z8PYyCzST7n6pGumpC05LmkHYRZWCjE1Xw6SqSkuaeZE20Tqlq2RafJnmEvjOUx7mHaxxaeoW2SjJZSWZ4i5RecXkbugxxrof9cyAezOMvq71vNctmAw8/85d2z9HTXjsRDjn3+8yU4L7So3WbUQuZ8cXjbxLTnA4XUfbomS21vPsez39iQq0rF7LFl3bSZYNwnDUty4ZWPGvJOcfMNIO4qMspnW8prIkq7YWLODzMtazYEAQBAEAQBAEAQBAEAQBAEAQHieZrGl73BrWi5c4gADaSdCzGLk8lvMOSis2QDGHtEAvHSNudHfSDN/A3XxPQqYw+i/8AVv0X5IjEaUS+WpePoQSsqZah/eSyOe7a83tuA0AbgpaEIVrVgskRM5zsec3meWxL1mFEuiNYzPWRn02CZX2IjeGn23NIb1Onko7SGlMPganZbLuS3t8kveR2YXA3YiajBePBEmoaBkLbNGfW46T+ti+T6T0tiNIWa1r2cIrcvV9r29y2F5wWApwkNWC28XxfvkZVlG5naUsmYLNVSMlbkuFx5jeCuzA4+/BW9LRLJ8eT7GuP44ZHPicLViYalqzX3XcyM1eBZWE5LHvaPaY0mw+K2hfVtFaaox9WsmoyXWi3ufZzT4P8lGx2jLcLPLLOPBpefJmtMamcyO1S26JZzPLiUhe+JwfG9zHDQ5hIPULElGayks0Yi5QecXkya4A7RHttHVtyh/vRizh87BmPEW4FReI0Wntq+j9SUw+lGtlq8V6HQ6KsjmYJI3tew6HNNxw3HcoacJQerJZMmYTjNa0Xmi+vB6CAIAgCAIAgCAIAgCAIDVYwYfhoo8uV2c3yI2+s87hs2k5gujD4ad8so+LNGIxMKI5y8Ecmw/jDPXOvIclgPhhZfJGwn3nbzysrFh8LXQvl38yu4jFWXv5t3I1zIlvbNKiZtFQvlcGRsc9x1NF+Z2DeVrnZGCzk8kboVym8orNkzwTiA42dUSZP/HFYnm45hyB4qLu0mlsrWfa/QkqtGt7bH4Ik0OCqSjblthaCNDiMp5OwF2dQmP0o6q3O6Wzlz7EiVw2ChrZQjt5/s09bVOldlO5DUBuXz7GYyzFWa8/BcF74viWGqqNUckWLLkzNplU2DZZBcNzbXZhy2rvw+jcTetaEdnN7F6/Y0WYmuDybPU+CZWC5bcfCb+WlbLtE4upazjmuzb9t/wBjEMXVJ5Z/UwbKNzOkuU8zo3B7TYj9WO5b6L50TVlbya95PsPM4RnHVkb0U1NXMvJCwu13FnDg4Z7K/aM0s74a1csmt6971yZXsXgYp5TWfJkfwr2fg3dTy2+CXOOTgLjmDxU/TpR7rF4r0Im3Rq31vwfqQrCWC5ad2RLG5h1X0H5SMx5KUquhYs4PMi7KZVvKSyNe+JbkzS4mTgfC89FJ3kL7X9Zjs7HfM376d61XUV3RymvU9032UPOD8OB1jFjGiGubYeCUC7onHPxafabv62VexWDnQ9u1cywYbFwvWzY+RvVyHWEAQBAEAQBAEAQBAaLGvGWOhjvmdK71I9vxO2NHn9OvCYSV8uSW9nLisVGiO3fwRyGuq5KmUzSuLnu1nUNQaNQGxWSuuNcdWCyRXLLJWy1pPaGRrLYSJbi3ibJUWklvHHpHvvG4H1RvPTWo7E4+Nfyw2v7IkcNgZWfNLYvudEwdg6KnZkRMDRu0ne46SeKhLLZ2PObzJiuqFayisi5V1LYm5TjwGsnYFxYrFV4at2WP1b5I6Kq5WS1YkWrKp0rsp3IagFQ8ZjLMVZrz8FwS973xJqqqNcckWbLlzNhsMC0Ykfdwu1tjbadQ4aVMaFwUcTc5TWcY8Ob4eBy4u51wyW9klV3IcICP4fog0iRotlGzhv2/VVLT2CjXJXwWWbyffz8eP7JTBXOS1Hw3GnIVeJA908zo3BzTYj9WO5b6MROiasreTXvJ9h5nCM46siVYPrmzNuMxGluz/CvOBx0MXXrR2Nb1y/XJkJfRKqWT3cGXaulZKwskY1zTpa4XH/e9SEJyg84vJnNKEZrKSzRAcY8SHR3kprvbpMRzuHyn2hu08VM4bSKl8tmx8+H697iJxGAcfmr2rlx/fveQmSNSqZFuJaje+J4kY4te03a5uYgpJKS1ZLNHhOUJa0djR1fEzGxta3u5LNnaM41PA9pn3GpV7G4J0PWj1fIsODxivWT6xKFwHcEAQBAEAQBAEBqsZMOMooDK7O7Qxl7FztQ3DWTqC6MNh5Xz1V4s0YnERohrPwRxitq5KmV00rsp7jnOobABqA2Kz11xrioR3IrNlkrZOUt57ij1W6LLZlI6LinieGAT1Dbv0tiOhuwv2u3auOiExmPcvkr3cWTOEwSj89m/kTRRRJlmqqWxtynHgNZOwLmxWKrw1bssfq3yRsrrlZLViRisqnSuynchqAVCxmNsxVmvPwXBL3vfEmaqo1xyRZsuQ2CyA3WLrhZ7deY/VWn4bsWVkOOx/gjscuqzcq0EeEBrMYHDugNZcPK6gviCajhVF73JfbadmBX9mfYRwhU0lihCyZPVPM6Nwc02I/VjuW/D4iyixWVvJr3k+wxOEZx1ZEqwfXNmbcZiNLdn+FecDjq8XXrR2Nb1y/XJkJfRKqWT3cGZa7jQRfGrFNlSDLEA2bXqEm52x2/rukMJjXV8s9sfL3yOHFYNWfNHZLzOY1NO5jixzSHNNi05iDsKnoyTWaIKUGnkzGY90bxIxxa5pu1zdIIXtpSWrLczWm4PWjvOwYn4xtrobmzZWWEjB5Ob8J8jcbzWsZhXRPse4smDxSvhm963m/XGdYQBAEAQBAW55mxtc9xAa0FznHQABckrMYuTyW8xKSis2cUxlw06uqDKbhg8MbDqbfSfiOk8hqCtOFw6or1ePEq+KxDvs1uHAw42Lc2a0jo+I+LOQBVTN8ZzxsPsj3iPeOrZx0QmPxms+jhu4smsFhNVdJPfwJoookyzVVDY25Tjy1k7AubFYqvDVuyx+rfJGyuuVkskRmsqnSuynchqAVCxuNsxVmvPwXBL3vfEmKqo1xyRZsuM2FUAssGC9SzmNwcOm0bF1YTFTwtqth9Oa5HiytWR1WSCnwjG8esAdjs3/au2G0vhb49ZJ8ns/wC+BFTw1kHuz7j1NXxsFy8Hc3OfJbL9J4WlZymu5bX9EYhRZJ7ER+vqzK65zAaBs/yqXpDHyxlus9iW5e+LJWipVRyMQhcJuKELJk8kL0ZPVPO6Nwe02I89x3Lfh8RZRYrK3k17yfYYnCM46siV4PrmzNuMxGluz/CvWBx1eLr1o7Gt65frkyEvolVLJ7uDMpdpoIzjji2KphljA75o4ZYHsnfsPLh34LF9E9WXVf2OHGYXpVrR63mcslj1Ecj91YEyBkj1gnCMlHO2ePS3S29g5p9Zp3HyIB1LzdVG6DhIU2ypmpxO24Mr2VELJozdrxcbtoO8G4PBVW2uVc3CW9FprsjZFTjuZlLwewgCAIAgOe9qGHLBtEw5zZ8ttnsM5nOeDdqmNF4fa7Zdy9SH0piMkqo+PoQKFimWyIiiY4i4A9Ik754/DjOg6Hv0gcBmJ5b1G4/E9HHUjvf2RJ4HDdJLWluXmdOUAThbqJgxpc7QP1ZacRfCit2T3I9wg5yUURerqnSuynchsC+f43G2YuzXn4Lgl73viTNVUa45ItLjNhWywYFlgFbIYFkAsgKWQyUWQUWTJQhZMnkhZMnkhej0eqed0bg9psR57juXRh8RZRYrK3k17yfYeZwjZHVkSygqxMwOHAjYdiveCxccVUrI+K5MgrqXVLVZkrrNRAO0HAOSfS4xmJAlA1E5g/noO+20qZ0dic/6peHoRGkMPl/ZHx9SAysUumREkSzs0w53UxpHnwS52X1SW0fxDzA2qN0nh9eHSret/d+iQ0ZiNWfRS3Pd3/s6ioEnggCAICxXVbYYnyvNmsaXHgBfNvXuEHOSit7PM5qEXJ7kcKq6p9RM+Z/rSOLju2AbgLDkrZCCrgoR3Iqc5uybm+JlYPpHSyNiYLueQ0c9Z3DTyXmyahFye5G2uDnJRW9naMF0LaeFkLNDRa+06S47ybnmqtbY7Jub4llqrVcFFcDKWs2Gkxgmztj1AZR+g+/VVP4jxDcoUrd1n5L8kjgYbHPwNSFWTvKhYMFbLBgrZYMFUAQFEAsgKELJkoQsmTyQsmTyVkyeSvR6PJXpGTY4vz5MuTqeLcxnH36qb0FiHDEdHwkvutq/JyY6vWr1uRJ1ciGLc8LZGuY4AtcCCDrBFiFmMnFpreYlFSWTONYewYaad8Jz5J8JOtp9U9PMFWjD3K2tTRWr6XXNxZp3EtcHNJDmkEEaQQbgjmujJNZM5dsXmjt+LuFBV00c40ub4gNThmcOoPKyqmIpdVjgWrD2q2tT5myWk3BAEBB+1TCWRTspwc8rru+Rlj5uLehUroqrWsc3w82RelbdWtQXHyRzmFqnGQsUT7s2wZdz6kj1fAziRdx6WH8RUPpO7JKtcdrJfRtWbdj7kdAUMS4QEdw2PxjwCo+n8/5j7l+SWwf/AJGAFCHSegsGCqwYNXVudlm99ObhqW+OWR3VKOqsizlHaV6yPeSGUdpTIZIZR2lMhkhlHaUGSGUdpQZIplHaUM5IZR2lBkjZxXyRfTZanvOKWWbyKlZQPJXoyZGCx+Oz5vsVIaMz/l15c/wzVif/ABl3EvV+IEICHdo+DcuFtQBnjOS75XHN0db+YqT0ZdlN1vj5kbpGrOCmuHkczmap1EHJE17KcI2fLSk5j+KziLNf5ZHQqK0tVsjYu5/j8kpoq3bKt96/J0hQhNBAEBx3tAre+wg8XzRBsY5DKd/U4jkrLo+vUoT57St6Qs172uWw08YXWznidnxbofR6WKO2fJBd8zvE7zNuSq2Ks6S2Uiy4avo6lE2a0G8IDT4fg9WQasx+336qr/EeFbUb1w2P8ffzO/BWb4eJpwqmSB6CweSqwDGlrGtNrE22L2oNm6NMmszx6e3YfJZ6Nmf48uY9PbsPknRsfx5cx6e3YfJOjY/jy5j09uw+SdGx/HlzHp7fdPknRsfx5cyhr27D5LPRsz0EuZT05uw+SzqMz0EuZkNdcXGteTU1k8mUK9IHgrKPSNpi9TXkMmposOJ/xfqrBoDDOdzue6Oxd79F5nFjrMoanMkat5EhAWK6mE0T4naHtLTzFrr3XNwkpLgeZwU4uL4nEKqEscWOGdpLSN4Nj5q1xkms0VacWnky7i3W+j1sMt7APDXfK/wO8jfkvGKr6SmUezy2nrDWdHdGXb5ncVVC0hAUc6wudSA4DLOZZXynS97nn+Jxd91cIx1IqPJZFQlLXm5c3mbXAFL3tTFHbM57bj4Qbu8gVpxE9SuUuw6cPDXsjHtO1KqlmCAIDzIwOBaRcHSF4srjZBwms095mMnF5ojldRGI7WnQfsd6oGktGzwc+cXuf4fb57+aUvTcrF2mMow2lVgGHNQ3JIdpz51tVmSOiF+SyaLf7PPvDos9Iev5C5D9nn3h0TpB/IXIfs8+8OidIP5C5D9nn3h0TpB/IXIfs8+8OidIP5C5A4PPvDonSD+QuRT0A+8Oia5np1yMtjMkAbF5zNDebzKFZBeo6R0rslvN2oBduCwdmKs1IeL4Je9y4ni26NUc2SmmgbG0MaMw895V9w2Hhh61XDcveZCWWOyWtIureeAgCA5LjxS93Wy5sz7PH8Qz/wBQcrJgZ61EezZ78CvY6Grc+3aRaoau5EfI7vgeq76nil9+NjjxLQT5qo3Q1LJR5Nltqnr1xlzSMxazYa7GObu6OoeNIhkI45Bt5rdh461sV2rzNOIlq1Sa5M4dThWxlViS/s+hyq1p9xj3eWT/AHKO0jLKh9rXr+CS0fHO5difp+TqarxPBAEAQHiWMOBaRcFarqYXQddizTPUZOLzRHq6jMR2tOg/Y71QNJaNng7Mt8Xuf4fb57+6VpuVi7TGUabggCAIAgCAIChWQeSsmShXo9FykpXSuyW8zsC7MFg7MVZqQ8XwS97lxPFtsa45sk9LTNjbktHE6ydpV9wuFrw1arrXq3zZDWWSslrSLy6TWEAQBAc77TYbTRP95hb/ACuv/epvRcvkku3z/wCEPpOPzxfZ5f8ASBzhSyIiR17s+my8HQ30jLb/ACyOA8rKt6QjliJeHkWPR8s8PHP3tJEuI7DR47utg+o+S3VwH3XVglniId5y415UT7jjUCs7K1EnPZm3/wAmQ7IiOr2fkorSj/qXf+GSujV/Y32HSFBk0EAQBAEB4miDwWkXBWq+iF8HXYs0z1GTi80R6uozE7aDoP2O9UDSOjp4OzJ7Yvc/w+0lablYu0xlGm4IAgCAIAgKFZB5Kyei7S0zpHZLeZ2DaV2YPB2YqzUh4vgkeLLI1xzZJaSmbG3JbzO07Sr9hMJXha1XX4vi3zZD22yslmy8uo1hAEAQBAQbtPb4YDvkHUM/JS+intl4fki9JrZF9/4OczqaRCSOpdmLr0AGySQeYP3Vf0mv7/BE/ox/0LvZLVHEgaLHht8H1HyX6OBXXgX/APoh3nLjVnRPuONwKzMrMSddmbv/ACJB/wAR8nt/NRWlF/Wu/wDBL6N/9H3HR1BkyEAQBAEAQHiaIPaWuFwVpvorvrddizTPUJuLzRHa2kMTrHODoP61qgaR0fZg7Mnti9z98SWqtViz4mOo42hAEAQBZB5KyZLlNTukdkt5nUBtK68HhLMVZ0dfi+CR4ssjXHNkkpKZsbckcztKv+DwdeFr6OHi+LZEW2yslmy+uo1hAEAQBAEBB+093hgG+Q9Az81LaKW2Xh+SL0nuj4nOJ1NohJHUezBtqC+2SQ/QfZV/Sj/v8ET+jF/R4slyjiQNZjNFl0VQ0aTDJYbwwkea34aWV0H2rzNOJWdMl2M4hTlWtlViTHs7lya0D343t+jv7VG6SjnR3Nen5JPR7yu8GdRVfJ0IAgCAIAgCAtzwh7S1wzH9ZloxGHrxFbrsWaZ6hNweaI5WUxjdkniDtC+e4/BTwd3Ry2renzXveS1VisjmiyuI2hAFkFEMnungdI7Jb12DaV1YTCWYqxV1rvfBLmzxZZGEc2SSkpWxNyRzO0r6BgsFXhK9SHi+LZEW2yslmy+us1hAEAQBAEAQHPe06W8sLPdY938zgP7FNaKj8sn2r7f9IfSb+aK7H7+xAZypdERI652dxZODofiMjusrreVlW9IvPES8PIsWj1lh4+PmSRcR2nmRgcC06CCDzWU8nmYazWRwAxGN7ozpY5zTxaSD9FcFJSSkuJUdVxk4vgbvFqq7qqhfqD2g8HeEnoSubFQ16pLs/Z1YaerbF9vnsOzKrllCAIAgCAIAgCA02HvWZwP1CqPxN16+5/gkMFuZqlWDtCApdZMlCUMm7wDI3JLfavc7xqVx+Hbauida6+eb7Vw78vt4kbjYy1k+BtVYziCAIAgCAIAgCA5Rj5Vd5WvGpgawchlHzceisWj4atC7dpAY+etc+zYROocpBEdI7pgCl7mlhiOlsbAeOSL+d1U8RPXtlLm2WuiGpXGPJIz1pNoQHGceaLucISi1hJaUfxjxf1h6s+As18PHs2fT9FZx1epiH27ffiauMrpZpidswHW9/Txy63NF/mGZw/mBVVvr6OyUeRZ6LOkrUjOWk2hAEAQBAEAQGlxg9ZnA/UKpfEvXr7n+CRwO5mirneDmFW4LaSVK+Y80DiWcD9gk1tM3L5jJuvORqKLIKskLSHA2I0EL3XZOuSnB5NbmHFSWTJJg2t71t7WcNI+4V90ZpBYyrNrKS3+q7GQ+Ip6KXY9xmKSNAQBAEAQBAW6iYRsdI42a0FxO4C5XqMXJqK4mJSUU2zh9bUGR7pHaXuc48XEk/VWuEVGKiuBVpycm5PiecDUXpFXDDa4e9uUPhHif/SCl9nR1SnyX/DFFfSWxj2ndlUi1hAEBAe1bB144qoD1CWP+V2dpO4OFv41L6Jtyk63x2r373ETpWrOKsXDZ9Tn8LlNMh4s6J2a4SzPpidH4jOGYOHWx5lQuk6d1i7n+CZ0bbsdb71+SdKIJUIAgCAIAgCA0mMPrM4H6hVL4l69fc/wSOB3SNBXepzCrkN5KU9YpQHwnj9gk95m/rGTdeTSUusmT3BC57g1ouT+rnct2Hw9l9irrWbfvN9h5nNQjrSJPQUYibYZydJ2n8lfcBgYYSvUjtb3vm/TkQ11ztlmzJXcaQgCAIAgCAinaHhLu6cQg+KU2PyNsXdTYcypHRtOtZrvcvM4NIW6tequPkcumcp9EDJku7LMHZc8lSRmjbkN+Z2c24NH9ajNK25QVa47ffvgSOiqs5ux8Nh05QROBAEBiYXoG1MEkDtD2kX2HU4bwbHktlNjrmprga7a1ZBwfE4W+J0T3RvFnMcWuG8GxVsUlKKktzKo4uEnF70bHBFe6CZkzdLDe20aC3mLjmtV1asg4Pib6bHXJSXA7RR1LZY2ysN2vAIPHbvVWnBwk4veizQmpxUluZeXk9BAEAQBAEBo8YvWZwP1CqfxJ16+5/gksBukaCtPg5hVyO8lKesUofVPH7BJbzN3WMi6xkacil0yMmwwJVtjeQ7NlWGVstt3Z1N6ExleHtcbNilks+WX4eZy4ymU4px4cCSq6kOEAQBAEAQFHuABJNgM5J1DeiWewN5HHcZ8LelVDpfZ9VgOpo0dc55qz4Wjoq1Hjx7yt4m7pbHLhw7jQTO/6C60ccjtWKWCfRKSOIjxkZUnzuznpmbwaFVsXd01rlw4dxZ8JT0NSjx495uFzHSEAQBAc17T8CZD21rBmfZkttTgLMdzAtyG1Tmi8RmuifDavyQmlMPk1au5/ghcL1KtEZFk67P8AD3du9FkPhebxk6nHS3gdW/ionSOG1l0kd6393697iWwGI1X0ctz3d/797zoihCYCAIAgCAIDQ4yHxM4O+oVU+I+vX3P8EngOrLwNBWHw8wq5HeSlXWKUR8J4/YLMjN3WL915yNWRS6yZKErOQJJi9K90ZDtANmk+Y4BXHQVts6Gp7k8ov8eH64ETjoQjNNb3vNqpw4QgCAIAgIV2g4dyG+iMPicLyEam6mcTr3cVK6Ow2b6WXh6+/wAEZpDEZLo4+JziV6m0iFkyQ9nmBfSanvnD8OAh2f2pNLBy9Y8G7Vw6RxHR16i3y8vew7NHUdJZrvdHzOtqulhCAIAgCAsV9GyeJ8Mgux4LSOOzYdd17rnKElKO9HmcFOLjLcziGGcGPo6h0D9WdrveafVcP1pBCtVF0bq1OPtlWuplTY4P2i3E9e2jCZ1LEzGQVLBDIfxmjSf9QD2h8W0c+FfxuE6J68eq/sT2DxXSLVl1l9yUKPO4IAgCAIDQYzeszg76hVX4i69fc/wSmj+rLwI/Vnw8wq6iUq6xSjPh5/YIzNu8vXWMjXkLrIM3BND3zzc2a2xNtJvoA6FSejMB/Lsak/lW/wBDnxV/RR2b3uJXGwNAAFgNACu8IRhFRiskiDcnJ5s9L0YCAIAgNHjTh9tHHmsZXDwM/ud8I89G23XhMK7pdi3nLisSqY9vA5LUzue4vc4lziSXHSSdJKscYpLJFenJt5ssUtM+eVsMYu95sB9SdwFydwWZzjXFzluR4hCVk1CO9nbcA4JZSU7IGZ8keJ2tzj6zjxPQWGpVa+53WObLRRTGmCgjYLSbggCAIAgCA0ON+Lra6GwsJWXMbzt1td8J8sx1LrweKdE8+D3nJjMKr4ZcVuOPPY6N7o3tLXNJDmnSCFZk1Ja0dzK204S1ZbzJpqhzHB7XEOaQQ4ZiCNYXiUU1kzZGTTzR1DFTGptUBFIQ2Ycg/e3ftHTdAYvBOp60dsfInsLjFb8sut5kmXAdoQBAEBHsaD4mcHfUKrfEXXr7n+CV0d1ZeBH6o+Hmq6StfWKUh8PP7BBbvL10NeRS6yZMjB9c6F+UM4Olu0fmuzBYyeFs147uK5r15Gm+iNscn4EvpalsrQ9puD5HYd6vGHxFd9asrez3sZBWVyrlqyLy3GsIAgNJjLjHHRttmdKR4Y/7n7G/XrbrwuElc+S5nLicVGlc3yOU4QrnzSOkkcXOdpJ8gNg3Kw11xhFRithAWWSnLWlvNfI8k2AJJzADOSdQC27jQ3nsR1XETFf0SPvpQO/kGcf7bdOQN+snlqua9j8Z00tWPVX37fQsGAwnQx1pdZ/bs9SWKPJAIAgCAIAgCAICK46YptrG97HZs7RmOgPA9l2/Yf0O/BY10vVl1fI4Mbg1ctaPW8zlL2ujcWPaWuabOa7MQd6sSaks1uK+04vVlvL8Umgg6NY+oXlo9qROsXMeC20dTcjQJgLkfONfEZ9x0qJxOjs/mq+noSuH0hl8tn19SdwTNkaHscHNOcOaQQeBCh5RcXk1tJaMlJZouLBkICO41etHwd9Qqv8AEPXr7n+CW0b1ZeBHqj1VXiVr3lKbRzQWby7dMjxkUus5AXWUjJLMAULomEu0vscnZbbvVx0Rg54epue+W3Ll++ZB42+Nsko7lxNopY4ijnAAkkADOSc1uKJZ7hnkQvGLHhrLx01nO1ynO0fIPaO/RxUrhtHN/Nbs7OPj7+hGYjSCXy1/Xgc+qahz3F7nFziblzjck7ypmMVFZIh5TbebMR7yTYXJOYAZyTsC97jU3nsR0nEbE7uLVNQ38XSyM/6e8/H9OOiDx2O6T+uvdxfP9E5gcD0f9lm/guX7JwoolAgCAIAgCAIAgCAICP41YqxVzcr1JgPDKB/S8e03zGrXfswuMnQ8t65ehx4rBwvWe58zk+FMGzUkndTMLTnsdLXDa06x5jXZWGq6F0daDK/bVOmWrNFpkq9tHlSNpgnDU1M7KikIvpac7Txb99K0XYeu1ZTXqdFN86nnFk4wTj7E+zZ2GN3vNu5p5esPPiom7Rk47a3n5krVpGD2TWXkSqkrI5W5UcjXjawg9baFHzrlB5SWR3wnGazi8zGw1g/vmZvWbctvr2j6dFFaTwP8qv5est3p4nZhMR0Mtu57yHvaWkgixGYg6lTJQlGTjJZNE8mms0UuvJnIpdMjOQWcgSfAeB8i0kg8Wpp9njv+itWi9F9Flbavm4Ll+/IhsZjNf5IbvP8ARt6idkbcp72taPaeQ0dSp6MXJ5RWZGykorNvIjOFceaeK4iBldtHhZ/MRn5A8V306NsltnsX3OG3SFcdkdr+xBsNYwz1X7x/h1RszN6a+d1LUYWunqrbz4kVdirLes9nLgaZ8i6UjmcilJTSVEgiiY57zoa36k6AN5zLE5xrjrTeSMQhOyWrBZs6jijiYyktNLaSfb7Me5l9fxdLZ7wGLx8rvljsj59/oT2EwEafmltl5d3qSxR5IBAEAQBAEAQBAEAQBAEBi4RwfFURmKWNr2nU7UdoOkHeFsrtnXLWg8meLK42R1ZrNHN8Yez+WG8lMTKzT3Z/eN4an+R3FTeH0nCfy2bHz4fohMRoycPmq2rlx/ZEC4tJa4EEZi1wIIOwg6FJLJrNEbm08mXGyrGR6Ui/BUOYcpri0+80kHqF5lFNZM9xm080byjxwrI83fZY2SgO8/W81yTwFEv85d3vI64Y66PHPvL9RjWZiDLEwHQXx3Gbe0k36qA0t8NQxMHOl5TW7Pc+xvyf4JbA6dlVJRtXy8cuHbl5ozWSAgEG4OghfObK51zcJrJrY096LnCcZxUovNPcypcvKWexHrcYMeMoheXRxseR6rnk2B2gDTxur/oX4Z6OKuxOyfCPLv7fLvKjpHT2tJ10bY8+fd2efcW6vHSsk0SNYNkbQPN1z5qzw0fRHhn3kHPH3S45dxoqmsfIcp73PO17i49SuuMIxWUVkckrHJ5yeZjulXvI8ORZdKvWR4ciT4AxGqKmz5bwx/EPG75WnRxd0Kj8RpGuvZD5n9jvw+jrLNs/lX3Ol4GwNBSMyIYw3a453OO1ztJ+g1KDuvndLObJymiFMdWCNgtJtCAIAgCAIAgCAIAgCAIAgCAIDW4XwDTVY/Gia46njwuHBwz8tC304m2rqP0NNuHrtXzohOFOzV4z004I9yfMeT2ix6BSlWlk9lkfFen7Iu3RTW2uX19SK1+Aaun/AHlPIAPaaMtv8zbgc1IV4mmzqyXl5kfZhrq+tF+Zrmz71vyNGsexMsZHrWM7B2FzFmtduzZvH5KB0zoCrSGU09Wa/wBZZ5rk1s8Hw7iX0ZpmzBfK1rQfDl2r8ryLmEMNGQZLRkt15853bgufQ/wzXgp9NbLXmt2zJLt7X28OHM3aT09PFw6OtaseO3a+zu7OP2NaZlZsiC1jw6dZyMaxm0GCamo/dU8jwfaDbN/ndZvmtVl9VfXkl75G2ui2zqxZKMF9m8z7GolbGPcj8buBJ8I81H26Vgtlaz7/AH6HfVoqb22PLuJrgXFilpLGOIF4/wBWTxP5E6OVlF3Yu27rPZyW4k6cJVT1Vt58TcrmOkIAgCAIAgCAIAgCAIAgCAIAgCAIAgCAIDDrMFQTfvIIn73sa49SFshdZDqya8TXOqufWin4GonxHoHm/o9j8D5G+QdbyXTHSGIX+vsjnlo/Dv8Az5mK/s8ojoEo4SH7hbFpO/s+hrejKOT+ob2d0Q/3jxf+QR6Uv7PoFoyjt+pkw4iUDc/cF3zSSHyyrLw9I4h/6+yPa0fh1/n7s2tJgWmhzx08LTtaxt+trrnnfbPrSb8TohRXDqxS8DPWk2hAEAQBAEAQBAEAQBAEAQBAEAQBAEAQBAEAQBAEAQBAEAQBAEAQBAEAQBAEAQBAEAQBAf/Z" parent="irreTRPkPW1s-mjHIozF-54" vertex="1">
          <mxGeometry y="30" width="80" height="80" as="geometry" />
        </mxCell>
        <mxCell id="irreTRPkPW1s-mjHIozF-53" value="Azure Key Vault" style="text;html=1;align=center;verticalAlign=middle;whiteSpace=wrap;rounded=0;" parent="irreTRPkPW1s-mjHIozF-54" vertex="1">
          <mxGeometry x="10" width="60" height="30" as="geometry" />
        </mxCell>
        <mxCell id="irreTRPkPW1s-mjHIozF-58" style="edgeStyle=orthogonalEdgeStyle;rounded=0;orthogonalLoop=1;jettySize=auto;html=1;entryX=0;entryY=0.5;entryDx=0;entryDy=0;" parent="1" source="irreTRPkPW1s-mjHIozF-45" target="irreTRPkPW1s-mjHIozF-49" edge="1">
          <mxGeometry relative="1" as="geometry" />
        </mxCell>
        <mxCell id="irreTRPkPW1s-mjHIozF-59" value="Create Infra" style="edgeLabel;html=1;align=center;verticalAlign=middle;resizable=0;points=[];" parent="irreTRPkPW1s-mjHIozF-58" vertex="1" connectable="0">
          <mxGeometry x="-0.2672" y="-1" relative="1" as="geometry">
            <mxPoint as="offset" />
          </mxGeometry>
        </mxCell>
        <mxCell id="irreTRPkPW1s-mjHIozF-63" style="edgeStyle=orthogonalEdgeStyle;rounded=0;orthogonalLoop=1;jettySize=auto;html=1;exitX=0.5;exitY=0;exitDx=0;exitDy=0;" parent="1" source="irreTRPkPW1s-mjHIozF-21" target="irreTRPkPW1s-mjHIozF-18" edge="1">
          <mxGeometry relative="1" as="geometry" />
        </mxCell>
        <mxCell id="irreTRPkPW1s-mjHIozF-64" value="Get Latest&lt;div&gt;Model Version&lt;/div&gt;" style="edgeLabel;html=1;align=center;verticalAlign=middle;resizable=0;points=[];" parent="irreTRPkPW1s-mjHIozF-63" vertex="1" connectable="0">
          <mxGeometry x="0.2199" relative="1" as="geometry">
            <mxPoint as="offset" />
          </mxGeometry>
        </mxCell>
        <mxCell id="irreTRPkPW1s-mjHIozF-65" style="edgeStyle=orthogonalEdgeStyle;rounded=0;orthogonalLoop=1;jettySize=auto;html=1;exitX=0.5;exitY=1;exitDx=0;exitDy=0;entryX=0;entryY=0.5;entryDx=0;entryDy=0;entryPerimeter=0;" parent="1" source="irreTRPkPW1s-mjHIozF-23" target="irreTRPkPW1s-mjHIozF-20" edge="1">
          <mxGeometry relative="1" as="geometry" />
        </mxCell>
        <mxCell id="irreTRPkPW1s-mjHIozF-66" value="Store Models" style="edgeLabel;html=1;align=center;verticalAlign=middle;resizable=0;points=[];" parent="irreTRPkPW1s-mjHIozF-65" vertex="1" connectable="0">
          <mxGeometry x="-0.0364" relative="1" as="geometry">
            <mxPoint as="offset" />
          </mxGeometry>
        </mxCell>
        <mxCell id="JY3WoV23rv5U9PjqviVk-2" style="edgeStyle=orthogonalEdgeStyle;rounded=0;orthogonalLoop=1;jettySize=auto;html=1;exitX=1;exitY=0.5;exitDx=0;exitDy=0;" edge="1" parent="1" source="irreTRPkPW1s-mjHIozF-18" target="irreTRPkPW1s-mjHIozF-10">
          <mxGeometry relative="1" as="geometry" />
        </mxCell>
      </root>
    </mxGraphModel>
  </diagram>
</mxfile>
